%TF.GenerationSoftware,KiCad,Pcbnew,(6.0.1-0)*%
%TF.CreationDate,2022-09-18T11:43:05-04:00*%
%TF.ProjectId,keeb,6b656562-2e6b-4696-9361-645f70636258,rev?*%
%TF.SameCoordinates,Original*%
%TF.FileFunction,Soldermask,Top*%
%TF.FilePolarity,Negative*%
%FSLAX46Y46*%
G04 Gerber Fmt 4.6, Leading zero omitted, Abs format (unit mm)*
G04 Created by KiCad (PCBNEW (6.0.1-0)) date 2022-09-18 11:43:05*
%MOMM*%
%LPD*%
G01*
G04 APERTURE LIST*
G04 Aperture macros list*
%AMRoundRect*
0 Rectangle with rounded corners*
0 $1 Rounding radius*
0 $2 $3 $4 $5 $6 $7 $8 $9 X,Y pos of 4 corners*
0 Add a 4 corners polygon primitive as box body*
4,1,4,$2,$3,$4,$5,$6,$7,$8,$9,$2,$3,0*
0 Add four circle primitives for the rounded corners*
1,1,$1+$1,$2,$3*
1,1,$1+$1,$4,$5*
1,1,$1+$1,$6,$7*
1,1,$1+$1,$8,$9*
0 Add four rect primitives between the rounded corners*
20,1,$1+$1,$2,$3,$4,$5,0*
20,1,$1+$1,$4,$5,$6,$7,0*
20,1,$1+$1,$6,$7,$8,$9,0*
20,1,$1+$1,$8,$9,$2,$3,0*%
G04 Aperture macros list end*
%ADD10RoundRect,0.050000X0.200000X0.675000X-0.200000X0.675000X-0.200000X-0.675000X0.200000X-0.675000X0*%
%ADD11C,1.550000*%
%ADD12RoundRect,0.050000X0.750000X0.950000X-0.750000X0.950000X-0.750000X-0.950000X0.750000X-0.950000X0*%
%ADD13RoundRect,0.050000X0.600000X0.950000X-0.600000X0.950000X-0.600000X-0.950000X0.600000X-0.950000X0*%
%ADD14O,1.300000X2.000000*%
%ADD15RoundRect,0.050000X-0.724784X0.335876X0.335876X-0.724784X0.724784X-0.335876X-0.335876X0.724784X0*%
%ADD16RoundRect,0.050000X-0.335876X-0.724784X0.724784X0.335876X0.335876X0.724784X-0.724784X-0.335876X0*%
%ADD17C,3.500000*%
%ADD18C,2.000000*%
%ADD19C,1.400000*%
%ADD20C,5.150000*%
%ADD21C,3.100000*%
%ADD22C,1.650000*%
%ADD23RoundRect,0.050000X-0.750000X-0.500000X0.750000X-0.500000X0.750000X0.500000X-0.750000X0.500000X0*%
%ADD24RoundRect,0.050000X-0.600000X0.700000X-0.600000X-0.700000X0.600000X-0.700000X0.600000X0.700000X0*%
%ADD25RoundRect,0.300000X0.512652X0.159099X0.159099X0.512652X-0.512652X-0.159099X-0.159099X-0.512652X0*%
%ADD26RoundRect,0.300000X-0.450000X0.262500X-0.450000X-0.262500X0.450000X-0.262500X0.450000X0.262500X0*%
%ADD27RoundRect,0.300000X0.475000X-0.250000X0.475000X0.250000X-0.475000X0.250000X-0.475000X-0.250000X0*%
%ADD28RoundRect,0.300000X-0.159099X0.512652X-0.512652X0.159099X0.159099X-0.512652X0.512652X-0.159099X0*%
%ADD29RoundRect,0.300000X0.159099X-0.512652X0.512652X-0.159099X-0.159099X0.512652X-0.512652X0.159099X0*%
%ADD30RoundRect,0.300000X-0.250000X-0.475000X0.250000X-0.475000X0.250000X0.475000X-0.250000X0.475000X0*%
%ADD31RoundRect,0.300000X0.503814X0.132583X0.132583X0.503814X-0.503814X-0.132583X-0.132583X-0.503814X0*%
G04 APERTURE END LIST*
D10*
%TO.C,J1*%
X149300000Y130037500D03*
X148650000Y130037500D03*
X148000000Y130037500D03*
X147350000Y130037500D03*
X146700000Y130037500D03*
D11*
X150500000Y130037500D03*
D12*
X149000000Y132737500D03*
D13*
X145100000Y132737500D03*
D14*
X144500000Y132737500D03*
X151500000Y132737500D03*
D13*
X150900000Y132737500D03*
D11*
X145500000Y130037500D03*
D12*
X147000000Y132737500D03*
%TD*%
D15*
%TO.C,U1*%
X162897918Y131158936D03*
X162332233Y130593250D03*
X161766548Y130027565D03*
X161200862Y129461880D03*
X160635177Y128896194D03*
X160069491Y128330509D03*
X159503806Y127764823D03*
X158938120Y127199138D03*
X158372435Y126633452D03*
X157806750Y126067767D03*
X157241064Y125502082D03*
D16*
X157241064Y123097918D03*
X157806750Y122532233D03*
X158372435Y121966548D03*
X158938120Y121400862D03*
X159503806Y120835177D03*
X160069491Y120269491D03*
X160635177Y119703806D03*
X161200862Y119138120D03*
X161766548Y118572435D03*
X162332233Y118006750D03*
X162897918Y117441064D03*
D15*
X165302082Y117441064D03*
X165867767Y118006750D03*
X166433452Y118572435D03*
X166999138Y119138120D03*
X167564823Y119703806D03*
X168130509Y120269491D03*
X168696194Y120835177D03*
X169261880Y121400862D03*
X169827565Y121966548D03*
X170393250Y122532233D03*
X170958936Y123097918D03*
D16*
X170958936Y125502082D03*
X170393250Y126067767D03*
X169827565Y126633452D03*
X169261880Y127199138D03*
X168696194Y127764823D03*
X168130509Y128330509D03*
X167564823Y128896194D03*
X166999138Y129461880D03*
X166433452Y130027565D03*
X165867767Y130593250D03*
X165302082Y131158936D03*
%TD*%
D17*
%TO.C,SW5*%
X23475000Y26100000D03*
D18*
X28975000Y26100000D03*
X17975000Y26100000D03*
D19*
X18255000Y21900000D03*
%TD*%
D18*
%TO.C,SW10*%
X52725000Y26100000D03*
D17*
X47225000Y26100000D03*
D19*
X42005000Y21900000D03*
D18*
X41725000Y26100000D03*
%TD*%
D17*
%TO.C,SW15*%
X70975000Y26100000D03*
D19*
X65755000Y21900000D03*
D18*
X76475000Y26100000D03*
X65475000Y26100000D03*
%TD*%
D20*
%TO.C,SW20*%
X278250000Y102300000D03*
D18*
X272750000Y102300000D03*
X283750000Y102300000D03*
D21*
X283250000Y106100000D03*
X278250000Y108200000D03*
D22*
X273250000Y97150000D03*
%TD*%
D18*
%TO.C,SW25*%
X288500000Y83250000D03*
D19*
X277780000Y79050000D03*
D17*
X283000000Y83250000D03*
D18*
X277500000Y83250000D03*
%TD*%
%TO.C,SW30*%
X281325000Y64200000D03*
D19*
X270605000Y60000000D03*
D18*
X270325000Y64200000D03*
D17*
X275825000Y64200000D03*
%TD*%
D18*
%TO.C,SW35*%
X147400000Y26100000D03*
D22*
X136900000Y20950000D03*
D20*
X141900000Y26100000D03*
D21*
X146900000Y29900000D03*
D18*
X136400000Y26100000D03*
D21*
X141900000Y32000000D03*
%TD*%
D19*
%TO.C,SW55*%
X211230000Y21900000D03*
D17*
X216450000Y26100000D03*
D18*
X221950000Y26100000D03*
X210950000Y26100000D03*
%TD*%
%TO.C,SW60*%
X250500000Y26100000D03*
X239500000Y26100000D03*
D17*
X245000000Y26100000D03*
D19*
X239780000Y21900000D03*
%TD*%
D18*
%TO.C,SW64*%
X256075000Y45150000D03*
X267075000Y45150000D03*
D19*
X256355000Y40950000D03*
D17*
X261575000Y45150000D03*
%TD*%
D19*
%TO.C,SW1*%
X15880000Y98100000D03*
D18*
X15600000Y102300000D03*
D17*
X21100000Y102300000D03*
D18*
X26600000Y102300000D03*
%TD*%
%TO.C,SW6*%
X45650000Y102300000D03*
D19*
X34930000Y98100000D03*
D18*
X34650000Y102300000D03*
D17*
X40150000Y102300000D03*
%TD*%
D19*
%TO.C,SW8*%
X49180000Y60000000D03*
D18*
X48900000Y64200000D03*
X59900000Y64200000D03*
D17*
X54400000Y64200000D03*
%TD*%
D18*
%TO.C,SW9*%
X58450000Y45150000D03*
X69450000Y45150000D03*
D17*
X63950000Y45150000D03*
D19*
X58730000Y40950000D03*
%TD*%
D18*
%TO.C,SW11*%
X64700000Y102300000D03*
X53700000Y102300000D03*
D17*
X59200000Y102300000D03*
D19*
X53980000Y98100000D03*
%TD*%
D18*
%TO.C,SW12*%
X63200000Y83250000D03*
D19*
X63480000Y79050000D03*
D17*
X68700000Y83250000D03*
D18*
X74200000Y83250000D03*
%TD*%
D17*
%TO.C,SW13*%
X73450000Y64200000D03*
D18*
X78950000Y64200000D03*
X67950000Y64200000D03*
D19*
X68230000Y60000000D03*
%TD*%
D17*
%TO.C,SW14*%
X83000000Y45150000D03*
D19*
X77780000Y40950000D03*
D18*
X77500000Y45150000D03*
X88500000Y45150000D03*
%TD*%
D17*
%TO.C,SW16*%
X78250000Y102300000D03*
D18*
X83750000Y102300000D03*
X72750000Y102300000D03*
D19*
X73030000Y98100000D03*
%TD*%
D18*
%TO.C,SW17*%
X93250000Y83250000D03*
X82250000Y83250000D03*
D17*
X87750000Y83250000D03*
D19*
X82530000Y79050000D03*
%TD*%
D18*
%TO.C,SW18*%
X98000000Y64200000D03*
X87000000Y64200000D03*
D17*
X92500000Y64200000D03*
D19*
X87280000Y60000000D03*
%TD*%
%TO.C,SW19*%
X96830000Y40950000D03*
D17*
X102050000Y45150000D03*
D18*
X96550000Y45150000D03*
X107550000Y45150000D03*
%TD*%
D17*
%TO.C,SW21*%
X97300000Y102300000D03*
D19*
X92080000Y98100000D03*
D18*
X102800000Y102300000D03*
X91800000Y102300000D03*
%TD*%
D19*
%TO.C,SW22*%
X101580000Y79050000D03*
D18*
X112300000Y83250000D03*
X101300000Y83250000D03*
D17*
X106800000Y83250000D03*
%TD*%
D18*
%TO.C,SW23*%
X117050000Y64200000D03*
D17*
X111550000Y64200000D03*
D19*
X106330000Y60000000D03*
D18*
X106050000Y64200000D03*
%TD*%
%TO.C,SW24*%
X126600000Y45150000D03*
D17*
X121100000Y45150000D03*
D18*
X115600000Y45150000D03*
D19*
X115880000Y40950000D03*
%TD*%
D17*
%TO.C,SW26*%
X116350000Y102300000D03*
D18*
X110850000Y102300000D03*
X121850000Y102300000D03*
D19*
X111130000Y98100000D03*
%TD*%
D18*
%TO.C,SW27*%
X120350000Y83250000D03*
D19*
X120630000Y79050000D03*
D17*
X125850000Y83250000D03*
D18*
X131350000Y83250000D03*
%TD*%
%TO.C,SW28*%
X125100000Y64200000D03*
D17*
X130600000Y64200000D03*
D19*
X125380000Y60000000D03*
D18*
X136100000Y64200000D03*
%TD*%
D17*
%TO.C,SW29*%
X140150000Y45150000D03*
D19*
X134930000Y40950000D03*
D18*
X134650000Y45150000D03*
X145650000Y45150000D03*
%TD*%
%TO.C,SW31*%
X140900000Y102300000D03*
D19*
X130180000Y98100000D03*
D17*
X135400000Y102300000D03*
D18*
X129900000Y102300000D03*
%TD*%
D17*
%TO.C,SW32*%
X144900000Y83250000D03*
D18*
X139400000Y83250000D03*
D19*
X139680000Y79050000D03*
D18*
X150400000Y83250000D03*
%TD*%
%TO.C,SW33*%
X144150000Y64200000D03*
X155150000Y64200000D03*
D17*
X149650000Y64200000D03*
D19*
X144430000Y60000000D03*
%TD*%
D18*
%TO.C,SW34*%
X153700000Y45150000D03*
X164700000Y45150000D03*
D17*
X159200000Y45150000D03*
D19*
X153980000Y40950000D03*
%TD*%
%TO.C,SW36*%
X149230000Y98100000D03*
D18*
X159950000Y102300000D03*
X148950000Y102300000D03*
D17*
X154450000Y102300000D03*
%TD*%
%TO.C,SW37*%
X163950000Y83250000D03*
D18*
X158450000Y83250000D03*
X169450000Y83250000D03*
D19*
X158730000Y79050000D03*
%TD*%
%TO.C,SW38*%
X163480000Y60000000D03*
D17*
X168700000Y64200000D03*
D18*
X163200000Y64200000D03*
X174200000Y64200000D03*
%TD*%
%TO.C,SW39*%
X172750000Y45150000D03*
X183750000Y45150000D03*
D19*
X173030000Y40950000D03*
D17*
X178250000Y45150000D03*
%TD*%
%TO.C,SW40*%
X287850000Y45150000D03*
D18*
X293350000Y45150000D03*
D19*
X282630000Y40950000D03*
D18*
X282350000Y45150000D03*
%TD*%
%TO.C,SW41*%
X168000000Y102300000D03*
X179000000Y102300000D03*
D19*
X168280000Y98100000D03*
D17*
X173500000Y102300000D03*
%TD*%
D18*
%TO.C,SW42*%
X188500000Y83250000D03*
D19*
X177780000Y79050000D03*
D17*
X183000000Y83250000D03*
D18*
X177500000Y83250000D03*
%TD*%
D17*
%TO.C,SW43*%
X187750000Y64200000D03*
D19*
X182530000Y60000000D03*
D18*
X182250000Y64200000D03*
X193250000Y64200000D03*
%TD*%
D19*
%TO.C,SW44*%
X192080000Y40950000D03*
D18*
X202800000Y45150000D03*
X191800000Y45150000D03*
D17*
X197300000Y45150000D03*
%TD*%
D18*
%TO.C,SW45*%
X282350000Y26100000D03*
X293350000Y26100000D03*
D17*
X287850000Y26100000D03*
D19*
X282630000Y21900000D03*
%TD*%
%TO.C,SW46*%
X187330000Y98100000D03*
D18*
X187050000Y102300000D03*
D17*
X192550000Y102300000D03*
D18*
X198050000Y102300000D03*
%TD*%
%TO.C,SW47*%
X196550000Y83250000D03*
D19*
X196830000Y79050000D03*
D17*
X202050000Y83250000D03*
D18*
X207550000Y83250000D03*
%TD*%
%TO.C,SW48*%
X201300000Y64200000D03*
X212300000Y64200000D03*
D17*
X206800000Y64200000D03*
D19*
X201580000Y60000000D03*
%TD*%
D18*
%TO.C,SW49*%
X210850000Y45150000D03*
D19*
X211130000Y40950000D03*
D18*
X221850000Y45150000D03*
D17*
X216350000Y45150000D03*
%TD*%
D18*
%TO.C,SW50*%
X301300000Y102300000D03*
D19*
X301580000Y98100000D03*
D17*
X306800000Y102300000D03*
D18*
X312300000Y102300000D03*
%TD*%
%TO.C,SW51*%
X206100000Y102300000D03*
D17*
X211600000Y102300000D03*
D19*
X206380000Y98100000D03*
D18*
X217100000Y102300000D03*
%TD*%
D19*
%TO.C,SW52*%
X215880000Y79050000D03*
D17*
X221100000Y83250000D03*
D18*
X215600000Y83250000D03*
X226600000Y83250000D03*
%TD*%
D17*
%TO.C,SW53*%
X225850000Y64200000D03*
D19*
X220630000Y60000000D03*
D18*
X231350000Y64200000D03*
X220350000Y64200000D03*
%TD*%
%TO.C,SW54*%
X229950000Y45150000D03*
X240950000Y45150000D03*
D17*
X235450000Y45150000D03*
D19*
X230230000Y40950000D03*
%TD*%
D18*
%TO.C,SW56*%
X236150000Y102300000D03*
D19*
X225430000Y98100000D03*
D17*
X230650000Y102300000D03*
D18*
X225150000Y102300000D03*
%TD*%
D19*
%TO.C,SW57*%
X234930000Y79050000D03*
D18*
X245650000Y83250000D03*
D17*
X240150000Y83250000D03*
D18*
X234650000Y83250000D03*
%TD*%
D17*
%TO.C,SW58*%
X244900000Y64200000D03*
D18*
X250400000Y64200000D03*
X239400000Y64200000D03*
D19*
X239680000Y60000000D03*
%TD*%
D18*
%TO.C,SW59*%
X301300000Y83250000D03*
D17*
X306800000Y83250000D03*
D19*
X301580000Y79050000D03*
D18*
X312300000Y83250000D03*
%TD*%
%TO.C,SW61*%
X255200000Y102300000D03*
X244200000Y102300000D03*
D17*
X249700000Y102300000D03*
D19*
X244480000Y98100000D03*
%TD*%
%TO.C,SW62*%
X253980000Y79050000D03*
D17*
X259200000Y83250000D03*
D18*
X253700000Y83250000D03*
X264700000Y83250000D03*
%TD*%
%TO.C,SW63*%
X312350000Y64200000D03*
X301350000Y64200000D03*
D17*
X306850000Y64200000D03*
D19*
X301630000Y60000000D03*
%TD*%
D18*
%TO.C,SW65*%
X263300000Y26100000D03*
D19*
X263580000Y21900000D03*
D18*
X274300000Y26100000D03*
D17*
X268800000Y26100000D03*
%TD*%
%TO.C,SW66*%
X306900000Y45150000D03*
D19*
X301680000Y40950000D03*
D18*
X301400000Y45150000D03*
X312400000Y45150000D03*
%TD*%
D17*
%TO.C,SW67*%
X306900000Y26100000D03*
D18*
X312400000Y26100000D03*
D19*
X301680000Y21900000D03*
D18*
X301400000Y26100000D03*
%TD*%
D17*
%TO.C,SW7*%
X49650000Y83250000D03*
D19*
X44430000Y79050000D03*
D18*
X55150000Y83250000D03*
X44150000Y83250000D03*
%TD*%
D19*
%TO.C,SW2*%
X20680000Y79050000D03*
D18*
X20400000Y83250000D03*
D17*
X25900000Y83250000D03*
D18*
X31400000Y83250000D03*
%TD*%
%TO.C,SW3*%
X33775000Y64200000D03*
D17*
X28275000Y64200000D03*
D19*
X23055000Y60000000D03*
D18*
X22775000Y64200000D03*
%TD*%
%TO.C,SW4*%
X38575000Y45150000D03*
X27575000Y45150000D03*
D19*
X27855000Y40950000D03*
D17*
X33075000Y45150000D03*
%TD*%
D23*
%TO.C,D68*%
X281550000Y126100000D03*
X281550000Y122900000D03*
X286450000Y122900000D03*
X286450000Y126100000D03*
%TD*%
%TO.C,D69*%
X251550000Y126100000D03*
X251550000Y122900000D03*
X256450000Y122900000D03*
X256450000Y126100000D03*
%TD*%
%TO.C,D70*%
X221550000Y126100000D03*
X221550000Y122900000D03*
X226450000Y122900000D03*
X226450000Y126100000D03*
%TD*%
%TO.C,D71*%
X191550000Y126100000D03*
X191550000Y122900000D03*
X196450000Y122900000D03*
X196450000Y126100000D03*
%TD*%
%TO.C,D72*%
X131550000Y126100000D03*
X131550000Y122900000D03*
X136450000Y122900000D03*
X136450000Y126100000D03*
%TD*%
%TO.C,D73*%
X101550000Y126100000D03*
X101550000Y122900000D03*
X106450000Y122900000D03*
X106450000Y126100000D03*
%TD*%
%TO.C,D74*%
X71550000Y126100000D03*
X71550000Y122900000D03*
X76450000Y122900000D03*
X76450000Y126100000D03*
%TD*%
%TO.C,D75*%
X41550000Y126100000D03*
X41550000Y122900000D03*
X46450000Y122900000D03*
X46450000Y126100000D03*
%TD*%
D24*
%TO.C,Y1*%
X155900000Y119000000D03*
X155900000Y116800000D03*
X157600000Y116800000D03*
X157600000Y119000000D03*
%TD*%
D25*
%TO.C,C3*%
X168521751Y131128249D03*
X167178249Y132471751D03*
%TD*%
D26*
%TO.C,R1*%
X147000000Y127412500D03*
X147000000Y125587500D03*
%TD*%
D27*
%TO.C,C2*%
X153600000Y116850000D03*
X153600000Y118750000D03*
%TD*%
D26*
%TO.C,R2*%
X149250000Y127412500D03*
X149250000Y125587500D03*
%TD*%
D28*
%TO.C,C5*%
X167271751Y116221751D03*
X165928249Y114878249D03*
%TD*%
D29*
%TO.C,C4*%
X157178249Y128878249D03*
X158521751Y130221751D03*
%TD*%
D30*
%TO.C,C1*%
X155900000Y114550000D03*
X157800000Y114550000D03*
%TD*%
D31*
%TO.C,R3*%
X155495235Y121654765D03*
X154204765Y122945235D03*
%TD*%
M02*
