M48
INCH,TZ
T1C0.0157
T2C0.0236
T3C0.0335
T4C0.0630
T5C0.1201
%
G90
G05
T1
X17520Y48386
X29370Y48386
X41181Y48386
X52992Y48386
X60571Y49980
X61191Y49449
X61427Y48927
X61772Y51378
X62480Y48976
X62835Y49370
X62844Y46654
X63504Y47913
X64016Y47756
X64291Y47283
X65236Y52402
X65236Y37953
X66299Y31535
X67598Y48937
X67717Y50000
X70000Y51299
X71063Y51063
X72126Y50709
X72480Y37795
X72874Y38386
X73268Y41693
X75709Y23031
X76575Y15276
X76614Y48386
X81772Y7638
X88386Y48386
X100276Y48386
X112047Y48386
T3
X57283Y51196
X59252Y51196
T4
X53898Y8248
X107579Y38248
T5
X8307Y42598
X9242Y12598
X10197Y35098
X10276Y41772
X11132Y27598
X11211Y11772
X12165Y34272
X13022Y20098
X13100Y26772
X14990Y19272
X15807Y42598
X17776Y41772
X18593Y12598
X19547Y35098
X20561Y11772
X21417Y27598
X21516Y34272
X23307Y42598
X23386Y26772
X25177Y20098
X25276Y41772
X27047Y35098
X27146Y19272
X27943Y12598
X28917Y27598
X29016Y34272
X29911Y11772
X30807Y42598
X30886Y26772
X32677Y20098
X32776Y41772
X34547Y35098
X34646Y19272
X36417Y27598
X36516Y34272
X38307Y42598
X38386Y26772
X40177Y20098
X40276Y41772
X42047Y35098
X42146Y19272
X43917Y27598
X44016Y34272
X45807Y42598
X45886Y26772
X47677Y20098
X47776Y41772
X49547Y35098
X49646Y19272
X51417Y27598
X51516Y34272
X53307Y42598
X53386Y26772
X55177Y20098
X55276Y41772
X55866Y12598
X57047Y35098
X57146Y19272
X57835Y11772
X58917Y27598
X59016Y34272
X60807Y42598
X60886Y26772
X62677Y20098
X62776Y41772
X64547Y35098
X64646Y19272
X66417Y27598
X66516Y34272
X68307Y42598
X68386Y26772
X70177Y20098
X70276Y41772
X72047Y35098
X72146Y19272
X73917Y27598
X74016Y34272
X75807Y42598
X75886Y26772
X77677Y20098
X77776Y41772
X79547Y35098
X79646Y19272
X81417Y27598
X81516Y34272
X83307Y42598
X83386Y26772
X85177Y20098
X85217Y12598
X85276Y41772
X87047Y35098
X87146Y19272
X87185Y11772
X88917Y27598
X89016Y34272
X90807Y42598
X90886Y26772
X92697Y20098
X92776Y41772
X94547Y35098
X94665Y19272
X96417Y27598
X96457Y12598
X96516Y34272
X98307Y42598
X98386Y26772
X98425Y11772
X100276Y41772
X102047Y35098
X102982Y20098
X104016Y34272
X104951Y19272
X105827Y12598
X107795Y11772
X108593Y27598
X109547Y42598
X110561Y26772
X111417Y35098
X111516Y41772
X113327Y20098
X113327Y12598
X113386Y34272
X115295Y19272
X115295Y11772
X120787Y42598
X120787Y35098
X120807Y27598
X120827Y20098
X120827Y12598
X122756Y41772
X122756Y34272
X122776Y26772
X122795Y19272
X122795Y11772
T2
G00X56890Y52121
M15
G01X56890Y52397
M16
G05
G00X59646Y52397
M15
G01X59646Y52121
M16
G05
T0
M30
