%TF.GenerationSoftware,KiCad,Pcbnew,(6.0.1-0)*%
%TF.CreationDate,2022-09-18T11:43:05-04:00*%
%TF.ProjectId,keeb,6b656562-2e6b-4696-9361-645f70636258,rev?*%
%TF.SameCoordinates,Original*%
%TF.FileFunction,Paste,Bot*%
%TF.FilePolarity,Positive*%
%FSLAX46Y46*%
G04 Gerber Fmt 4.6, Leading zero omitted, Abs format (unit mm)*
G04 Created by KiCad (PCBNEW (6.0.1-0)) date 2022-09-18 11:43:05*
%MOMM*%
%LPD*%
G01*
G04 APERTURE LIST*
G04 Aperture macros list*
%AMRoundRect*
0 Rectangle with rounded corners*
0 $1 Rounding radius*
0 $2 $3 $4 $5 $6 $7 $8 $9 X,Y pos of 4 corners*
0 Add a 4 corners polygon primitive as box body*
4,1,4,$2,$3,$4,$5,$6,$7,$8,$9,$2,$3,0*
0 Add four circle primitives for the rounded corners*
1,1,$1+$1,$2,$3*
1,1,$1+$1,$4,$5*
1,1,$1+$1,$6,$7*
1,1,$1+$1,$8,$9*
0 Add four rect primitives between the rounded corners*
20,1,$1+$1,$2,$3,$4,$5,0*
20,1,$1+$1,$4,$5,$6,$7,0*
20,1,$1+$1,$6,$7,$8,$9,0*
20,1,$1+$1,$8,$9,$2,$3,0*%
G04 Aperture macros list end*
%ADD10RoundRect,0.250000X-1.025000X-1.000000X1.025000X-1.000000X1.025000X1.000000X-1.025000X1.000000X0*%
%ADD11R,0.900000X1.200000*%
G04 APERTURE END LIST*
D10*
%TO.C,SW5*%
X31975000Y29900000D03*
X19975000Y32100000D03*
%TD*%
%TO.C,SW10*%
X55725000Y29900000D03*
X43725000Y32100000D03*
%TD*%
%TO.C,SW15*%
X67475000Y32100000D03*
X79475000Y29900000D03*
%TD*%
%TO.C,SW20*%
X274750000Y108300000D03*
X286750000Y106100000D03*
%TD*%
%TO.C,SW25*%
X291500000Y87050000D03*
X279500000Y89250000D03*
%TD*%
%TO.C,SW30*%
X284325000Y68000000D03*
X272325000Y70200000D03*
%TD*%
%TO.C,SW35*%
X138400000Y32100000D03*
X150400000Y29900000D03*
%TD*%
%TO.C,SW55*%
X212950000Y32100000D03*
X224950000Y29900000D03*
%TD*%
%TO.C,SW60*%
X241500000Y32100000D03*
X253500000Y29900000D03*
%TD*%
%TO.C,SW64*%
X270075000Y48950000D03*
X258075000Y51150000D03*
%TD*%
%TO.C,SW1*%
X29600000Y106100000D03*
X17600000Y108300000D03*
%TD*%
%TO.C,SW6*%
X48650000Y106100000D03*
X36650000Y108300000D03*
%TD*%
%TO.C,SW8*%
X62900000Y68000000D03*
X50900000Y70200000D03*
%TD*%
%TO.C,SW9*%
X72450000Y48950000D03*
X60450000Y51150000D03*
%TD*%
%TO.C,SW11*%
X55700000Y108300000D03*
X67700000Y106100000D03*
%TD*%
%TO.C,SW12*%
X77200000Y87050000D03*
X65200000Y89250000D03*
%TD*%
%TO.C,SW13*%
X69950000Y70200000D03*
X81950000Y68000000D03*
%TD*%
%TO.C,SW14*%
X79500000Y51150000D03*
X91500000Y48950000D03*
%TD*%
%TO.C,SW16*%
X86750000Y106100000D03*
X74750000Y108300000D03*
%TD*%
%TO.C,SW17*%
X96250000Y87050000D03*
X84250000Y89250000D03*
%TD*%
%TO.C,SW18*%
X101000000Y68000000D03*
X89000000Y70200000D03*
%TD*%
%TO.C,SW19*%
X110550000Y48950000D03*
X98550000Y51150000D03*
%TD*%
%TO.C,SW21*%
X93800000Y108300000D03*
X105800000Y106100000D03*
%TD*%
%TO.C,SW22*%
X115300000Y87050000D03*
X103300000Y89250000D03*
%TD*%
%TO.C,SW23*%
X120050000Y68000000D03*
X108050000Y70200000D03*
%TD*%
%TO.C,SW24*%
X117600000Y51150000D03*
X129600000Y48950000D03*
%TD*%
%TO.C,SW26*%
X112850000Y108300000D03*
X124850000Y106100000D03*
%TD*%
%TO.C,SW27*%
X122350000Y89250000D03*
X134350000Y87050000D03*
%TD*%
%TO.C,SW28*%
X139100000Y68000000D03*
X127100000Y70200000D03*
%TD*%
%TO.C,SW29*%
X148650000Y48950000D03*
X136650000Y51150000D03*
%TD*%
%TO.C,SW31*%
X131900000Y108300000D03*
X143900000Y106100000D03*
%TD*%
%TO.C,SW32*%
X153400000Y87050000D03*
X141400000Y89250000D03*
%TD*%
%TO.C,SW33*%
X158150000Y68000000D03*
X146150000Y70200000D03*
%TD*%
%TO.C,SW34*%
X155700000Y51150000D03*
X167700000Y48950000D03*
%TD*%
%TO.C,SW36*%
X162950000Y106100000D03*
X150950000Y108300000D03*
%TD*%
%TO.C,SW37*%
X172450000Y87050000D03*
X160450000Y89250000D03*
%TD*%
%TO.C,SW38*%
X165200000Y70200000D03*
X177200000Y68000000D03*
%TD*%
%TO.C,SW39*%
X186750000Y48950000D03*
X174750000Y51150000D03*
%TD*%
%TO.C,SW40*%
X296350000Y48950000D03*
X284350000Y51150000D03*
%TD*%
%TO.C,SW41*%
X182000000Y106100000D03*
X170000000Y108300000D03*
%TD*%
%TO.C,SW42*%
X179500000Y89250000D03*
X191500000Y87050000D03*
%TD*%
%TO.C,SW43*%
X184250000Y70200000D03*
X196250000Y68000000D03*
%TD*%
%TO.C,SW44*%
X205800000Y48950000D03*
X193800000Y51150000D03*
%TD*%
%TO.C,SW45*%
X284350000Y32100000D03*
X296350000Y29900000D03*
%TD*%
%TO.C,SW46*%
X189050000Y108300000D03*
X201050000Y106100000D03*
%TD*%
%TO.C,SW47*%
X198550000Y89250000D03*
X210550000Y87050000D03*
%TD*%
%TO.C,SW48*%
X203300000Y70200000D03*
X215300000Y68000000D03*
%TD*%
%TO.C,SW49*%
X224850000Y48950000D03*
X212850000Y51150000D03*
%TD*%
%TO.C,SW50*%
X315300000Y106100000D03*
X303300000Y108300000D03*
%TD*%
%TO.C,SW51*%
X220100000Y106100000D03*
X208100000Y108300000D03*
%TD*%
%TO.C,SW52*%
X217600000Y89250000D03*
X229600000Y87050000D03*
%TD*%
%TO.C,SW53*%
X234350000Y68000000D03*
X222350000Y70200000D03*
%TD*%
%TO.C,SW54*%
X243950000Y48950000D03*
X231950000Y51150000D03*
%TD*%
%TO.C,SW56*%
X239150000Y106100000D03*
X227150000Y108300000D03*
%TD*%
%TO.C,SW57*%
X236650000Y89250000D03*
X248650000Y87050000D03*
%TD*%
%TO.C,SW58*%
X253400000Y68000000D03*
X241400000Y70200000D03*
%TD*%
%TO.C,SW59*%
X303300000Y89250000D03*
X315300000Y87050000D03*
%TD*%
%TO.C,SW61*%
X258200000Y106100000D03*
X246200000Y108300000D03*
%TD*%
%TO.C,SW62*%
X267700000Y87050000D03*
X255700000Y89250000D03*
%TD*%
%TO.C,SW63*%
X315350000Y68000000D03*
X303350000Y70200000D03*
%TD*%
%TO.C,SW65*%
X277300000Y29900000D03*
X265300000Y32100000D03*
%TD*%
%TO.C,SW66*%
X315400000Y48950000D03*
X303400000Y51150000D03*
%TD*%
%TO.C,SW67*%
X303400000Y32100000D03*
X315400000Y29900000D03*
%TD*%
%TO.C,SW7*%
X58150000Y87050000D03*
X46150000Y89250000D03*
%TD*%
%TO.C,SW2*%
X22400000Y89250000D03*
X34400000Y87050000D03*
%TD*%
%TO.C,SW3*%
X36775000Y68000000D03*
X24775000Y70200000D03*
%TD*%
%TO.C,SW4*%
X29575000Y51150000D03*
X41575000Y48950000D03*
%TD*%
D11*
%TO.C,D1*%
X27150000Y96700000D03*
X23850000Y96700000D03*
%TD*%
%TO.C,D2*%
X32175000Y77475000D03*
X28875000Y77475000D03*
%TD*%
%TO.C,D3*%
X34400000Y58525000D03*
X31100000Y58525000D03*
%TD*%
%TO.C,D4*%
X39125000Y39550000D03*
X35825000Y39550000D03*
%TD*%
%TO.C,D5*%
X29550000Y20400000D03*
X26250000Y20400000D03*
%TD*%
%TO.C,D6*%
X46250000Y96700000D03*
X42950000Y96700000D03*
%TD*%
%TO.C,D7*%
X55825000Y77525000D03*
X52525000Y77525000D03*
%TD*%
%TO.C,D8*%
X60525000Y58525000D03*
X57225000Y58525000D03*
%TD*%
%TO.C,D9*%
X70100000Y39425000D03*
X66800000Y39425000D03*
%TD*%
%TO.C,D10*%
X53350000Y20400000D03*
X50050000Y20400000D03*
%TD*%
%TO.C,D11*%
X65250000Y96700000D03*
X61950000Y96700000D03*
%TD*%
%TO.C,D12*%
X74825000Y77525000D03*
X71525000Y77525000D03*
%TD*%
%TO.C,D13*%
X79525000Y58525000D03*
X76225000Y58525000D03*
%TD*%
%TO.C,D14*%
X89200000Y39425000D03*
X85900000Y39425000D03*
%TD*%
%TO.C,D15*%
X77150000Y20500000D03*
X73850000Y20500000D03*
%TD*%
%TO.C,D16*%
X84350000Y96700000D03*
X81050000Y96700000D03*
%TD*%
%TO.C,D17*%
X93825000Y77525000D03*
X90525000Y77525000D03*
%TD*%
%TO.C,D18*%
X98625000Y58525000D03*
X95325000Y58525000D03*
%TD*%
%TO.C,D19*%
X108200000Y39425000D03*
X104900000Y39425000D03*
%TD*%
%TO.C,D21*%
X103350000Y96700000D03*
X100050000Y96700000D03*
%TD*%
%TO.C,D22*%
X112925000Y77525000D03*
X109625000Y77525000D03*
%TD*%
%TO.C,D23*%
X117625000Y58525000D03*
X114325000Y58525000D03*
%TD*%
%TO.C,D24*%
X127300000Y39425000D03*
X124000000Y39425000D03*
%TD*%
%TO.C,D26*%
X122450000Y96700000D03*
X119150000Y96700000D03*
%TD*%
%TO.C,D27*%
X132025000Y77525000D03*
X128725000Y77525000D03*
%TD*%
%TO.C,D28*%
X136725000Y58525000D03*
X133425000Y58525000D03*
%TD*%
%TO.C,D29*%
X146300000Y39425000D03*
X143000000Y39425000D03*
%TD*%
%TO.C,D31*%
X141450000Y96700000D03*
X138150000Y96700000D03*
%TD*%
%TO.C,D32*%
X151025000Y77525000D03*
X147725000Y77525000D03*
%TD*%
%TO.C,D33*%
X155725000Y58525000D03*
X152425000Y58525000D03*
%TD*%
%TO.C,D34*%
X165300000Y39425000D03*
X162000000Y39425000D03*
%TD*%
%TO.C,D35*%
X147950000Y20500000D03*
X144650000Y20500000D03*
%TD*%
%TO.C,D36*%
X160550000Y96700000D03*
X157250000Y96700000D03*
%TD*%
%TO.C,D37*%
X170025000Y77525000D03*
X166725000Y77525000D03*
%TD*%
%TO.C,D38*%
X174725000Y58525000D03*
X171425000Y58525000D03*
%TD*%
%TO.C,D39*%
X184400000Y39425000D03*
X181100000Y39425000D03*
%TD*%
%TO.C,D41*%
X179550000Y96700000D03*
X176250000Y96700000D03*
%TD*%
%TO.C,D42*%
X189125000Y77525000D03*
X185825000Y77525000D03*
%TD*%
%TO.C,D43*%
X193825000Y58525000D03*
X190525000Y58525000D03*
%TD*%
%TO.C,D44*%
X203500000Y39425000D03*
X200200000Y39425000D03*
%TD*%
%TO.C,D46*%
X198650000Y96700000D03*
X195350000Y96700000D03*
%TD*%
%TO.C,D47*%
X208125000Y77525000D03*
X204825000Y77525000D03*
%TD*%
%TO.C,D48*%
X212825000Y58525000D03*
X209525000Y58525000D03*
%TD*%
%TO.C,D49*%
X222500000Y39425000D03*
X219200000Y39425000D03*
%TD*%
%TO.C,D51*%
X217650000Y96700000D03*
X214350000Y96700000D03*
%TD*%
%TO.C,D52*%
X227225000Y77525000D03*
X223925000Y77525000D03*
%TD*%
%TO.C,D53*%
X231925000Y58525000D03*
X228625000Y58525000D03*
%TD*%
%TO.C,D54*%
X241600000Y39425000D03*
X238300000Y39425000D03*
%TD*%
%TO.C,D55*%
X222550000Y20500000D03*
X219250000Y20500000D03*
%TD*%
%TO.C,D56*%
X236750000Y96700000D03*
X233450000Y96700000D03*
%TD*%
%TO.C,D57*%
X246225000Y77525000D03*
X242925000Y77525000D03*
%TD*%
%TO.C,D58*%
X251025000Y58525000D03*
X247725000Y58525000D03*
%TD*%
%TO.C,D60*%
X251050000Y20500000D03*
X247750000Y20500000D03*
%TD*%
%TO.C,D61*%
X255750000Y96700000D03*
X252450000Y96700000D03*
%TD*%
%TO.C,D62*%
X265325000Y77525000D03*
X262025000Y77525000D03*
%TD*%
%TO.C,D64*%
X267650000Y39525000D03*
X264350000Y39525000D03*
%TD*%
%TO.C,D65*%
X274850000Y20500000D03*
X271550000Y20500000D03*
%TD*%
%TO.C,D20*%
X284350000Y96700000D03*
X281050000Y96700000D03*
%TD*%
%TO.C,D25*%
X289250000Y77500000D03*
X285950000Y77500000D03*
%TD*%
%TO.C,D30*%
X281875000Y58550000D03*
X278575000Y58550000D03*
%TD*%
%TO.C,D40*%
X293950000Y39500000D03*
X290650000Y39500000D03*
%TD*%
%TO.C,D45*%
X293950000Y20500000D03*
X290650000Y20500000D03*
%TD*%
%TO.C,D50*%
X312850000Y96700000D03*
X309550000Y96700000D03*
%TD*%
%TO.C,D59*%
X312850000Y77600000D03*
X309550000Y77600000D03*
%TD*%
%TO.C,D63*%
X312950000Y58600000D03*
X309650000Y58600000D03*
%TD*%
%TO.C,D66*%
X312950000Y39600000D03*
X309650000Y39600000D03*
%TD*%
%TO.C,D67*%
X312950000Y20500000D03*
X309650000Y20500000D03*
%TD*%
M02*
