%TF.GenerationSoftware,KiCad,Pcbnew,(6.0.1-0)*%
%TF.CreationDate,2022-09-18T11:43:05-04:00*%
%TF.ProjectId,keeb,6b656562-2e6b-4696-9361-645f70636258,rev?*%
%TF.SameCoordinates,Original*%
%TF.FileFunction,Profile,NP*%
%FSLAX46Y46*%
G04 Gerber Fmt 4.6, Leading zero omitted, Abs format (unit mm)*
G04 Created by KiCad (PCBNEW (6.0.1-0)) date 2022-09-18 11:43:05*
%MOMM*%
%LPD*%
G01*
G04 APERTURE LIST*
%TA.AperFunction,Profile*%
%ADD10C,0.050000*%
%TD*%
%TA.AperFunction,Profile*%
%ADD11C,0.120000*%
%TD*%
G04 APERTURE END LIST*
D10*
X319100000Y14300000D02*
X9100000Y14300000D01*
X29100000Y134300000D02*
X9100000Y114300000D01*
X9100000Y14300000D02*
X9100000Y114300000D01*
X299100000Y134300000D02*
X319100000Y114300000D01*
X29100000Y134300000D02*
X299100000Y134300000D01*
X319100000Y114300000D02*
X319100000Y14300000D01*
D11*
%TO.C,REF\u002A\u002A*%
X23125000Y51150000D02*
X23125000Y53650000D01*
X18475000Y43350000D02*
X18475000Y47850000D01*
X19625000Y50650000D02*
X22625000Y50650000D01*
X47275000Y48350000D02*
X42975000Y48350000D01*
X46625000Y54150000D02*
X43625000Y54150000D01*
X18975000Y48350000D02*
X23275000Y48350000D01*
X23775000Y43350000D02*
X23775000Y47850000D01*
X43125000Y51150000D02*
X43125000Y53650000D01*
X18975000Y42850000D02*
X23275000Y42850000D01*
X47125000Y51150000D02*
X47125000Y53650000D01*
X46625000Y50650000D02*
X43625000Y50650000D01*
X19125000Y51150000D02*
X19125000Y53650000D01*
X47275000Y42850000D02*
X42975000Y42850000D01*
X19625000Y54150000D02*
X22625000Y54150000D01*
X42475000Y43350000D02*
X42475000Y47850000D01*
X47775000Y43350000D02*
X47775000Y47850000D01*
X23275000Y42850000D02*
G75*
G03*
X23775000Y43350000I-1J500001D01*
G01*
X42475000Y43350000D02*
G75*
G03*
X42975000Y42850000I500001J1D01*
G01*
X23125000Y53650000D02*
G75*
G03*
X22625000Y54150000I-500001J-1D01*
G01*
X43125000Y51150000D02*
G75*
G03*
X43625000Y50650000I500001J1D01*
G01*
X23775000Y47850000D02*
G75*
G03*
X23275000Y48350000I-500001J-1D01*
G01*
X47775000Y47850000D02*
G75*
G03*
X47275000Y48350000I-500001J-1D01*
G01*
X47275000Y42850000D02*
G75*
G03*
X47775000Y43350000I-1J500001D01*
G01*
X19125000Y51150000D02*
G75*
G03*
X19625000Y50650000I500001J1D01*
G01*
X46625000Y50650000D02*
G75*
G03*
X47125000Y51150000I-1J500001D01*
G01*
X19625000Y54150000D02*
G75*
G03*
X19125000Y53650000I1J-500001D01*
G01*
X47125000Y53650000D02*
G75*
G03*
X46625000Y54150000I-500001J-1D01*
G01*
X42975000Y48350000D02*
G75*
G03*
X42475000Y47850000I1J-500001D01*
G01*
X22625000Y50650000D02*
G75*
G03*
X23125000Y51150000I-1J500001D01*
G01*
X18475000Y43350000D02*
G75*
G03*
X18975000Y42850000I500001J1D01*
G01*
X18975000Y48350000D02*
G75*
G03*
X18475000Y47850000I1J-500001D01*
G01*
X43625000Y54150000D02*
G75*
G03*
X43125000Y53650000I1J-500001D01*
G01*
X106550000Y24325000D02*
X106550000Y28825000D01*
X177900000Y32125000D02*
X177900000Y34625000D01*
X177250000Y24325000D02*
X177250000Y28825000D01*
X181400000Y31625000D02*
X178400000Y31625000D01*
X182550000Y24325000D02*
X182550000Y28825000D01*
X181900000Y32125000D02*
X181900000Y34625000D01*
X101750000Y29325000D02*
X106050000Y29325000D01*
X182050000Y29325000D02*
X177750000Y29325000D01*
X102400000Y35125000D02*
X105400000Y35125000D01*
X181400000Y35125000D02*
X178400000Y35125000D01*
X101900000Y32125000D02*
X101900000Y34625000D01*
X101250000Y24325000D02*
X101250000Y28825000D01*
X102400000Y31625000D02*
X105400000Y31625000D01*
X105900000Y32125000D02*
X105900000Y34625000D01*
X101750000Y23825000D02*
X106050000Y23825000D01*
X182050000Y23825000D02*
X177750000Y23825000D01*
X106550000Y28825000D02*
G75*
G03*
X106050000Y29325000I-500001J-1D01*
G01*
X105400000Y31625000D02*
G75*
G03*
X105900000Y32125000I-1J500001D01*
G01*
X177750000Y29325000D02*
G75*
G03*
X177250000Y28825000I1J-500001D01*
G01*
X181400000Y31625000D02*
G75*
G03*
X181900000Y32125000I-1J500001D01*
G01*
X177900000Y32125000D02*
G75*
G03*
X178400000Y31625000I500001J1D01*
G01*
X178400000Y35125000D02*
G75*
G03*
X177900000Y34625000I1J-500001D01*
G01*
X101250000Y24325000D02*
G75*
G03*
X101750000Y23825000I500001J1D01*
G01*
X177250000Y24325000D02*
G75*
G03*
X177750000Y23825000I500001J1D01*
G01*
X102400000Y35125000D02*
G75*
G03*
X101900000Y34625000I1J-500001D01*
G01*
X105900000Y34625000D02*
G75*
G03*
X105400000Y35125000I-500001J-1D01*
G01*
X181900000Y34625000D02*
G75*
G03*
X181400000Y35125000I-500001J-1D01*
G01*
X101750000Y29325000D02*
G75*
G03*
X101250000Y28825000I1J-500001D01*
G01*
X182050000Y23825000D02*
G75*
G03*
X182550000Y24325000I-1J500001D01*
G01*
X182550000Y28825000D02*
G75*
G03*
X182050000Y29325000I-500001J-1D01*
G01*
X106050000Y23825000D02*
G75*
G03*
X106550000Y24325000I-1J500001D01*
G01*
X101900000Y32125000D02*
G75*
G03*
X102400000Y31625000I500001J1D01*
G01*
X268250000Y108300000D02*
X268250000Y110800000D01*
X263600000Y100500000D02*
X263600000Y105000000D01*
X264750000Y107800000D02*
X267750000Y107800000D01*
X292400000Y105500000D02*
X288100000Y105500000D01*
X291750000Y111300000D02*
X288750000Y111300000D01*
X264100000Y105500000D02*
X268400000Y105500000D01*
X268900000Y100500000D02*
X268900000Y105000000D01*
X288250000Y108300000D02*
X288250000Y110800000D01*
X264100000Y100000000D02*
X268400000Y100000000D01*
X292250000Y108300000D02*
X292250000Y110800000D01*
X291750000Y107800000D02*
X288750000Y107800000D01*
X264250000Y108300000D02*
X264250000Y110800000D01*
X292400000Y100000000D02*
X288100000Y100000000D01*
X264750000Y111300000D02*
X267750000Y111300000D01*
X287600000Y100500000D02*
X287600000Y105000000D01*
X292900000Y100500000D02*
X292900000Y105000000D01*
X268400000Y100000000D02*
G75*
G03*
X268900000Y100500000I-1J500001D01*
G01*
X287600000Y100500000D02*
G75*
G03*
X288100000Y100000000I500001J1D01*
G01*
X268250000Y110800000D02*
G75*
G03*
X267750000Y111300000I-500001J-1D01*
G01*
X288250000Y108300000D02*
G75*
G03*
X288750000Y107800000I500001J1D01*
G01*
X268900000Y105000000D02*
G75*
G03*
X268400000Y105500000I-500001J-1D01*
G01*
X292900000Y105000000D02*
G75*
G03*
X292400000Y105500000I-500001J-1D01*
G01*
X292400000Y100000000D02*
G75*
G03*
X292900000Y100500000I-1J500001D01*
G01*
X264250000Y108300000D02*
G75*
G03*
X264750000Y107800000I500001J1D01*
G01*
X291750000Y107800000D02*
G75*
G03*
X292250000Y108300000I-1J500001D01*
G01*
X264750000Y111300000D02*
G75*
G03*
X264250000Y110800000I1J-500001D01*
G01*
X292250000Y110800000D02*
G75*
G03*
X291750000Y111300000I-500001J-1D01*
G01*
X288100000Y105500000D02*
G75*
G03*
X287600000Y105000000I1J-500001D01*
G01*
X267750000Y107800000D02*
G75*
G03*
X268250000Y108300000I-1J500001D01*
G01*
X263600000Y100500000D02*
G75*
G03*
X264100000Y100000000I500001J1D01*
G01*
X264100000Y105500000D02*
G75*
G03*
X263600000Y105000000I1J-500001D01*
G01*
X288750000Y111300000D02*
G75*
G03*
X288250000Y110800000I1J-500001D01*
G01*
X265800000Y70175000D02*
X265800000Y72675000D01*
X261150000Y62375000D02*
X261150000Y66875000D01*
X262300000Y69675000D02*
X265300000Y69675000D01*
X289950000Y67375000D02*
X285650000Y67375000D01*
X289300000Y73175000D02*
X286300000Y73175000D01*
X261650000Y67375000D02*
X265950000Y67375000D01*
X266450000Y62375000D02*
X266450000Y66875000D01*
X285800000Y70175000D02*
X285800000Y72675000D01*
X261650000Y61875000D02*
X265950000Y61875000D01*
X289800000Y70175000D02*
X289800000Y72675000D01*
X289300000Y69675000D02*
X286300000Y69675000D01*
X261800000Y70175000D02*
X261800000Y72675000D01*
X289950000Y61875000D02*
X285650000Y61875000D01*
X262300000Y73175000D02*
X265300000Y73175000D01*
X285150000Y62375000D02*
X285150000Y66875000D01*
X290450000Y62375000D02*
X290450000Y66875000D01*
X265950000Y61875000D02*
G75*
G03*
X266450000Y62375000I-1J500001D01*
G01*
X285150000Y62375000D02*
G75*
G03*
X285650000Y61875000I500001J1D01*
G01*
X265800000Y72675000D02*
G75*
G03*
X265300000Y73175000I-500001J-1D01*
G01*
X285800000Y70175000D02*
G75*
G03*
X286300000Y69675000I500001J1D01*
G01*
X266450000Y66875000D02*
G75*
G03*
X265950000Y67375000I-500001J-1D01*
G01*
X290450000Y66875000D02*
G75*
G03*
X289950000Y67375000I-500001J-1D01*
G01*
X289950000Y61875000D02*
G75*
G03*
X290450000Y62375000I-1J500001D01*
G01*
X261800000Y70175000D02*
G75*
G03*
X262300000Y69675000I500001J1D01*
G01*
X289300000Y69675000D02*
G75*
G03*
X289800000Y70175000I-1J500001D01*
G01*
X262300000Y73175000D02*
G75*
G03*
X261800000Y72675000I1J-500001D01*
G01*
X289800000Y72675000D02*
G75*
G03*
X289300000Y73175000I-500001J-1D01*
G01*
X285650000Y67375000D02*
G75*
G03*
X285150000Y66875000I1J-500001D01*
G01*
X265300000Y69675000D02*
G75*
G03*
X265800000Y70175000I-1J500001D01*
G01*
X261150000Y62375000D02*
G75*
G03*
X261650000Y61875000I500001J1D01*
G01*
X261650000Y67375000D02*
G75*
G03*
X261150000Y66875000I1J-500001D01*
G01*
X286300000Y73175000D02*
G75*
G03*
X285800000Y72675000I1J-500001D01*
G01*
%TD*%
M02*
