M48
INCH,TZ
T1C0.0512
T2C0.0748
T3C0.1339
T4C0.1988
%
G90
G05
T1
X6252Y38622
X7187Y8622
X8142Y31122
X9077Y23622
X10967Y16122
X13752Y38622
X16537Y8622
X17492Y31122
X19362Y23622
X21252Y38622
X23122Y16122
X24992Y31122
X25888Y8622
X26862Y23622
X28752Y38622
X30622Y16122
X32492Y31122
X34362Y23622
X36252Y38622
X38122Y16122
X39992Y31122
X41862Y23622
X43752Y38622
X45622Y16122
X47492Y31122
X49362Y23622
X51252Y38622
X53122Y16122
X54992Y31122
X56862Y23622
X58752Y38622
X60622Y16122
X62492Y31122
X64362Y23622
X66252Y38622
X68122Y16122
X69992Y31122
X71862Y23622
X73752Y38622
X75622Y16122
X77492Y31122
X79362Y23622
X81252Y38622
X83122Y16122
X83161Y8622
X84992Y31122
X86862Y23622
X88752Y38622
X90642Y16122
X92492Y31122
X94362Y23622
X94402Y8622
X96252Y38622
X99992Y31122
X100927Y16122
X103772Y8622
X106537Y23622
X109362Y31122
X111272Y16122
X111272Y8622
X118732Y38622
X118732Y31122
X118752Y23622
X118772Y16122
X118772Y8622
T2
X6142Y40276
X7077Y10276
X8031Y32776
X8967Y25276
X10472Y40276
X10856Y17776
X11407Y10276
X12362Y32776
X13297Y25276
X13642Y40276
X15187Y17776
X16427Y10276
X17382Y32776
X17972Y40276
X19252Y25276
X20758Y10276
X21142Y40276
X21713Y32776
X23012Y17776
X23583Y25276
X24882Y32776
X25472Y40276
X25778Y10276
X26752Y25276
X27343Y17776
X28642Y40276
X29213Y32776
X30108Y10276
X30512Y17776
X31083Y25276
X32382Y32776
X32972Y40276
X34252Y25276
X34843Y17776
X36142Y40276
X36713Y32776
X38012Y17776
X38583Y25276
X39882Y32776
X40472Y40276
X41752Y25276
X42343Y17776
X43642Y40276
X44213Y32776
X45512Y17776
X46083Y25276
X47382Y32776
X47972Y40276
X49252Y25276
X49843Y17776
X51142Y40276
X51713Y32776
X53012Y17776
X53583Y25276
X53701Y10276
X54882Y32776
X55472Y40276
X56752Y25276
X57343Y17776
X58031Y10276
X58642Y40276
X59213Y32776
X60512Y17776
X61083Y25276
X62382Y32776
X62972Y40276
X64252Y25276
X64843Y17776
X66142Y40276
X66713Y32776
X68012Y17776
X68583Y25276
X69882Y32776
X70472Y40276
X71752Y25276
X72343Y17776
X73642Y40276
X74213Y32776
X75512Y17776
X76083Y25276
X77382Y32776
X77972Y40276
X79252Y25276
X79843Y17776
X81142Y40276
X81713Y32776
X83012Y17776
X83051Y10276
X83583Y25276
X84882Y32776
X85472Y40276
X86752Y25276
X87343Y17776
X87382Y10276
X88642Y40276
X89213Y32776
X90531Y17776
X91083Y25276
X92382Y32776
X92972Y40276
X94252Y25276
X94291Y10276
X94862Y17776
X96142Y40276
X96713Y32776
X98583Y25276
X98622Y10276
X99882Y32776
X100472Y40276
X100817Y17776
X103661Y10276
X104213Y32776
X105148Y17776
X106427Y25276
X107382Y40276
X107992Y10276
X109252Y32776
X110758Y25276
X111161Y17776
X111161Y10276
X111713Y40276
X113583Y32776
X115492Y17776
X115492Y10276
X118622Y40276
X118622Y32776
X118642Y25276
X118661Y17776
X118661Y10276
X122953Y40276
X122953Y32776
X122972Y25276
X122992Y17776
X122992Y10276
T3
X8307Y40276
X9242Y10276
X10197Y32776
X11132Y25276
X13022Y17776
X15807Y40276
X18593Y10276
X19547Y32776
X21417Y25276
X23307Y40276
X25177Y17776
X27047Y32776
X27943Y10276
X28917Y25276
X30807Y40276
X32677Y17776
X34547Y32776
X36417Y25276
X38307Y40276
X40177Y17776
X42047Y32776
X43917Y25276
X45807Y40276
X47677Y17776
X49547Y32776
X51417Y25276
X53307Y40276
X55177Y17776
X57047Y32776
X58917Y25276
X60807Y40276
X62677Y17776
X64547Y32776
X66417Y25276
X68307Y40276
X70177Y17776
X72047Y32776
X73917Y25276
X75807Y40276
X77677Y17776
X79547Y32776
X81417Y25276
X83307Y40276
X85177Y17776
X85217Y10276
X87047Y32776
X88917Y25276
X90807Y40276
X92697Y17776
X94547Y32776
X96417Y25276
X96457Y10276
X98307Y40276
X102047Y32776
X102982Y17776
X105827Y10276
X108593Y25276
X111417Y32776
X113327Y17776
X113327Y10276
X120787Y40276
X120787Y32776
X120807Y25276
X120827Y17776
X120827Y10276
T4
X55866Y10276
X109547Y40276
T0
M30
