%TF.GenerationSoftware,KiCad,Pcbnew,(6.0.1-0)*%
%TF.CreationDate,2022-09-18T11:43:05-04:00*%
%TF.ProjectId,keeb,6b656562-2e6b-4696-9361-645f70636258,rev?*%
%TF.SameCoordinates,Original*%
%TF.FileFunction,Legend,Top*%
%TF.FilePolarity,Positive*%
%FSLAX46Y46*%
G04 Gerber Fmt 4.6, Leading zero omitted, Abs format (unit mm)*
G04 Created by KiCad (PCBNEW (6.0.1-0)) date 2022-09-18 11:43:05*
%MOMM*%
%LPD*%
G01*
G04 APERTURE LIST*
%ADD10C,0.150000*%
%ADD11C,0.120000*%
G04 APERTURE END LIST*
D10*
%TO.C,J1*%
X143666666Y129447619D02*
X143666666Y128733333D01*
X143619047Y128590476D01*
X143523809Y128495238D01*
X143380952Y128447619D01*
X143285714Y128447619D01*
X144666666Y128447619D02*
X144095238Y128447619D01*
X144380952Y128447619D02*
X144380952Y129447619D01*
X144285714Y129304761D01*
X144190476Y129209523D01*
X144095238Y129161904D01*
%TO.C,U1*%
X163074026Y132448477D02*
X163646446Y131876057D01*
X163747461Y131842385D01*
X163814805Y131842385D01*
X163915820Y131876057D01*
X164050507Y132010744D01*
X164084179Y132111759D01*
X164084179Y132179103D01*
X164050507Y132280118D01*
X163478087Y132852538D01*
X164892301Y132852538D02*
X164488240Y132448477D01*
X164690270Y132650507D02*
X163983164Y133357614D01*
X164016835Y133189255D01*
X164016835Y133054568D01*
X163983164Y132953553D01*
%TO.C,SW5*%
X22141666Y34695238D02*
X22284523Y34647619D01*
X22522619Y34647619D01*
X22617857Y34695238D01*
X22665476Y34742857D01*
X22713095Y34838095D01*
X22713095Y34933333D01*
X22665476Y35028571D01*
X22617857Y35076190D01*
X22522619Y35123809D01*
X22332142Y35171428D01*
X22236904Y35219047D01*
X22189285Y35266666D01*
X22141666Y35361904D01*
X22141666Y35457142D01*
X22189285Y35552380D01*
X22236904Y35600000D01*
X22332142Y35647619D01*
X22570238Y35647619D01*
X22713095Y35600000D01*
X23046428Y35647619D02*
X23284523Y34647619D01*
X23475000Y35361904D01*
X23665476Y34647619D01*
X23903571Y35647619D01*
X24760714Y35647619D02*
X24284523Y35647619D01*
X24236904Y35171428D01*
X24284523Y35219047D01*
X24379761Y35266666D01*
X24617857Y35266666D01*
X24713095Y35219047D01*
X24760714Y35171428D01*
X24808333Y35076190D01*
X24808333Y34838095D01*
X24760714Y34742857D01*
X24713095Y34695238D01*
X24617857Y34647619D01*
X24379761Y34647619D01*
X24284523Y34695238D01*
X24236904Y34742857D01*
%TO.C,SW10*%
X45415476Y34695238D02*
X45558333Y34647619D01*
X45796428Y34647619D01*
X45891666Y34695238D01*
X45939285Y34742857D01*
X45986904Y34838095D01*
X45986904Y34933333D01*
X45939285Y35028571D01*
X45891666Y35076190D01*
X45796428Y35123809D01*
X45605952Y35171428D01*
X45510714Y35219047D01*
X45463095Y35266666D01*
X45415476Y35361904D01*
X45415476Y35457142D01*
X45463095Y35552380D01*
X45510714Y35600000D01*
X45605952Y35647619D01*
X45844047Y35647619D01*
X45986904Y35600000D01*
X46320238Y35647619D02*
X46558333Y34647619D01*
X46748809Y35361904D01*
X46939285Y34647619D01*
X47177380Y35647619D01*
X48082142Y34647619D02*
X47510714Y34647619D01*
X47796428Y34647619D02*
X47796428Y35647619D01*
X47701190Y35504761D01*
X47605952Y35409523D01*
X47510714Y35361904D01*
X48701190Y35647619D02*
X48796428Y35647619D01*
X48891666Y35600000D01*
X48939285Y35552380D01*
X48986904Y35457142D01*
X49034523Y35266666D01*
X49034523Y35028571D01*
X48986904Y34838095D01*
X48939285Y34742857D01*
X48891666Y34695238D01*
X48796428Y34647619D01*
X48701190Y34647619D01*
X48605952Y34695238D01*
X48558333Y34742857D01*
X48510714Y34838095D01*
X48463095Y35028571D01*
X48463095Y35266666D01*
X48510714Y35457142D01*
X48558333Y35552380D01*
X48605952Y35600000D01*
X48701190Y35647619D01*
%TO.C,SW15*%
X69165476Y34695238D02*
X69308333Y34647619D01*
X69546428Y34647619D01*
X69641666Y34695238D01*
X69689285Y34742857D01*
X69736904Y34838095D01*
X69736904Y34933333D01*
X69689285Y35028571D01*
X69641666Y35076190D01*
X69546428Y35123809D01*
X69355952Y35171428D01*
X69260714Y35219047D01*
X69213095Y35266666D01*
X69165476Y35361904D01*
X69165476Y35457142D01*
X69213095Y35552380D01*
X69260714Y35600000D01*
X69355952Y35647619D01*
X69594047Y35647619D01*
X69736904Y35600000D01*
X70070238Y35647619D02*
X70308333Y34647619D01*
X70498809Y35361904D01*
X70689285Y34647619D01*
X70927380Y35647619D01*
X71832142Y34647619D02*
X71260714Y34647619D01*
X71546428Y34647619D02*
X71546428Y35647619D01*
X71451190Y35504761D01*
X71355952Y35409523D01*
X71260714Y35361904D01*
X72736904Y35647619D02*
X72260714Y35647619D01*
X72213095Y35171428D01*
X72260714Y35219047D01*
X72355952Y35266666D01*
X72594047Y35266666D01*
X72689285Y35219047D01*
X72736904Y35171428D01*
X72784523Y35076190D01*
X72784523Y34838095D01*
X72736904Y34742857D01*
X72689285Y34695238D01*
X72594047Y34647619D01*
X72355952Y34647619D01*
X72260714Y34695238D01*
X72213095Y34742857D01*
%TO.C,SW20*%
X276440476Y110895238D02*
X276583333Y110847619D01*
X276821428Y110847619D01*
X276916666Y110895238D01*
X276964285Y110942857D01*
X277011904Y111038095D01*
X277011904Y111133333D01*
X276964285Y111228571D01*
X276916666Y111276190D01*
X276821428Y111323809D01*
X276630952Y111371428D01*
X276535714Y111419047D01*
X276488095Y111466666D01*
X276440476Y111561904D01*
X276440476Y111657142D01*
X276488095Y111752380D01*
X276535714Y111800000D01*
X276630952Y111847619D01*
X276869047Y111847619D01*
X277011904Y111800000D01*
X277345238Y111847619D02*
X277583333Y110847619D01*
X277773809Y111561904D01*
X277964285Y110847619D01*
X278202380Y111847619D01*
X278535714Y111752380D02*
X278583333Y111800000D01*
X278678571Y111847619D01*
X278916666Y111847619D01*
X279011904Y111800000D01*
X279059523Y111752380D01*
X279107142Y111657142D01*
X279107142Y111561904D01*
X279059523Y111419047D01*
X278488095Y110847619D01*
X279107142Y110847619D01*
X279726190Y111847619D02*
X279821428Y111847619D01*
X279916666Y111800000D01*
X279964285Y111752380D01*
X280011904Y111657142D01*
X280059523Y111466666D01*
X280059523Y111228571D01*
X280011904Y111038095D01*
X279964285Y110942857D01*
X279916666Y110895238D01*
X279821428Y110847619D01*
X279726190Y110847619D01*
X279630952Y110895238D01*
X279583333Y110942857D01*
X279535714Y111038095D01*
X279488095Y111228571D01*
X279488095Y111466666D01*
X279535714Y111657142D01*
X279583333Y111752380D01*
X279630952Y111800000D01*
X279726190Y111847619D01*
%TO.C,SW25*%
X281190476Y91845238D02*
X281333333Y91797619D01*
X281571428Y91797619D01*
X281666666Y91845238D01*
X281714285Y91892857D01*
X281761904Y91988095D01*
X281761904Y92083333D01*
X281714285Y92178571D01*
X281666666Y92226190D01*
X281571428Y92273809D01*
X281380952Y92321428D01*
X281285714Y92369047D01*
X281238095Y92416666D01*
X281190476Y92511904D01*
X281190476Y92607142D01*
X281238095Y92702380D01*
X281285714Y92750000D01*
X281380952Y92797619D01*
X281619047Y92797619D01*
X281761904Y92750000D01*
X282095238Y92797619D02*
X282333333Y91797619D01*
X282523809Y92511904D01*
X282714285Y91797619D01*
X282952380Y92797619D01*
X283285714Y92702380D02*
X283333333Y92750000D01*
X283428571Y92797619D01*
X283666666Y92797619D01*
X283761904Y92750000D01*
X283809523Y92702380D01*
X283857142Y92607142D01*
X283857142Y92511904D01*
X283809523Y92369047D01*
X283238095Y91797619D01*
X283857142Y91797619D01*
X284761904Y92797619D02*
X284285714Y92797619D01*
X284238095Y92321428D01*
X284285714Y92369047D01*
X284380952Y92416666D01*
X284619047Y92416666D01*
X284714285Y92369047D01*
X284761904Y92321428D01*
X284809523Y92226190D01*
X284809523Y91988095D01*
X284761904Y91892857D01*
X284714285Y91845238D01*
X284619047Y91797619D01*
X284380952Y91797619D01*
X284285714Y91845238D01*
X284238095Y91892857D01*
%TO.C,SW30*%
X274015476Y72795238D02*
X274158333Y72747619D01*
X274396428Y72747619D01*
X274491666Y72795238D01*
X274539285Y72842857D01*
X274586904Y72938095D01*
X274586904Y73033333D01*
X274539285Y73128571D01*
X274491666Y73176190D01*
X274396428Y73223809D01*
X274205952Y73271428D01*
X274110714Y73319047D01*
X274063095Y73366666D01*
X274015476Y73461904D01*
X274015476Y73557142D01*
X274063095Y73652380D01*
X274110714Y73700000D01*
X274205952Y73747619D01*
X274444047Y73747619D01*
X274586904Y73700000D01*
X274920238Y73747619D02*
X275158333Y72747619D01*
X275348809Y73461904D01*
X275539285Y72747619D01*
X275777380Y73747619D01*
X276063095Y73747619D02*
X276682142Y73747619D01*
X276348809Y73366666D01*
X276491666Y73366666D01*
X276586904Y73319047D01*
X276634523Y73271428D01*
X276682142Y73176190D01*
X276682142Y72938095D01*
X276634523Y72842857D01*
X276586904Y72795238D01*
X276491666Y72747619D01*
X276205952Y72747619D01*
X276110714Y72795238D01*
X276063095Y72842857D01*
X277301190Y73747619D02*
X277396428Y73747619D01*
X277491666Y73700000D01*
X277539285Y73652380D01*
X277586904Y73557142D01*
X277634523Y73366666D01*
X277634523Y73128571D01*
X277586904Y72938095D01*
X277539285Y72842857D01*
X277491666Y72795238D01*
X277396428Y72747619D01*
X277301190Y72747619D01*
X277205952Y72795238D01*
X277158333Y72842857D01*
X277110714Y72938095D01*
X277063095Y73128571D01*
X277063095Y73366666D01*
X277110714Y73557142D01*
X277158333Y73652380D01*
X277205952Y73700000D01*
X277301190Y73747619D01*
%TO.C,SW35*%
X140090476Y34695238D02*
X140233333Y34647619D01*
X140471428Y34647619D01*
X140566666Y34695238D01*
X140614285Y34742857D01*
X140661904Y34838095D01*
X140661904Y34933333D01*
X140614285Y35028571D01*
X140566666Y35076190D01*
X140471428Y35123809D01*
X140280952Y35171428D01*
X140185714Y35219047D01*
X140138095Y35266666D01*
X140090476Y35361904D01*
X140090476Y35457142D01*
X140138095Y35552380D01*
X140185714Y35600000D01*
X140280952Y35647619D01*
X140519047Y35647619D01*
X140661904Y35600000D01*
X140995238Y35647619D02*
X141233333Y34647619D01*
X141423809Y35361904D01*
X141614285Y34647619D01*
X141852380Y35647619D01*
X142138095Y35647619D02*
X142757142Y35647619D01*
X142423809Y35266666D01*
X142566666Y35266666D01*
X142661904Y35219047D01*
X142709523Y35171428D01*
X142757142Y35076190D01*
X142757142Y34838095D01*
X142709523Y34742857D01*
X142661904Y34695238D01*
X142566666Y34647619D01*
X142280952Y34647619D01*
X142185714Y34695238D01*
X142138095Y34742857D01*
X143661904Y35647619D02*
X143185714Y35647619D01*
X143138095Y35171428D01*
X143185714Y35219047D01*
X143280952Y35266666D01*
X143519047Y35266666D01*
X143614285Y35219047D01*
X143661904Y35171428D01*
X143709523Y35076190D01*
X143709523Y34838095D01*
X143661904Y34742857D01*
X143614285Y34695238D01*
X143519047Y34647619D01*
X143280952Y34647619D01*
X143185714Y34695238D01*
X143138095Y34742857D01*
%TO.C,SW55*%
X214640476Y34695238D02*
X214783333Y34647619D01*
X215021428Y34647619D01*
X215116666Y34695238D01*
X215164285Y34742857D01*
X215211904Y34838095D01*
X215211904Y34933333D01*
X215164285Y35028571D01*
X215116666Y35076190D01*
X215021428Y35123809D01*
X214830952Y35171428D01*
X214735714Y35219047D01*
X214688095Y35266666D01*
X214640476Y35361904D01*
X214640476Y35457142D01*
X214688095Y35552380D01*
X214735714Y35600000D01*
X214830952Y35647619D01*
X215069047Y35647619D01*
X215211904Y35600000D01*
X215545238Y35647619D02*
X215783333Y34647619D01*
X215973809Y35361904D01*
X216164285Y34647619D01*
X216402380Y35647619D01*
X217259523Y35647619D02*
X216783333Y35647619D01*
X216735714Y35171428D01*
X216783333Y35219047D01*
X216878571Y35266666D01*
X217116666Y35266666D01*
X217211904Y35219047D01*
X217259523Y35171428D01*
X217307142Y35076190D01*
X217307142Y34838095D01*
X217259523Y34742857D01*
X217211904Y34695238D01*
X217116666Y34647619D01*
X216878571Y34647619D01*
X216783333Y34695238D01*
X216735714Y34742857D01*
X218211904Y35647619D02*
X217735714Y35647619D01*
X217688095Y35171428D01*
X217735714Y35219047D01*
X217830952Y35266666D01*
X218069047Y35266666D01*
X218164285Y35219047D01*
X218211904Y35171428D01*
X218259523Y35076190D01*
X218259523Y34838095D01*
X218211904Y34742857D01*
X218164285Y34695238D01*
X218069047Y34647619D01*
X217830952Y34647619D01*
X217735714Y34695238D01*
X217688095Y34742857D01*
%TO.C,SW60*%
X243190476Y34695238D02*
X243333333Y34647619D01*
X243571428Y34647619D01*
X243666666Y34695238D01*
X243714285Y34742857D01*
X243761904Y34838095D01*
X243761904Y34933333D01*
X243714285Y35028571D01*
X243666666Y35076190D01*
X243571428Y35123809D01*
X243380952Y35171428D01*
X243285714Y35219047D01*
X243238095Y35266666D01*
X243190476Y35361904D01*
X243190476Y35457142D01*
X243238095Y35552380D01*
X243285714Y35600000D01*
X243380952Y35647619D01*
X243619047Y35647619D01*
X243761904Y35600000D01*
X244095238Y35647619D02*
X244333333Y34647619D01*
X244523809Y35361904D01*
X244714285Y34647619D01*
X244952380Y35647619D01*
X245761904Y35647619D02*
X245571428Y35647619D01*
X245476190Y35600000D01*
X245428571Y35552380D01*
X245333333Y35409523D01*
X245285714Y35219047D01*
X245285714Y34838095D01*
X245333333Y34742857D01*
X245380952Y34695238D01*
X245476190Y34647619D01*
X245666666Y34647619D01*
X245761904Y34695238D01*
X245809523Y34742857D01*
X245857142Y34838095D01*
X245857142Y35076190D01*
X245809523Y35171428D01*
X245761904Y35219047D01*
X245666666Y35266666D01*
X245476190Y35266666D01*
X245380952Y35219047D01*
X245333333Y35171428D01*
X245285714Y35076190D01*
X246476190Y35647619D02*
X246571428Y35647619D01*
X246666666Y35600000D01*
X246714285Y35552380D01*
X246761904Y35457142D01*
X246809523Y35266666D01*
X246809523Y35028571D01*
X246761904Y34838095D01*
X246714285Y34742857D01*
X246666666Y34695238D01*
X246571428Y34647619D01*
X246476190Y34647619D01*
X246380952Y34695238D01*
X246333333Y34742857D01*
X246285714Y34838095D01*
X246238095Y35028571D01*
X246238095Y35266666D01*
X246285714Y35457142D01*
X246333333Y35552380D01*
X246380952Y35600000D01*
X246476190Y35647619D01*
%TO.C,SW64*%
X259765476Y53745238D02*
X259908333Y53697619D01*
X260146428Y53697619D01*
X260241666Y53745238D01*
X260289285Y53792857D01*
X260336904Y53888095D01*
X260336904Y53983333D01*
X260289285Y54078571D01*
X260241666Y54126190D01*
X260146428Y54173809D01*
X259955952Y54221428D01*
X259860714Y54269047D01*
X259813095Y54316666D01*
X259765476Y54411904D01*
X259765476Y54507142D01*
X259813095Y54602380D01*
X259860714Y54650000D01*
X259955952Y54697619D01*
X260194047Y54697619D01*
X260336904Y54650000D01*
X260670238Y54697619D02*
X260908333Y53697619D01*
X261098809Y54411904D01*
X261289285Y53697619D01*
X261527380Y54697619D01*
X262336904Y54697619D02*
X262146428Y54697619D01*
X262051190Y54650000D01*
X262003571Y54602380D01*
X261908333Y54459523D01*
X261860714Y54269047D01*
X261860714Y53888095D01*
X261908333Y53792857D01*
X261955952Y53745238D01*
X262051190Y53697619D01*
X262241666Y53697619D01*
X262336904Y53745238D01*
X262384523Y53792857D01*
X262432142Y53888095D01*
X262432142Y54126190D01*
X262384523Y54221428D01*
X262336904Y54269047D01*
X262241666Y54316666D01*
X262051190Y54316666D01*
X261955952Y54269047D01*
X261908333Y54221428D01*
X261860714Y54126190D01*
X263289285Y54364285D02*
X263289285Y53697619D01*
X263051190Y54745238D02*
X262813095Y54030952D01*
X263432142Y54030952D01*
%TO.C,SW1*%
X19766666Y110895238D02*
X19909523Y110847619D01*
X20147619Y110847619D01*
X20242857Y110895238D01*
X20290476Y110942857D01*
X20338095Y111038095D01*
X20338095Y111133333D01*
X20290476Y111228571D01*
X20242857Y111276190D01*
X20147619Y111323809D01*
X19957142Y111371428D01*
X19861904Y111419047D01*
X19814285Y111466666D01*
X19766666Y111561904D01*
X19766666Y111657142D01*
X19814285Y111752380D01*
X19861904Y111800000D01*
X19957142Y111847619D01*
X20195238Y111847619D01*
X20338095Y111800000D01*
X20671428Y111847619D02*
X20909523Y110847619D01*
X21100000Y111561904D01*
X21290476Y110847619D01*
X21528571Y111847619D01*
X22433333Y110847619D02*
X21861904Y110847619D01*
X22147619Y110847619D02*
X22147619Y111847619D01*
X22052380Y111704761D01*
X21957142Y111609523D01*
X21861904Y111561904D01*
%TO.C,SW6*%
X38816666Y110895238D02*
X38959523Y110847619D01*
X39197619Y110847619D01*
X39292857Y110895238D01*
X39340476Y110942857D01*
X39388095Y111038095D01*
X39388095Y111133333D01*
X39340476Y111228571D01*
X39292857Y111276190D01*
X39197619Y111323809D01*
X39007142Y111371428D01*
X38911904Y111419047D01*
X38864285Y111466666D01*
X38816666Y111561904D01*
X38816666Y111657142D01*
X38864285Y111752380D01*
X38911904Y111800000D01*
X39007142Y111847619D01*
X39245238Y111847619D01*
X39388095Y111800000D01*
X39721428Y111847619D02*
X39959523Y110847619D01*
X40150000Y111561904D01*
X40340476Y110847619D01*
X40578571Y111847619D01*
X41388095Y111847619D02*
X41197619Y111847619D01*
X41102380Y111800000D01*
X41054761Y111752380D01*
X40959523Y111609523D01*
X40911904Y111419047D01*
X40911904Y111038095D01*
X40959523Y110942857D01*
X41007142Y110895238D01*
X41102380Y110847619D01*
X41292857Y110847619D01*
X41388095Y110895238D01*
X41435714Y110942857D01*
X41483333Y111038095D01*
X41483333Y111276190D01*
X41435714Y111371428D01*
X41388095Y111419047D01*
X41292857Y111466666D01*
X41102380Y111466666D01*
X41007142Y111419047D01*
X40959523Y111371428D01*
X40911904Y111276190D01*
%TO.C,SW8*%
X53066666Y72795238D02*
X53209523Y72747619D01*
X53447619Y72747619D01*
X53542857Y72795238D01*
X53590476Y72842857D01*
X53638095Y72938095D01*
X53638095Y73033333D01*
X53590476Y73128571D01*
X53542857Y73176190D01*
X53447619Y73223809D01*
X53257142Y73271428D01*
X53161904Y73319047D01*
X53114285Y73366666D01*
X53066666Y73461904D01*
X53066666Y73557142D01*
X53114285Y73652380D01*
X53161904Y73700000D01*
X53257142Y73747619D01*
X53495238Y73747619D01*
X53638095Y73700000D01*
X53971428Y73747619D02*
X54209523Y72747619D01*
X54400000Y73461904D01*
X54590476Y72747619D01*
X54828571Y73747619D01*
X55352380Y73319047D02*
X55257142Y73366666D01*
X55209523Y73414285D01*
X55161904Y73509523D01*
X55161904Y73557142D01*
X55209523Y73652380D01*
X55257142Y73700000D01*
X55352380Y73747619D01*
X55542857Y73747619D01*
X55638095Y73700000D01*
X55685714Y73652380D01*
X55733333Y73557142D01*
X55733333Y73509523D01*
X55685714Y73414285D01*
X55638095Y73366666D01*
X55542857Y73319047D01*
X55352380Y73319047D01*
X55257142Y73271428D01*
X55209523Y73223809D01*
X55161904Y73128571D01*
X55161904Y72938095D01*
X55209523Y72842857D01*
X55257142Y72795238D01*
X55352380Y72747619D01*
X55542857Y72747619D01*
X55638095Y72795238D01*
X55685714Y72842857D01*
X55733333Y72938095D01*
X55733333Y73128571D01*
X55685714Y73223809D01*
X55638095Y73271428D01*
X55542857Y73319047D01*
%TO.C,SW9*%
X62616666Y53745238D02*
X62759523Y53697619D01*
X62997619Y53697619D01*
X63092857Y53745238D01*
X63140476Y53792857D01*
X63188095Y53888095D01*
X63188095Y53983333D01*
X63140476Y54078571D01*
X63092857Y54126190D01*
X62997619Y54173809D01*
X62807142Y54221428D01*
X62711904Y54269047D01*
X62664285Y54316666D01*
X62616666Y54411904D01*
X62616666Y54507142D01*
X62664285Y54602380D01*
X62711904Y54650000D01*
X62807142Y54697619D01*
X63045238Y54697619D01*
X63188095Y54650000D01*
X63521428Y54697619D02*
X63759523Y53697619D01*
X63950000Y54411904D01*
X64140476Y53697619D01*
X64378571Y54697619D01*
X64807142Y53697619D02*
X64997619Y53697619D01*
X65092857Y53745238D01*
X65140476Y53792857D01*
X65235714Y53935714D01*
X65283333Y54126190D01*
X65283333Y54507142D01*
X65235714Y54602380D01*
X65188095Y54650000D01*
X65092857Y54697619D01*
X64902380Y54697619D01*
X64807142Y54650000D01*
X64759523Y54602380D01*
X64711904Y54507142D01*
X64711904Y54269047D01*
X64759523Y54173809D01*
X64807142Y54126190D01*
X64902380Y54078571D01*
X65092857Y54078571D01*
X65188095Y54126190D01*
X65235714Y54173809D01*
X65283333Y54269047D01*
%TO.C,SW11*%
X57390476Y110895238D02*
X57533333Y110847619D01*
X57771428Y110847619D01*
X57866666Y110895238D01*
X57914285Y110942857D01*
X57961904Y111038095D01*
X57961904Y111133333D01*
X57914285Y111228571D01*
X57866666Y111276190D01*
X57771428Y111323809D01*
X57580952Y111371428D01*
X57485714Y111419047D01*
X57438095Y111466666D01*
X57390476Y111561904D01*
X57390476Y111657142D01*
X57438095Y111752380D01*
X57485714Y111800000D01*
X57580952Y111847619D01*
X57819047Y111847619D01*
X57961904Y111800000D01*
X58295238Y111847619D02*
X58533333Y110847619D01*
X58723809Y111561904D01*
X58914285Y110847619D01*
X59152380Y111847619D01*
X60057142Y110847619D02*
X59485714Y110847619D01*
X59771428Y110847619D02*
X59771428Y111847619D01*
X59676190Y111704761D01*
X59580952Y111609523D01*
X59485714Y111561904D01*
X61009523Y110847619D02*
X60438095Y110847619D01*
X60723809Y110847619D02*
X60723809Y111847619D01*
X60628571Y111704761D01*
X60533333Y111609523D01*
X60438095Y111561904D01*
%TO.C,SW12*%
X66890476Y91845238D02*
X67033333Y91797619D01*
X67271428Y91797619D01*
X67366666Y91845238D01*
X67414285Y91892857D01*
X67461904Y91988095D01*
X67461904Y92083333D01*
X67414285Y92178571D01*
X67366666Y92226190D01*
X67271428Y92273809D01*
X67080952Y92321428D01*
X66985714Y92369047D01*
X66938095Y92416666D01*
X66890476Y92511904D01*
X66890476Y92607142D01*
X66938095Y92702380D01*
X66985714Y92750000D01*
X67080952Y92797619D01*
X67319047Y92797619D01*
X67461904Y92750000D01*
X67795238Y92797619D02*
X68033333Y91797619D01*
X68223809Y92511904D01*
X68414285Y91797619D01*
X68652380Y92797619D01*
X69557142Y91797619D02*
X68985714Y91797619D01*
X69271428Y91797619D02*
X69271428Y92797619D01*
X69176190Y92654761D01*
X69080952Y92559523D01*
X68985714Y92511904D01*
X69938095Y92702380D02*
X69985714Y92750000D01*
X70080952Y92797619D01*
X70319047Y92797619D01*
X70414285Y92750000D01*
X70461904Y92702380D01*
X70509523Y92607142D01*
X70509523Y92511904D01*
X70461904Y92369047D01*
X69890476Y91797619D01*
X70509523Y91797619D01*
%TO.C,SW13*%
X71640476Y72795238D02*
X71783333Y72747619D01*
X72021428Y72747619D01*
X72116666Y72795238D01*
X72164285Y72842857D01*
X72211904Y72938095D01*
X72211904Y73033333D01*
X72164285Y73128571D01*
X72116666Y73176190D01*
X72021428Y73223809D01*
X71830952Y73271428D01*
X71735714Y73319047D01*
X71688095Y73366666D01*
X71640476Y73461904D01*
X71640476Y73557142D01*
X71688095Y73652380D01*
X71735714Y73700000D01*
X71830952Y73747619D01*
X72069047Y73747619D01*
X72211904Y73700000D01*
X72545238Y73747619D02*
X72783333Y72747619D01*
X72973809Y73461904D01*
X73164285Y72747619D01*
X73402380Y73747619D01*
X74307142Y72747619D02*
X73735714Y72747619D01*
X74021428Y72747619D02*
X74021428Y73747619D01*
X73926190Y73604761D01*
X73830952Y73509523D01*
X73735714Y73461904D01*
X74640476Y73747619D02*
X75259523Y73747619D01*
X74926190Y73366666D01*
X75069047Y73366666D01*
X75164285Y73319047D01*
X75211904Y73271428D01*
X75259523Y73176190D01*
X75259523Y72938095D01*
X75211904Y72842857D01*
X75164285Y72795238D01*
X75069047Y72747619D01*
X74783333Y72747619D01*
X74688095Y72795238D01*
X74640476Y72842857D01*
%TO.C,SW14*%
X81190476Y53745238D02*
X81333333Y53697619D01*
X81571428Y53697619D01*
X81666666Y53745238D01*
X81714285Y53792857D01*
X81761904Y53888095D01*
X81761904Y53983333D01*
X81714285Y54078571D01*
X81666666Y54126190D01*
X81571428Y54173809D01*
X81380952Y54221428D01*
X81285714Y54269047D01*
X81238095Y54316666D01*
X81190476Y54411904D01*
X81190476Y54507142D01*
X81238095Y54602380D01*
X81285714Y54650000D01*
X81380952Y54697619D01*
X81619047Y54697619D01*
X81761904Y54650000D01*
X82095238Y54697619D02*
X82333333Y53697619D01*
X82523809Y54411904D01*
X82714285Y53697619D01*
X82952380Y54697619D01*
X83857142Y53697619D02*
X83285714Y53697619D01*
X83571428Y53697619D02*
X83571428Y54697619D01*
X83476190Y54554761D01*
X83380952Y54459523D01*
X83285714Y54411904D01*
X84714285Y54364285D02*
X84714285Y53697619D01*
X84476190Y54745238D02*
X84238095Y54030952D01*
X84857142Y54030952D01*
%TO.C,SW16*%
X76440476Y110895238D02*
X76583333Y110847619D01*
X76821428Y110847619D01*
X76916666Y110895238D01*
X76964285Y110942857D01*
X77011904Y111038095D01*
X77011904Y111133333D01*
X76964285Y111228571D01*
X76916666Y111276190D01*
X76821428Y111323809D01*
X76630952Y111371428D01*
X76535714Y111419047D01*
X76488095Y111466666D01*
X76440476Y111561904D01*
X76440476Y111657142D01*
X76488095Y111752380D01*
X76535714Y111800000D01*
X76630952Y111847619D01*
X76869047Y111847619D01*
X77011904Y111800000D01*
X77345238Y111847619D02*
X77583333Y110847619D01*
X77773809Y111561904D01*
X77964285Y110847619D01*
X78202380Y111847619D01*
X79107142Y110847619D02*
X78535714Y110847619D01*
X78821428Y110847619D02*
X78821428Y111847619D01*
X78726190Y111704761D01*
X78630952Y111609523D01*
X78535714Y111561904D01*
X79964285Y111847619D02*
X79773809Y111847619D01*
X79678571Y111800000D01*
X79630952Y111752380D01*
X79535714Y111609523D01*
X79488095Y111419047D01*
X79488095Y111038095D01*
X79535714Y110942857D01*
X79583333Y110895238D01*
X79678571Y110847619D01*
X79869047Y110847619D01*
X79964285Y110895238D01*
X80011904Y110942857D01*
X80059523Y111038095D01*
X80059523Y111276190D01*
X80011904Y111371428D01*
X79964285Y111419047D01*
X79869047Y111466666D01*
X79678571Y111466666D01*
X79583333Y111419047D01*
X79535714Y111371428D01*
X79488095Y111276190D01*
%TO.C,SW17*%
X85940476Y91845238D02*
X86083333Y91797619D01*
X86321428Y91797619D01*
X86416666Y91845238D01*
X86464285Y91892857D01*
X86511904Y91988095D01*
X86511904Y92083333D01*
X86464285Y92178571D01*
X86416666Y92226190D01*
X86321428Y92273809D01*
X86130952Y92321428D01*
X86035714Y92369047D01*
X85988095Y92416666D01*
X85940476Y92511904D01*
X85940476Y92607142D01*
X85988095Y92702380D01*
X86035714Y92750000D01*
X86130952Y92797619D01*
X86369047Y92797619D01*
X86511904Y92750000D01*
X86845238Y92797619D02*
X87083333Y91797619D01*
X87273809Y92511904D01*
X87464285Y91797619D01*
X87702380Y92797619D01*
X88607142Y91797619D02*
X88035714Y91797619D01*
X88321428Y91797619D02*
X88321428Y92797619D01*
X88226190Y92654761D01*
X88130952Y92559523D01*
X88035714Y92511904D01*
X88940476Y92797619D02*
X89607142Y92797619D01*
X89178571Y91797619D01*
%TO.C,SW18*%
X90690476Y72795238D02*
X90833333Y72747619D01*
X91071428Y72747619D01*
X91166666Y72795238D01*
X91214285Y72842857D01*
X91261904Y72938095D01*
X91261904Y73033333D01*
X91214285Y73128571D01*
X91166666Y73176190D01*
X91071428Y73223809D01*
X90880952Y73271428D01*
X90785714Y73319047D01*
X90738095Y73366666D01*
X90690476Y73461904D01*
X90690476Y73557142D01*
X90738095Y73652380D01*
X90785714Y73700000D01*
X90880952Y73747619D01*
X91119047Y73747619D01*
X91261904Y73700000D01*
X91595238Y73747619D02*
X91833333Y72747619D01*
X92023809Y73461904D01*
X92214285Y72747619D01*
X92452380Y73747619D01*
X93357142Y72747619D02*
X92785714Y72747619D01*
X93071428Y72747619D02*
X93071428Y73747619D01*
X92976190Y73604761D01*
X92880952Y73509523D01*
X92785714Y73461904D01*
X93928571Y73319047D02*
X93833333Y73366666D01*
X93785714Y73414285D01*
X93738095Y73509523D01*
X93738095Y73557142D01*
X93785714Y73652380D01*
X93833333Y73700000D01*
X93928571Y73747619D01*
X94119047Y73747619D01*
X94214285Y73700000D01*
X94261904Y73652380D01*
X94309523Y73557142D01*
X94309523Y73509523D01*
X94261904Y73414285D01*
X94214285Y73366666D01*
X94119047Y73319047D01*
X93928571Y73319047D01*
X93833333Y73271428D01*
X93785714Y73223809D01*
X93738095Y73128571D01*
X93738095Y72938095D01*
X93785714Y72842857D01*
X93833333Y72795238D01*
X93928571Y72747619D01*
X94119047Y72747619D01*
X94214285Y72795238D01*
X94261904Y72842857D01*
X94309523Y72938095D01*
X94309523Y73128571D01*
X94261904Y73223809D01*
X94214285Y73271428D01*
X94119047Y73319047D01*
%TO.C,SW19*%
X100240476Y53745238D02*
X100383333Y53697619D01*
X100621428Y53697619D01*
X100716666Y53745238D01*
X100764285Y53792857D01*
X100811904Y53888095D01*
X100811904Y53983333D01*
X100764285Y54078571D01*
X100716666Y54126190D01*
X100621428Y54173809D01*
X100430952Y54221428D01*
X100335714Y54269047D01*
X100288095Y54316666D01*
X100240476Y54411904D01*
X100240476Y54507142D01*
X100288095Y54602380D01*
X100335714Y54650000D01*
X100430952Y54697619D01*
X100669047Y54697619D01*
X100811904Y54650000D01*
X101145238Y54697619D02*
X101383333Y53697619D01*
X101573809Y54411904D01*
X101764285Y53697619D01*
X102002380Y54697619D01*
X102907142Y53697619D02*
X102335714Y53697619D01*
X102621428Y53697619D02*
X102621428Y54697619D01*
X102526190Y54554761D01*
X102430952Y54459523D01*
X102335714Y54411904D01*
X103383333Y53697619D02*
X103573809Y53697619D01*
X103669047Y53745238D01*
X103716666Y53792857D01*
X103811904Y53935714D01*
X103859523Y54126190D01*
X103859523Y54507142D01*
X103811904Y54602380D01*
X103764285Y54650000D01*
X103669047Y54697619D01*
X103478571Y54697619D01*
X103383333Y54650000D01*
X103335714Y54602380D01*
X103288095Y54507142D01*
X103288095Y54269047D01*
X103335714Y54173809D01*
X103383333Y54126190D01*
X103478571Y54078571D01*
X103669047Y54078571D01*
X103764285Y54126190D01*
X103811904Y54173809D01*
X103859523Y54269047D01*
%TO.C,SW21*%
X95490476Y110895238D02*
X95633333Y110847619D01*
X95871428Y110847619D01*
X95966666Y110895238D01*
X96014285Y110942857D01*
X96061904Y111038095D01*
X96061904Y111133333D01*
X96014285Y111228571D01*
X95966666Y111276190D01*
X95871428Y111323809D01*
X95680952Y111371428D01*
X95585714Y111419047D01*
X95538095Y111466666D01*
X95490476Y111561904D01*
X95490476Y111657142D01*
X95538095Y111752380D01*
X95585714Y111800000D01*
X95680952Y111847619D01*
X95919047Y111847619D01*
X96061904Y111800000D01*
X96395238Y111847619D02*
X96633333Y110847619D01*
X96823809Y111561904D01*
X97014285Y110847619D01*
X97252380Y111847619D01*
X97585714Y111752380D02*
X97633333Y111800000D01*
X97728571Y111847619D01*
X97966666Y111847619D01*
X98061904Y111800000D01*
X98109523Y111752380D01*
X98157142Y111657142D01*
X98157142Y111561904D01*
X98109523Y111419047D01*
X97538095Y110847619D01*
X98157142Y110847619D01*
X99109523Y110847619D02*
X98538095Y110847619D01*
X98823809Y110847619D02*
X98823809Y111847619D01*
X98728571Y111704761D01*
X98633333Y111609523D01*
X98538095Y111561904D01*
%TO.C,SW22*%
X104990476Y91845238D02*
X105133333Y91797619D01*
X105371428Y91797619D01*
X105466666Y91845238D01*
X105514285Y91892857D01*
X105561904Y91988095D01*
X105561904Y92083333D01*
X105514285Y92178571D01*
X105466666Y92226190D01*
X105371428Y92273809D01*
X105180952Y92321428D01*
X105085714Y92369047D01*
X105038095Y92416666D01*
X104990476Y92511904D01*
X104990476Y92607142D01*
X105038095Y92702380D01*
X105085714Y92750000D01*
X105180952Y92797619D01*
X105419047Y92797619D01*
X105561904Y92750000D01*
X105895238Y92797619D02*
X106133333Y91797619D01*
X106323809Y92511904D01*
X106514285Y91797619D01*
X106752380Y92797619D01*
X107085714Y92702380D02*
X107133333Y92750000D01*
X107228571Y92797619D01*
X107466666Y92797619D01*
X107561904Y92750000D01*
X107609523Y92702380D01*
X107657142Y92607142D01*
X107657142Y92511904D01*
X107609523Y92369047D01*
X107038095Y91797619D01*
X107657142Y91797619D01*
X108038095Y92702380D02*
X108085714Y92750000D01*
X108180952Y92797619D01*
X108419047Y92797619D01*
X108514285Y92750000D01*
X108561904Y92702380D01*
X108609523Y92607142D01*
X108609523Y92511904D01*
X108561904Y92369047D01*
X107990476Y91797619D01*
X108609523Y91797619D01*
%TO.C,SW23*%
X109740476Y72795238D02*
X109883333Y72747619D01*
X110121428Y72747619D01*
X110216666Y72795238D01*
X110264285Y72842857D01*
X110311904Y72938095D01*
X110311904Y73033333D01*
X110264285Y73128571D01*
X110216666Y73176190D01*
X110121428Y73223809D01*
X109930952Y73271428D01*
X109835714Y73319047D01*
X109788095Y73366666D01*
X109740476Y73461904D01*
X109740476Y73557142D01*
X109788095Y73652380D01*
X109835714Y73700000D01*
X109930952Y73747619D01*
X110169047Y73747619D01*
X110311904Y73700000D01*
X110645238Y73747619D02*
X110883333Y72747619D01*
X111073809Y73461904D01*
X111264285Y72747619D01*
X111502380Y73747619D01*
X111835714Y73652380D02*
X111883333Y73700000D01*
X111978571Y73747619D01*
X112216666Y73747619D01*
X112311904Y73700000D01*
X112359523Y73652380D01*
X112407142Y73557142D01*
X112407142Y73461904D01*
X112359523Y73319047D01*
X111788095Y72747619D01*
X112407142Y72747619D01*
X112740476Y73747619D02*
X113359523Y73747619D01*
X113026190Y73366666D01*
X113169047Y73366666D01*
X113264285Y73319047D01*
X113311904Y73271428D01*
X113359523Y73176190D01*
X113359523Y72938095D01*
X113311904Y72842857D01*
X113264285Y72795238D01*
X113169047Y72747619D01*
X112883333Y72747619D01*
X112788095Y72795238D01*
X112740476Y72842857D01*
%TO.C,SW24*%
X119290476Y53745238D02*
X119433333Y53697619D01*
X119671428Y53697619D01*
X119766666Y53745238D01*
X119814285Y53792857D01*
X119861904Y53888095D01*
X119861904Y53983333D01*
X119814285Y54078571D01*
X119766666Y54126190D01*
X119671428Y54173809D01*
X119480952Y54221428D01*
X119385714Y54269047D01*
X119338095Y54316666D01*
X119290476Y54411904D01*
X119290476Y54507142D01*
X119338095Y54602380D01*
X119385714Y54650000D01*
X119480952Y54697619D01*
X119719047Y54697619D01*
X119861904Y54650000D01*
X120195238Y54697619D02*
X120433333Y53697619D01*
X120623809Y54411904D01*
X120814285Y53697619D01*
X121052380Y54697619D01*
X121385714Y54602380D02*
X121433333Y54650000D01*
X121528571Y54697619D01*
X121766666Y54697619D01*
X121861904Y54650000D01*
X121909523Y54602380D01*
X121957142Y54507142D01*
X121957142Y54411904D01*
X121909523Y54269047D01*
X121338095Y53697619D01*
X121957142Y53697619D01*
X122814285Y54364285D02*
X122814285Y53697619D01*
X122576190Y54745238D02*
X122338095Y54030952D01*
X122957142Y54030952D01*
%TO.C,SW26*%
X114540476Y110895238D02*
X114683333Y110847619D01*
X114921428Y110847619D01*
X115016666Y110895238D01*
X115064285Y110942857D01*
X115111904Y111038095D01*
X115111904Y111133333D01*
X115064285Y111228571D01*
X115016666Y111276190D01*
X114921428Y111323809D01*
X114730952Y111371428D01*
X114635714Y111419047D01*
X114588095Y111466666D01*
X114540476Y111561904D01*
X114540476Y111657142D01*
X114588095Y111752380D01*
X114635714Y111800000D01*
X114730952Y111847619D01*
X114969047Y111847619D01*
X115111904Y111800000D01*
X115445238Y111847619D02*
X115683333Y110847619D01*
X115873809Y111561904D01*
X116064285Y110847619D01*
X116302380Y111847619D01*
X116635714Y111752380D02*
X116683333Y111800000D01*
X116778571Y111847619D01*
X117016666Y111847619D01*
X117111904Y111800000D01*
X117159523Y111752380D01*
X117207142Y111657142D01*
X117207142Y111561904D01*
X117159523Y111419047D01*
X116588095Y110847619D01*
X117207142Y110847619D01*
X118064285Y111847619D02*
X117873809Y111847619D01*
X117778571Y111800000D01*
X117730952Y111752380D01*
X117635714Y111609523D01*
X117588095Y111419047D01*
X117588095Y111038095D01*
X117635714Y110942857D01*
X117683333Y110895238D01*
X117778571Y110847619D01*
X117969047Y110847619D01*
X118064285Y110895238D01*
X118111904Y110942857D01*
X118159523Y111038095D01*
X118159523Y111276190D01*
X118111904Y111371428D01*
X118064285Y111419047D01*
X117969047Y111466666D01*
X117778571Y111466666D01*
X117683333Y111419047D01*
X117635714Y111371428D01*
X117588095Y111276190D01*
%TO.C,SW27*%
X124040476Y91845238D02*
X124183333Y91797619D01*
X124421428Y91797619D01*
X124516666Y91845238D01*
X124564285Y91892857D01*
X124611904Y91988095D01*
X124611904Y92083333D01*
X124564285Y92178571D01*
X124516666Y92226190D01*
X124421428Y92273809D01*
X124230952Y92321428D01*
X124135714Y92369047D01*
X124088095Y92416666D01*
X124040476Y92511904D01*
X124040476Y92607142D01*
X124088095Y92702380D01*
X124135714Y92750000D01*
X124230952Y92797619D01*
X124469047Y92797619D01*
X124611904Y92750000D01*
X124945238Y92797619D02*
X125183333Y91797619D01*
X125373809Y92511904D01*
X125564285Y91797619D01*
X125802380Y92797619D01*
X126135714Y92702380D02*
X126183333Y92750000D01*
X126278571Y92797619D01*
X126516666Y92797619D01*
X126611904Y92750000D01*
X126659523Y92702380D01*
X126707142Y92607142D01*
X126707142Y92511904D01*
X126659523Y92369047D01*
X126088095Y91797619D01*
X126707142Y91797619D01*
X127040476Y92797619D02*
X127707142Y92797619D01*
X127278571Y91797619D01*
%TO.C,SW28*%
X128790476Y72795238D02*
X128933333Y72747619D01*
X129171428Y72747619D01*
X129266666Y72795238D01*
X129314285Y72842857D01*
X129361904Y72938095D01*
X129361904Y73033333D01*
X129314285Y73128571D01*
X129266666Y73176190D01*
X129171428Y73223809D01*
X128980952Y73271428D01*
X128885714Y73319047D01*
X128838095Y73366666D01*
X128790476Y73461904D01*
X128790476Y73557142D01*
X128838095Y73652380D01*
X128885714Y73700000D01*
X128980952Y73747619D01*
X129219047Y73747619D01*
X129361904Y73700000D01*
X129695238Y73747619D02*
X129933333Y72747619D01*
X130123809Y73461904D01*
X130314285Y72747619D01*
X130552380Y73747619D01*
X130885714Y73652380D02*
X130933333Y73700000D01*
X131028571Y73747619D01*
X131266666Y73747619D01*
X131361904Y73700000D01*
X131409523Y73652380D01*
X131457142Y73557142D01*
X131457142Y73461904D01*
X131409523Y73319047D01*
X130838095Y72747619D01*
X131457142Y72747619D01*
X132028571Y73319047D02*
X131933333Y73366666D01*
X131885714Y73414285D01*
X131838095Y73509523D01*
X131838095Y73557142D01*
X131885714Y73652380D01*
X131933333Y73700000D01*
X132028571Y73747619D01*
X132219047Y73747619D01*
X132314285Y73700000D01*
X132361904Y73652380D01*
X132409523Y73557142D01*
X132409523Y73509523D01*
X132361904Y73414285D01*
X132314285Y73366666D01*
X132219047Y73319047D01*
X132028571Y73319047D01*
X131933333Y73271428D01*
X131885714Y73223809D01*
X131838095Y73128571D01*
X131838095Y72938095D01*
X131885714Y72842857D01*
X131933333Y72795238D01*
X132028571Y72747619D01*
X132219047Y72747619D01*
X132314285Y72795238D01*
X132361904Y72842857D01*
X132409523Y72938095D01*
X132409523Y73128571D01*
X132361904Y73223809D01*
X132314285Y73271428D01*
X132219047Y73319047D01*
%TO.C,SW29*%
X138340476Y53745238D02*
X138483333Y53697619D01*
X138721428Y53697619D01*
X138816666Y53745238D01*
X138864285Y53792857D01*
X138911904Y53888095D01*
X138911904Y53983333D01*
X138864285Y54078571D01*
X138816666Y54126190D01*
X138721428Y54173809D01*
X138530952Y54221428D01*
X138435714Y54269047D01*
X138388095Y54316666D01*
X138340476Y54411904D01*
X138340476Y54507142D01*
X138388095Y54602380D01*
X138435714Y54650000D01*
X138530952Y54697619D01*
X138769047Y54697619D01*
X138911904Y54650000D01*
X139245238Y54697619D02*
X139483333Y53697619D01*
X139673809Y54411904D01*
X139864285Y53697619D01*
X140102380Y54697619D01*
X140435714Y54602380D02*
X140483333Y54650000D01*
X140578571Y54697619D01*
X140816666Y54697619D01*
X140911904Y54650000D01*
X140959523Y54602380D01*
X141007142Y54507142D01*
X141007142Y54411904D01*
X140959523Y54269047D01*
X140388095Y53697619D01*
X141007142Y53697619D01*
X141483333Y53697619D02*
X141673809Y53697619D01*
X141769047Y53745238D01*
X141816666Y53792857D01*
X141911904Y53935714D01*
X141959523Y54126190D01*
X141959523Y54507142D01*
X141911904Y54602380D01*
X141864285Y54650000D01*
X141769047Y54697619D01*
X141578571Y54697619D01*
X141483333Y54650000D01*
X141435714Y54602380D01*
X141388095Y54507142D01*
X141388095Y54269047D01*
X141435714Y54173809D01*
X141483333Y54126190D01*
X141578571Y54078571D01*
X141769047Y54078571D01*
X141864285Y54126190D01*
X141911904Y54173809D01*
X141959523Y54269047D01*
%TO.C,SW31*%
X133590476Y110895238D02*
X133733333Y110847619D01*
X133971428Y110847619D01*
X134066666Y110895238D01*
X134114285Y110942857D01*
X134161904Y111038095D01*
X134161904Y111133333D01*
X134114285Y111228571D01*
X134066666Y111276190D01*
X133971428Y111323809D01*
X133780952Y111371428D01*
X133685714Y111419047D01*
X133638095Y111466666D01*
X133590476Y111561904D01*
X133590476Y111657142D01*
X133638095Y111752380D01*
X133685714Y111800000D01*
X133780952Y111847619D01*
X134019047Y111847619D01*
X134161904Y111800000D01*
X134495238Y111847619D02*
X134733333Y110847619D01*
X134923809Y111561904D01*
X135114285Y110847619D01*
X135352380Y111847619D01*
X135638095Y111847619D02*
X136257142Y111847619D01*
X135923809Y111466666D01*
X136066666Y111466666D01*
X136161904Y111419047D01*
X136209523Y111371428D01*
X136257142Y111276190D01*
X136257142Y111038095D01*
X136209523Y110942857D01*
X136161904Y110895238D01*
X136066666Y110847619D01*
X135780952Y110847619D01*
X135685714Y110895238D01*
X135638095Y110942857D01*
X137209523Y110847619D02*
X136638095Y110847619D01*
X136923809Y110847619D02*
X136923809Y111847619D01*
X136828571Y111704761D01*
X136733333Y111609523D01*
X136638095Y111561904D01*
%TO.C,SW32*%
X143090476Y91845238D02*
X143233333Y91797619D01*
X143471428Y91797619D01*
X143566666Y91845238D01*
X143614285Y91892857D01*
X143661904Y91988095D01*
X143661904Y92083333D01*
X143614285Y92178571D01*
X143566666Y92226190D01*
X143471428Y92273809D01*
X143280952Y92321428D01*
X143185714Y92369047D01*
X143138095Y92416666D01*
X143090476Y92511904D01*
X143090476Y92607142D01*
X143138095Y92702380D01*
X143185714Y92750000D01*
X143280952Y92797619D01*
X143519047Y92797619D01*
X143661904Y92750000D01*
X143995238Y92797619D02*
X144233333Y91797619D01*
X144423809Y92511904D01*
X144614285Y91797619D01*
X144852380Y92797619D01*
X145138095Y92797619D02*
X145757142Y92797619D01*
X145423809Y92416666D01*
X145566666Y92416666D01*
X145661904Y92369047D01*
X145709523Y92321428D01*
X145757142Y92226190D01*
X145757142Y91988095D01*
X145709523Y91892857D01*
X145661904Y91845238D01*
X145566666Y91797619D01*
X145280952Y91797619D01*
X145185714Y91845238D01*
X145138095Y91892857D01*
X146138095Y92702380D02*
X146185714Y92750000D01*
X146280952Y92797619D01*
X146519047Y92797619D01*
X146614285Y92750000D01*
X146661904Y92702380D01*
X146709523Y92607142D01*
X146709523Y92511904D01*
X146661904Y92369047D01*
X146090476Y91797619D01*
X146709523Y91797619D01*
%TO.C,SW33*%
X147840476Y72795238D02*
X147983333Y72747619D01*
X148221428Y72747619D01*
X148316666Y72795238D01*
X148364285Y72842857D01*
X148411904Y72938095D01*
X148411904Y73033333D01*
X148364285Y73128571D01*
X148316666Y73176190D01*
X148221428Y73223809D01*
X148030952Y73271428D01*
X147935714Y73319047D01*
X147888095Y73366666D01*
X147840476Y73461904D01*
X147840476Y73557142D01*
X147888095Y73652380D01*
X147935714Y73700000D01*
X148030952Y73747619D01*
X148269047Y73747619D01*
X148411904Y73700000D01*
X148745238Y73747619D02*
X148983333Y72747619D01*
X149173809Y73461904D01*
X149364285Y72747619D01*
X149602380Y73747619D01*
X149888095Y73747619D02*
X150507142Y73747619D01*
X150173809Y73366666D01*
X150316666Y73366666D01*
X150411904Y73319047D01*
X150459523Y73271428D01*
X150507142Y73176190D01*
X150507142Y72938095D01*
X150459523Y72842857D01*
X150411904Y72795238D01*
X150316666Y72747619D01*
X150030952Y72747619D01*
X149935714Y72795238D01*
X149888095Y72842857D01*
X150840476Y73747619D02*
X151459523Y73747619D01*
X151126190Y73366666D01*
X151269047Y73366666D01*
X151364285Y73319047D01*
X151411904Y73271428D01*
X151459523Y73176190D01*
X151459523Y72938095D01*
X151411904Y72842857D01*
X151364285Y72795238D01*
X151269047Y72747619D01*
X150983333Y72747619D01*
X150888095Y72795238D01*
X150840476Y72842857D01*
%TO.C,SW34*%
X157390476Y53745238D02*
X157533333Y53697619D01*
X157771428Y53697619D01*
X157866666Y53745238D01*
X157914285Y53792857D01*
X157961904Y53888095D01*
X157961904Y53983333D01*
X157914285Y54078571D01*
X157866666Y54126190D01*
X157771428Y54173809D01*
X157580952Y54221428D01*
X157485714Y54269047D01*
X157438095Y54316666D01*
X157390476Y54411904D01*
X157390476Y54507142D01*
X157438095Y54602380D01*
X157485714Y54650000D01*
X157580952Y54697619D01*
X157819047Y54697619D01*
X157961904Y54650000D01*
X158295238Y54697619D02*
X158533333Y53697619D01*
X158723809Y54411904D01*
X158914285Y53697619D01*
X159152380Y54697619D01*
X159438095Y54697619D02*
X160057142Y54697619D01*
X159723809Y54316666D01*
X159866666Y54316666D01*
X159961904Y54269047D01*
X160009523Y54221428D01*
X160057142Y54126190D01*
X160057142Y53888095D01*
X160009523Y53792857D01*
X159961904Y53745238D01*
X159866666Y53697619D01*
X159580952Y53697619D01*
X159485714Y53745238D01*
X159438095Y53792857D01*
X160914285Y54364285D02*
X160914285Y53697619D01*
X160676190Y54745238D02*
X160438095Y54030952D01*
X161057142Y54030952D01*
%TO.C,SW36*%
X152640476Y110895238D02*
X152783333Y110847619D01*
X153021428Y110847619D01*
X153116666Y110895238D01*
X153164285Y110942857D01*
X153211904Y111038095D01*
X153211904Y111133333D01*
X153164285Y111228571D01*
X153116666Y111276190D01*
X153021428Y111323809D01*
X152830952Y111371428D01*
X152735714Y111419047D01*
X152688095Y111466666D01*
X152640476Y111561904D01*
X152640476Y111657142D01*
X152688095Y111752380D01*
X152735714Y111800000D01*
X152830952Y111847619D01*
X153069047Y111847619D01*
X153211904Y111800000D01*
X153545238Y111847619D02*
X153783333Y110847619D01*
X153973809Y111561904D01*
X154164285Y110847619D01*
X154402380Y111847619D01*
X154688095Y111847619D02*
X155307142Y111847619D01*
X154973809Y111466666D01*
X155116666Y111466666D01*
X155211904Y111419047D01*
X155259523Y111371428D01*
X155307142Y111276190D01*
X155307142Y111038095D01*
X155259523Y110942857D01*
X155211904Y110895238D01*
X155116666Y110847619D01*
X154830952Y110847619D01*
X154735714Y110895238D01*
X154688095Y110942857D01*
X156164285Y111847619D02*
X155973809Y111847619D01*
X155878571Y111800000D01*
X155830952Y111752380D01*
X155735714Y111609523D01*
X155688095Y111419047D01*
X155688095Y111038095D01*
X155735714Y110942857D01*
X155783333Y110895238D01*
X155878571Y110847619D01*
X156069047Y110847619D01*
X156164285Y110895238D01*
X156211904Y110942857D01*
X156259523Y111038095D01*
X156259523Y111276190D01*
X156211904Y111371428D01*
X156164285Y111419047D01*
X156069047Y111466666D01*
X155878571Y111466666D01*
X155783333Y111419047D01*
X155735714Y111371428D01*
X155688095Y111276190D01*
%TO.C,SW37*%
X162140476Y91845238D02*
X162283333Y91797619D01*
X162521428Y91797619D01*
X162616666Y91845238D01*
X162664285Y91892857D01*
X162711904Y91988095D01*
X162711904Y92083333D01*
X162664285Y92178571D01*
X162616666Y92226190D01*
X162521428Y92273809D01*
X162330952Y92321428D01*
X162235714Y92369047D01*
X162188095Y92416666D01*
X162140476Y92511904D01*
X162140476Y92607142D01*
X162188095Y92702380D01*
X162235714Y92750000D01*
X162330952Y92797619D01*
X162569047Y92797619D01*
X162711904Y92750000D01*
X163045238Y92797619D02*
X163283333Y91797619D01*
X163473809Y92511904D01*
X163664285Y91797619D01*
X163902380Y92797619D01*
X164188095Y92797619D02*
X164807142Y92797619D01*
X164473809Y92416666D01*
X164616666Y92416666D01*
X164711904Y92369047D01*
X164759523Y92321428D01*
X164807142Y92226190D01*
X164807142Y91988095D01*
X164759523Y91892857D01*
X164711904Y91845238D01*
X164616666Y91797619D01*
X164330952Y91797619D01*
X164235714Y91845238D01*
X164188095Y91892857D01*
X165140476Y92797619D02*
X165807142Y92797619D01*
X165378571Y91797619D01*
%TO.C,SW38*%
X166890476Y72795238D02*
X167033333Y72747619D01*
X167271428Y72747619D01*
X167366666Y72795238D01*
X167414285Y72842857D01*
X167461904Y72938095D01*
X167461904Y73033333D01*
X167414285Y73128571D01*
X167366666Y73176190D01*
X167271428Y73223809D01*
X167080952Y73271428D01*
X166985714Y73319047D01*
X166938095Y73366666D01*
X166890476Y73461904D01*
X166890476Y73557142D01*
X166938095Y73652380D01*
X166985714Y73700000D01*
X167080952Y73747619D01*
X167319047Y73747619D01*
X167461904Y73700000D01*
X167795238Y73747619D02*
X168033333Y72747619D01*
X168223809Y73461904D01*
X168414285Y72747619D01*
X168652380Y73747619D01*
X168938095Y73747619D02*
X169557142Y73747619D01*
X169223809Y73366666D01*
X169366666Y73366666D01*
X169461904Y73319047D01*
X169509523Y73271428D01*
X169557142Y73176190D01*
X169557142Y72938095D01*
X169509523Y72842857D01*
X169461904Y72795238D01*
X169366666Y72747619D01*
X169080952Y72747619D01*
X168985714Y72795238D01*
X168938095Y72842857D01*
X170128571Y73319047D02*
X170033333Y73366666D01*
X169985714Y73414285D01*
X169938095Y73509523D01*
X169938095Y73557142D01*
X169985714Y73652380D01*
X170033333Y73700000D01*
X170128571Y73747619D01*
X170319047Y73747619D01*
X170414285Y73700000D01*
X170461904Y73652380D01*
X170509523Y73557142D01*
X170509523Y73509523D01*
X170461904Y73414285D01*
X170414285Y73366666D01*
X170319047Y73319047D01*
X170128571Y73319047D01*
X170033333Y73271428D01*
X169985714Y73223809D01*
X169938095Y73128571D01*
X169938095Y72938095D01*
X169985714Y72842857D01*
X170033333Y72795238D01*
X170128571Y72747619D01*
X170319047Y72747619D01*
X170414285Y72795238D01*
X170461904Y72842857D01*
X170509523Y72938095D01*
X170509523Y73128571D01*
X170461904Y73223809D01*
X170414285Y73271428D01*
X170319047Y73319047D01*
%TO.C,SW39*%
X176440476Y53745238D02*
X176583333Y53697619D01*
X176821428Y53697619D01*
X176916666Y53745238D01*
X176964285Y53792857D01*
X177011904Y53888095D01*
X177011904Y53983333D01*
X176964285Y54078571D01*
X176916666Y54126190D01*
X176821428Y54173809D01*
X176630952Y54221428D01*
X176535714Y54269047D01*
X176488095Y54316666D01*
X176440476Y54411904D01*
X176440476Y54507142D01*
X176488095Y54602380D01*
X176535714Y54650000D01*
X176630952Y54697619D01*
X176869047Y54697619D01*
X177011904Y54650000D01*
X177345238Y54697619D02*
X177583333Y53697619D01*
X177773809Y54411904D01*
X177964285Y53697619D01*
X178202380Y54697619D01*
X178488095Y54697619D02*
X179107142Y54697619D01*
X178773809Y54316666D01*
X178916666Y54316666D01*
X179011904Y54269047D01*
X179059523Y54221428D01*
X179107142Y54126190D01*
X179107142Y53888095D01*
X179059523Y53792857D01*
X179011904Y53745238D01*
X178916666Y53697619D01*
X178630952Y53697619D01*
X178535714Y53745238D01*
X178488095Y53792857D01*
X179583333Y53697619D02*
X179773809Y53697619D01*
X179869047Y53745238D01*
X179916666Y53792857D01*
X180011904Y53935714D01*
X180059523Y54126190D01*
X180059523Y54507142D01*
X180011904Y54602380D01*
X179964285Y54650000D01*
X179869047Y54697619D01*
X179678571Y54697619D01*
X179583333Y54650000D01*
X179535714Y54602380D01*
X179488095Y54507142D01*
X179488095Y54269047D01*
X179535714Y54173809D01*
X179583333Y54126190D01*
X179678571Y54078571D01*
X179869047Y54078571D01*
X179964285Y54126190D01*
X180011904Y54173809D01*
X180059523Y54269047D01*
%TO.C,SW40*%
X286040476Y53745238D02*
X286183333Y53697619D01*
X286421428Y53697619D01*
X286516666Y53745238D01*
X286564285Y53792857D01*
X286611904Y53888095D01*
X286611904Y53983333D01*
X286564285Y54078571D01*
X286516666Y54126190D01*
X286421428Y54173809D01*
X286230952Y54221428D01*
X286135714Y54269047D01*
X286088095Y54316666D01*
X286040476Y54411904D01*
X286040476Y54507142D01*
X286088095Y54602380D01*
X286135714Y54650000D01*
X286230952Y54697619D01*
X286469047Y54697619D01*
X286611904Y54650000D01*
X286945238Y54697619D02*
X287183333Y53697619D01*
X287373809Y54411904D01*
X287564285Y53697619D01*
X287802380Y54697619D01*
X288611904Y54364285D02*
X288611904Y53697619D01*
X288373809Y54745238D02*
X288135714Y54030952D01*
X288754761Y54030952D01*
X289326190Y54697619D02*
X289421428Y54697619D01*
X289516666Y54650000D01*
X289564285Y54602380D01*
X289611904Y54507142D01*
X289659523Y54316666D01*
X289659523Y54078571D01*
X289611904Y53888095D01*
X289564285Y53792857D01*
X289516666Y53745238D01*
X289421428Y53697619D01*
X289326190Y53697619D01*
X289230952Y53745238D01*
X289183333Y53792857D01*
X289135714Y53888095D01*
X289088095Y54078571D01*
X289088095Y54316666D01*
X289135714Y54507142D01*
X289183333Y54602380D01*
X289230952Y54650000D01*
X289326190Y54697619D01*
%TO.C,SW41*%
X171690476Y110895238D02*
X171833333Y110847619D01*
X172071428Y110847619D01*
X172166666Y110895238D01*
X172214285Y110942857D01*
X172261904Y111038095D01*
X172261904Y111133333D01*
X172214285Y111228571D01*
X172166666Y111276190D01*
X172071428Y111323809D01*
X171880952Y111371428D01*
X171785714Y111419047D01*
X171738095Y111466666D01*
X171690476Y111561904D01*
X171690476Y111657142D01*
X171738095Y111752380D01*
X171785714Y111800000D01*
X171880952Y111847619D01*
X172119047Y111847619D01*
X172261904Y111800000D01*
X172595238Y111847619D02*
X172833333Y110847619D01*
X173023809Y111561904D01*
X173214285Y110847619D01*
X173452380Y111847619D01*
X174261904Y111514285D02*
X174261904Y110847619D01*
X174023809Y111895238D02*
X173785714Y111180952D01*
X174404761Y111180952D01*
X175309523Y110847619D02*
X174738095Y110847619D01*
X175023809Y110847619D02*
X175023809Y111847619D01*
X174928571Y111704761D01*
X174833333Y111609523D01*
X174738095Y111561904D01*
%TO.C,SW42*%
X181190476Y91845238D02*
X181333333Y91797619D01*
X181571428Y91797619D01*
X181666666Y91845238D01*
X181714285Y91892857D01*
X181761904Y91988095D01*
X181761904Y92083333D01*
X181714285Y92178571D01*
X181666666Y92226190D01*
X181571428Y92273809D01*
X181380952Y92321428D01*
X181285714Y92369047D01*
X181238095Y92416666D01*
X181190476Y92511904D01*
X181190476Y92607142D01*
X181238095Y92702380D01*
X181285714Y92750000D01*
X181380952Y92797619D01*
X181619047Y92797619D01*
X181761904Y92750000D01*
X182095238Y92797619D02*
X182333333Y91797619D01*
X182523809Y92511904D01*
X182714285Y91797619D01*
X182952380Y92797619D01*
X183761904Y92464285D02*
X183761904Y91797619D01*
X183523809Y92845238D02*
X183285714Y92130952D01*
X183904761Y92130952D01*
X184238095Y92702380D02*
X184285714Y92750000D01*
X184380952Y92797619D01*
X184619047Y92797619D01*
X184714285Y92750000D01*
X184761904Y92702380D01*
X184809523Y92607142D01*
X184809523Y92511904D01*
X184761904Y92369047D01*
X184190476Y91797619D01*
X184809523Y91797619D01*
%TO.C,SW43*%
X185940476Y72795238D02*
X186083333Y72747619D01*
X186321428Y72747619D01*
X186416666Y72795238D01*
X186464285Y72842857D01*
X186511904Y72938095D01*
X186511904Y73033333D01*
X186464285Y73128571D01*
X186416666Y73176190D01*
X186321428Y73223809D01*
X186130952Y73271428D01*
X186035714Y73319047D01*
X185988095Y73366666D01*
X185940476Y73461904D01*
X185940476Y73557142D01*
X185988095Y73652380D01*
X186035714Y73700000D01*
X186130952Y73747619D01*
X186369047Y73747619D01*
X186511904Y73700000D01*
X186845238Y73747619D02*
X187083333Y72747619D01*
X187273809Y73461904D01*
X187464285Y72747619D01*
X187702380Y73747619D01*
X188511904Y73414285D02*
X188511904Y72747619D01*
X188273809Y73795238D02*
X188035714Y73080952D01*
X188654761Y73080952D01*
X188940476Y73747619D02*
X189559523Y73747619D01*
X189226190Y73366666D01*
X189369047Y73366666D01*
X189464285Y73319047D01*
X189511904Y73271428D01*
X189559523Y73176190D01*
X189559523Y72938095D01*
X189511904Y72842857D01*
X189464285Y72795238D01*
X189369047Y72747619D01*
X189083333Y72747619D01*
X188988095Y72795238D01*
X188940476Y72842857D01*
%TO.C,SW44*%
X195490476Y53745238D02*
X195633333Y53697619D01*
X195871428Y53697619D01*
X195966666Y53745238D01*
X196014285Y53792857D01*
X196061904Y53888095D01*
X196061904Y53983333D01*
X196014285Y54078571D01*
X195966666Y54126190D01*
X195871428Y54173809D01*
X195680952Y54221428D01*
X195585714Y54269047D01*
X195538095Y54316666D01*
X195490476Y54411904D01*
X195490476Y54507142D01*
X195538095Y54602380D01*
X195585714Y54650000D01*
X195680952Y54697619D01*
X195919047Y54697619D01*
X196061904Y54650000D01*
X196395238Y54697619D02*
X196633333Y53697619D01*
X196823809Y54411904D01*
X197014285Y53697619D01*
X197252380Y54697619D01*
X198061904Y54364285D02*
X198061904Y53697619D01*
X197823809Y54745238D02*
X197585714Y54030952D01*
X198204761Y54030952D01*
X199014285Y54364285D02*
X199014285Y53697619D01*
X198776190Y54745238D02*
X198538095Y54030952D01*
X199157142Y54030952D01*
%TO.C,SW45*%
X286040476Y34695238D02*
X286183333Y34647619D01*
X286421428Y34647619D01*
X286516666Y34695238D01*
X286564285Y34742857D01*
X286611904Y34838095D01*
X286611904Y34933333D01*
X286564285Y35028571D01*
X286516666Y35076190D01*
X286421428Y35123809D01*
X286230952Y35171428D01*
X286135714Y35219047D01*
X286088095Y35266666D01*
X286040476Y35361904D01*
X286040476Y35457142D01*
X286088095Y35552380D01*
X286135714Y35600000D01*
X286230952Y35647619D01*
X286469047Y35647619D01*
X286611904Y35600000D01*
X286945238Y35647619D02*
X287183333Y34647619D01*
X287373809Y35361904D01*
X287564285Y34647619D01*
X287802380Y35647619D01*
X288611904Y35314285D02*
X288611904Y34647619D01*
X288373809Y35695238D02*
X288135714Y34980952D01*
X288754761Y34980952D01*
X289611904Y35647619D02*
X289135714Y35647619D01*
X289088095Y35171428D01*
X289135714Y35219047D01*
X289230952Y35266666D01*
X289469047Y35266666D01*
X289564285Y35219047D01*
X289611904Y35171428D01*
X289659523Y35076190D01*
X289659523Y34838095D01*
X289611904Y34742857D01*
X289564285Y34695238D01*
X289469047Y34647619D01*
X289230952Y34647619D01*
X289135714Y34695238D01*
X289088095Y34742857D01*
%TO.C,SW46*%
X190740476Y110895238D02*
X190883333Y110847619D01*
X191121428Y110847619D01*
X191216666Y110895238D01*
X191264285Y110942857D01*
X191311904Y111038095D01*
X191311904Y111133333D01*
X191264285Y111228571D01*
X191216666Y111276190D01*
X191121428Y111323809D01*
X190930952Y111371428D01*
X190835714Y111419047D01*
X190788095Y111466666D01*
X190740476Y111561904D01*
X190740476Y111657142D01*
X190788095Y111752380D01*
X190835714Y111800000D01*
X190930952Y111847619D01*
X191169047Y111847619D01*
X191311904Y111800000D01*
X191645238Y111847619D02*
X191883333Y110847619D01*
X192073809Y111561904D01*
X192264285Y110847619D01*
X192502380Y111847619D01*
X193311904Y111514285D02*
X193311904Y110847619D01*
X193073809Y111895238D02*
X192835714Y111180952D01*
X193454761Y111180952D01*
X194264285Y111847619D02*
X194073809Y111847619D01*
X193978571Y111800000D01*
X193930952Y111752380D01*
X193835714Y111609523D01*
X193788095Y111419047D01*
X193788095Y111038095D01*
X193835714Y110942857D01*
X193883333Y110895238D01*
X193978571Y110847619D01*
X194169047Y110847619D01*
X194264285Y110895238D01*
X194311904Y110942857D01*
X194359523Y111038095D01*
X194359523Y111276190D01*
X194311904Y111371428D01*
X194264285Y111419047D01*
X194169047Y111466666D01*
X193978571Y111466666D01*
X193883333Y111419047D01*
X193835714Y111371428D01*
X193788095Y111276190D01*
%TO.C,SW47*%
X200240476Y91845238D02*
X200383333Y91797619D01*
X200621428Y91797619D01*
X200716666Y91845238D01*
X200764285Y91892857D01*
X200811904Y91988095D01*
X200811904Y92083333D01*
X200764285Y92178571D01*
X200716666Y92226190D01*
X200621428Y92273809D01*
X200430952Y92321428D01*
X200335714Y92369047D01*
X200288095Y92416666D01*
X200240476Y92511904D01*
X200240476Y92607142D01*
X200288095Y92702380D01*
X200335714Y92750000D01*
X200430952Y92797619D01*
X200669047Y92797619D01*
X200811904Y92750000D01*
X201145238Y92797619D02*
X201383333Y91797619D01*
X201573809Y92511904D01*
X201764285Y91797619D01*
X202002380Y92797619D01*
X202811904Y92464285D02*
X202811904Y91797619D01*
X202573809Y92845238D02*
X202335714Y92130952D01*
X202954761Y92130952D01*
X203240476Y92797619D02*
X203907142Y92797619D01*
X203478571Y91797619D01*
%TO.C,SW48*%
X204990476Y72795238D02*
X205133333Y72747619D01*
X205371428Y72747619D01*
X205466666Y72795238D01*
X205514285Y72842857D01*
X205561904Y72938095D01*
X205561904Y73033333D01*
X205514285Y73128571D01*
X205466666Y73176190D01*
X205371428Y73223809D01*
X205180952Y73271428D01*
X205085714Y73319047D01*
X205038095Y73366666D01*
X204990476Y73461904D01*
X204990476Y73557142D01*
X205038095Y73652380D01*
X205085714Y73700000D01*
X205180952Y73747619D01*
X205419047Y73747619D01*
X205561904Y73700000D01*
X205895238Y73747619D02*
X206133333Y72747619D01*
X206323809Y73461904D01*
X206514285Y72747619D01*
X206752380Y73747619D01*
X207561904Y73414285D02*
X207561904Y72747619D01*
X207323809Y73795238D02*
X207085714Y73080952D01*
X207704761Y73080952D01*
X208228571Y73319047D02*
X208133333Y73366666D01*
X208085714Y73414285D01*
X208038095Y73509523D01*
X208038095Y73557142D01*
X208085714Y73652380D01*
X208133333Y73700000D01*
X208228571Y73747619D01*
X208419047Y73747619D01*
X208514285Y73700000D01*
X208561904Y73652380D01*
X208609523Y73557142D01*
X208609523Y73509523D01*
X208561904Y73414285D01*
X208514285Y73366666D01*
X208419047Y73319047D01*
X208228571Y73319047D01*
X208133333Y73271428D01*
X208085714Y73223809D01*
X208038095Y73128571D01*
X208038095Y72938095D01*
X208085714Y72842857D01*
X208133333Y72795238D01*
X208228571Y72747619D01*
X208419047Y72747619D01*
X208514285Y72795238D01*
X208561904Y72842857D01*
X208609523Y72938095D01*
X208609523Y73128571D01*
X208561904Y73223809D01*
X208514285Y73271428D01*
X208419047Y73319047D01*
%TO.C,SW49*%
X214540476Y53745238D02*
X214683333Y53697619D01*
X214921428Y53697619D01*
X215016666Y53745238D01*
X215064285Y53792857D01*
X215111904Y53888095D01*
X215111904Y53983333D01*
X215064285Y54078571D01*
X215016666Y54126190D01*
X214921428Y54173809D01*
X214730952Y54221428D01*
X214635714Y54269047D01*
X214588095Y54316666D01*
X214540476Y54411904D01*
X214540476Y54507142D01*
X214588095Y54602380D01*
X214635714Y54650000D01*
X214730952Y54697619D01*
X214969047Y54697619D01*
X215111904Y54650000D01*
X215445238Y54697619D02*
X215683333Y53697619D01*
X215873809Y54411904D01*
X216064285Y53697619D01*
X216302380Y54697619D01*
X217111904Y54364285D02*
X217111904Y53697619D01*
X216873809Y54745238D02*
X216635714Y54030952D01*
X217254761Y54030952D01*
X217683333Y53697619D02*
X217873809Y53697619D01*
X217969047Y53745238D01*
X218016666Y53792857D01*
X218111904Y53935714D01*
X218159523Y54126190D01*
X218159523Y54507142D01*
X218111904Y54602380D01*
X218064285Y54650000D01*
X217969047Y54697619D01*
X217778571Y54697619D01*
X217683333Y54650000D01*
X217635714Y54602380D01*
X217588095Y54507142D01*
X217588095Y54269047D01*
X217635714Y54173809D01*
X217683333Y54126190D01*
X217778571Y54078571D01*
X217969047Y54078571D01*
X218064285Y54126190D01*
X218111904Y54173809D01*
X218159523Y54269047D01*
%TO.C,SW50*%
X304990476Y110895238D02*
X305133333Y110847619D01*
X305371428Y110847619D01*
X305466666Y110895238D01*
X305514285Y110942857D01*
X305561904Y111038095D01*
X305561904Y111133333D01*
X305514285Y111228571D01*
X305466666Y111276190D01*
X305371428Y111323809D01*
X305180952Y111371428D01*
X305085714Y111419047D01*
X305038095Y111466666D01*
X304990476Y111561904D01*
X304990476Y111657142D01*
X305038095Y111752380D01*
X305085714Y111800000D01*
X305180952Y111847619D01*
X305419047Y111847619D01*
X305561904Y111800000D01*
X305895238Y111847619D02*
X306133333Y110847619D01*
X306323809Y111561904D01*
X306514285Y110847619D01*
X306752380Y111847619D01*
X307609523Y111847619D02*
X307133333Y111847619D01*
X307085714Y111371428D01*
X307133333Y111419047D01*
X307228571Y111466666D01*
X307466666Y111466666D01*
X307561904Y111419047D01*
X307609523Y111371428D01*
X307657142Y111276190D01*
X307657142Y111038095D01*
X307609523Y110942857D01*
X307561904Y110895238D01*
X307466666Y110847619D01*
X307228571Y110847619D01*
X307133333Y110895238D01*
X307085714Y110942857D01*
X308276190Y111847619D02*
X308371428Y111847619D01*
X308466666Y111800000D01*
X308514285Y111752380D01*
X308561904Y111657142D01*
X308609523Y111466666D01*
X308609523Y111228571D01*
X308561904Y111038095D01*
X308514285Y110942857D01*
X308466666Y110895238D01*
X308371428Y110847619D01*
X308276190Y110847619D01*
X308180952Y110895238D01*
X308133333Y110942857D01*
X308085714Y111038095D01*
X308038095Y111228571D01*
X308038095Y111466666D01*
X308085714Y111657142D01*
X308133333Y111752380D01*
X308180952Y111800000D01*
X308276190Y111847619D01*
%TO.C,SW51*%
X209790476Y110895238D02*
X209933333Y110847619D01*
X210171428Y110847619D01*
X210266666Y110895238D01*
X210314285Y110942857D01*
X210361904Y111038095D01*
X210361904Y111133333D01*
X210314285Y111228571D01*
X210266666Y111276190D01*
X210171428Y111323809D01*
X209980952Y111371428D01*
X209885714Y111419047D01*
X209838095Y111466666D01*
X209790476Y111561904D01*
X209790476Y111657142D01*
X209838095Y111752380D01*
X209885714Y111800000D01*
X209980952Y111847619D01*
X210219047Y111847619D01*
X210361904Y111800000D01*
X210695238Y111847619D02*
X210933333Y110847619D01*
X211123809Y111561904D01*
X211314285Y110847619D01*
X211552380Y111847619D01*
X212409523Y111847619D02*
X211933333Y111847619D01*
X211885714Y111371428D01*
X211933333Y111419047D01*
X212028571Y111466666D01*
X212266666Y111466666D01*
X212361904Y111419047D01*
X212409523Y111371428D01*
X212457142Y111276190D01*
X212457142Y111038095D01*
X212409523Y110942857D01*
X212361904Y110895238D01*
X212266666Y110847619D01*
X212028571Y110847619D01*
X211933333Y110895238D01*
X211885714Y110942857D01*
X213409523Y110847619D02*
X212838095Y110847619D01*
X213123809Y110847619D02*
X213123809Y111847619D01*
X213028571Y111704761D01*
X212933333Y111609523D01*
X212838095Y111561904D01*
%TO.C,SW52*%
X219290476Y91845238D02*
X219433333Y91797619D01*
X219671428Y91797619D01*
X219766666Y91845238D01*
X219814285Y91892857D01*
X219861904Y91988095D01*
X219861904Y92083333D01*
X219814285Y92178571D01*
X219766666Y92226190D01*
X219671428Y92273809D01*
X219480952Y92321428D01*
X219385714Y92369047D01*
X219338095Y92416666D01*
X219290476Y92511904D01*
X219290476Y92607142D01*
X219338095Y92702380D01*
X219385714Y92750000D01*
X219480952Y92797619D01*
X219719047Y92797619D01*
X219861904Y92750000D01*
X220195238Y92797619D02*
X220433333Y91797619D01*
X220623809Y92511904D01*
X220814285Y91797619D01*
X221052380Y92797619D01*
X221909523Y92797619D02*
X221433333Y92797619D01*
X221385714Y92321428D01*
X221433333Y92369047D01*
X221528571Y92416666D01*
X221766666Y92416666D01*
X221861904Y92369047D01*
X221909523Y92321428D01*
X221957142Y92226190D01*
X221957142Y91988095D01*
X221909523Y91892857D01*
X221861904Y91845238D01*
X221766666Y91797619D01*
X221528571Y91797619D01*
X221433333Y91845238D01*
X221385714Y91892857D01*
X222338095Y92702380D02*
X222385714Y92750000D01*
X222480952Y92797619D01*
X222719047Y92797619D01*
X222814285Y92750000D01*
X222861904Y92702380D01*
X222909523Y92607142D01*
X222909523Y92511904D01*
X222861904Y92369047D01*
X222290476Y91797619D01*
X222909523Y91797619D01*
%TO.C,SW53*%
X224040476Y72795238D02*
X224183333Y72747619D01*
X224421428Y72747619D01*
X224516666Y72795238D01*
X224564285Y72842857D01*
X224611904Y72938095D01*
X224611904Y73033333D01*
X224564285Y73128571D01*
X224516666Y73176190D01*
X224421428Y73223809D01*
X224230952Y73271428D01*
X224135714Y73319047D01*
X224088095Y73366666D01*
X224040476Y73461904D01*
X224040476Y73557142D01*
X224088095Y73652380D01*
X224135714Y73700000D01*
X224230952Y73747619D01*
X224469047Y73747619D01*
X224611904Y73700000D01*
X224945238Y73747619D02*
X225183333Y72747619D01*
X225373809Y73461904D01*
X225564285Y72747619D01*
X225802380Y73747619D01*
X226659523Y73747619D02*
X226183333Y73747619D01*
X226135714Y73271428D01*
X226183333Y73319047D01*
X226278571Y73366666D01*
X226516666Y73366666D01*
X226611904Y73319047D01*
X226659523Y73271428D01*
X226707142Y73176190D01*
X226707142Y72938095D01*
X226659523Y72842857D01*
X226611904Y72795238D01*
X226516666Y72747619D01*
X226278571Y72747619D01*
X226183333Y72795238D01*
X226135714Y72842857D01*
X227040476Y73747619D02*
X227659523Y73747619D01*
X227326190Y73366666D01*
X227469047Y73366666D01*
X227564285Y73319047D01*
X227611904Y73271428D01*
X227659523Y73176190D01*
X227659523Y72938095D01*
X227611904Y72842857D01*
X227564285Y72795238D01*
X227469047Y72747619D01*
X227183333Y72747619D01*
X227088095Y72795238D01*
X227040476Y72842857D01*
%TO.C,SW54*%
X233640476Y53745238D02*
X233783333Y53697619D01*
X234021428Y53697619D01*
X234116666Y53745238D01*
X234164285Y53792857D01*
X234211904Y53888095D01*
X234211904Y53983333D01*
X234164285Y54078571D01*
X234116666Y54126190D01*
X234021428Y54173809D01*
X233830952Y54221428D01*
X233735714Y54269047D01*
X233688095Y54316666D01*
X233640476Y54411904D01*
X233640476Y54507142D01*
X233688095Y54602380D01*
X233735714Y54650000D01*
X233830952Y54697619D01*
X234069047Y54697619D01*
X234211904Y54650000D01*
X234545238Y54697619D02*
X234783333Y53697619D01*
X234973809Y54411904D01*
X235164285Y53697619D01*
X235402380Y54697619D01*
X236259523Y54697619D02*
X235783333Y54697619D01*
X235735714Y54221428D01*
X235783333Y54269047D01*
X235878571Y54316666D01*
X236116666Y54316666D01*
X236211904Y54269047D01*
X236259523Y54221428D01*
X236307142Y54126190D01*
X236307142Y53888095D01*
X236259523Y53792857D01*
X236211904Y53745238D01*
X236116666Y53697619D01*
X235878571Y53697619D01*
X235783333Y53745238D01*
X235735714Y53792857D01*
X237164285Y54364285D02*
X237164285Y53697619D01*
X236926190Y54745238D02*
X236688095Y54030952D01*
X237307142Y54030952D01*
%TO.C,SW56*%
X228840476Y110895238D02*
X228983333Y110847619D01*
X229221428Y110847619D01*
X229316666Y110895238D01*
X229364285Y110942857D01*
X229411904Y111038095D01*
X229411904Y111133333D01*
X229364285Y111228571D01*
X229316666Y111276190D01*
X229221428Y111323809D01*
X229030952Y111371428D01*
X228935714Y111419047D01*
X228888095Y111466666D01*
X228840476Y111561904D01*
X228840476Y111657142D01*
X228888095Y111752380D01*
X228935714Y111800000D01*
X229030952Y111847619D01*
X229269047Y111847619D01*
X229411904Y111800000D01*
X229745238Y111847619D02*
X229983333Y110847619D01*
X230173809Y111561904D01*
X230364285Y110847619D01*
X230602380Y111847619D01*
X231459523Y111847619D02*
X230983333Y111847619D01*
X230935714Y111371428D01*
X230983333Y111419047D01*
X231078571Y111466666D01*
X231316666Y111466666D01*
X231411904Y111419047D01*
X231459523Y111371428D01*
X231507142Y111276190D01*
X231507142Y111038095D01*
X231459523Y110942857D01*
X231411904Y110895238D01*
X231316666Y110847619D01*
X231078571Y110847619D01*
X230983333Y110895238D01*
X230935714Y110942857D01*
X232364285Y111847619D02*
X232173809Y111847619D01*
X232078571Y111800000D01*
X232030952Y111752380D01*
X231935714Y111609523D01*
X231888095Y111419047D01*
X231888095Y111038095D01*
X231935714Y110942857D01*
X231983333Y110895238D01*
X232078571Y110847619D01*
X232269047Y110847619D01*
X232364285Y110895238D01*
X232411904Y110942857D01*
X232459523Y111038095D01*
X232459523Y111276190D01*
X232411904Y111371428D01*
X232364285Y111419047D01*
X232269047Y111466666D01*
X232078571Y111466666D01*
X231983333Y111419047D01*
X231935714Y111371428D01*
X231888095Y111276190D01*
%TO.C,SW57*%
X238340476Y91845238D02*
X238483333Y91797619D01*
X238721428Y91797619D01*
X238816666Y91845238D01*
X238864285Y91892857D01*
X238911904Y91988095D01*
X238911904Y92083333D01*
X238864285Y92178571D01*
X238816666Y92226190D01*
X238721428Y92273809D01*
X238530952Y92321428D01*
X238435714Y92369047D01*
X238388095Y92416666D01*
X238340476Y92511904D01*
X238340476Y92607142D01*
X238388095Y92702380D01*
X238435714Y92750000D01*
X238530952Y92797619D01*
X238769047Y92797619D01*
X238911904Y92750000D01*
X239245238Y92797619D02*
X239483333Y91797619D01*
X239673809Y92511904D01*
X239864285Y91797619D01*
X240102380Y92797619D01*
X240959523Y92797619D02*
X240483333Y92797619D01*
X240435714Y92321428D01*
X240483333Y92369047D01*
X240578571Y92416666D01*
X240816666Y92416666D01*
X240911904Y92369047D01*
X240959523Y92321428D01*
X241007142Y92226190D01*
X241007142Y91988095D01*
X240959523Y91892857D01*
X240911904Y91845238D01*
X240816666Y91797619D01*
X240578571Y91797619D01*
X240483333Y91845238D01*
X240435714Y91892857D01*
X241340476Y92797619D02*
X242007142Y92797619D01*
X241578571Y91797619D01*
%TO.C,SW58*%
X243090476Y72795238D02*
X243233333Y72747619D01*
X243471428Y72747619D01*
X243566666Y72795238D01*
X243614285Y72842857D01*
X243661904Y72938095D01*
X243661904Y73033333D01*
X243614285Y73128571D01*
X243566666Y73176190D01*
X243471428Y73223809D01*
X243280952Y73271428D01*
X243185714Y73319047D01*
X243138095Y73366666D01*
X243090476Y73461904D01*
X243090476Y73557142D01*
X243138095Y73652380D01*
X243185714Y73700000D01*
X243280952Y73747619D01*
X243519047Y73747619D01*
X243661904Y73700000D01*
X243995238Y73747619D02*
X244233333Y72747619D01*
X244423809Y73461904D01*
X244614285Y72747619D01*
X244852380Y73747619D01*
X245709523Y73747619D02*
X245233333Y73747619D01*
X245185714Y73271428D01*
X245233333Y73319047D01*
X245328571Y73366666D01*
X245566666Y73366666D01*
X245661904Y73319047D01*
X245709523Y73271428D01*
X245757142Y73176190D01*
X245757142Y72938095D01*
X245709523Y72842857D01*
X245661904Y72795238D01*
X245566666Y72747619D01*
X245328571Y72747619D01*
X245233333Y72795238D01*
X245185714Y72842857D01*
X246328571Y73319047D02*
X246233333Y73366666D01*
X246185714Y73414285D01*
X246138095Y73509523D01*
X246138095Y73557142D01*
X246185714Y73652380D01*
X246233333Y73700000D01*
X246328571Y73747619D01*
X246519047Y73747619D01*
X246614285Y73700000D01*
X246661904Y73652380D01*
X246709523Y73557142D01*
X246709523Y73509523D01*
X246661904Y73414285D01*
X246614285Y73366666D01*
X246519047Y73319047D01*
X246328571Y73319047D01*
X246233333Y73271428D01*
X246185714Y73223809D01*
X246138095Y73128571D01*
X246138095Y72938095D01*
X246185714Y72842857D01*
X246233333Y72795238D01*
X246328571Y72747619D01*
X246519047Y72747619D01*
X246614285Y72795238D01*
X246661904Y72842857D01*
X246709523Y72938095D01*
X246709523Y73128571D01*
X246661904Y73223809D01*
X246614285Y73271428D01*
X246519047Y73319047D01*
%TO.C,SW59*%
X304990476Y91845238D02*
X305133333Y91797619D01*
X305371428Y91797619D01*
X305466666Y91845238D01*
X305514285Y91892857D01*
X305561904Y91988095D01*
X305561904Y92083333D01*
X305514285Y92178571D01*
X305466666Y92226190D01*
X305371428Y92273809D01*
X305180952Y92321428D01*
X305085714Y92369047D01*
X305038095Y92416666D01*
X304990476Y92511904D01*
X304990476Y92607142D01*
X305038095Y92702380D01*
X305085714Y92750000D01*
X305180952Y92797619D01*
X305419047Y92797619D01*
X305561904Y92750000D01*
X305895238Y92797619D02*
X306133333Y91797619D01*
X306323809Y92511904D01*
X306514285Y91797619D01*
X306752380Y92797619D01*
X307609523Y92797619D02*
X307133333Y92797619D01*
X307085714Y92321428D01*
X307133333Y92369047D01*
X307228571Y92416666D01*
X307466666Y92416666D01*
X307561904Y92369047D01*
X307609523Y92321428D01*
X307657142Y92226190D01*
X307657142Y91988095D01*
X307609523Y91892857D01*
X307561904Y91845238D01*
X307466666Y91797619D01*
X307228571Y91797619D01*
X307133333Y91845238D01*
X307085714Y91892857D01*
X308133333Y91797619D02*
X308323809Y91797619D01*
X308419047Y91845238D01*
X308466666Y91892857D01*
X308561904Y92035714D01*
X308609523Y92226190D01*
X308609523Y92607142D01*
X308561904Y92702380D01*
X308514285Y92750000D01*
X308419047Y92797619D01*
X308228571Y92797619D01*
X308133333Y92750000D01*
X308085714Y92702380D01*
X308038095Y92607142D01*
X308038095Y92369047D01*
X308085714Y92273809D01*
X308133333Y92226190D01*
X308228571Y92178571D01*
X308419047Y92178571D01*
X308514285Y92226190D01*
X308561904Y92273809D01*
X308609523Y92369047D01*
%TO.C,SW61*%
X247890476Y110895238D02*
X248033333Y110847619D01*
X248271428Y110847619D01*
X248366666Y110895238D01*
X248414285Y110942857D01*
X248461904Y111038095D01*
X248461904Y111133333D01*
X248414285Y111228571D01*
X248366666Y111276190D01*
X248271428Y111323809D01*
X248080952Y111371428D01*
X247985714Y111419047D01*
X247938095Y111466666D01*
X247890476Y111561904D01*
X247890476Y111657142D01*
X247938095Y111752380D01*
X247985714Y111800000D01*
X248080952Y111847619D01*
X248319047Y111847619D01*
X248461904Y111800000D01*
X248795238Y111847619D02*
X249033333Y110847619D01*
X249223809Y111561904D01*
X249414285Y110847619D01*
X249652380Y111847619D01*
X250461904Y111847619D02*
X250271428Y111847619D01*
X250176190Y111800000D01*
X250128571Y111752380D01*
X250033333Y111609523D01*
X249985714Y111419047D01*
X249985714Y111038095D01*
X250033333Y110942857D01*
X250080952Y110895238D01*
X250176190Y110847619D01*
X250366666Y110847619D01*
X250461904Y110895238D01*
X250509523Y110942857D01*
X250557142Y111038095D01*
X250557142Y111276190D01*
X250509523Y111371428D01*
X250461904Y111419047D01*
X250366666Y111466666D01*
X250176190Y111466666D01*
X250080952Y111419047D01*
X250033333Y111371428D01*
X249985714Y111276190D01*
X251509523Y110847619D02*
X250938095Y110847619D01*
X251223809Y110847619D02*
X251223809Y111847619D01*
X251128571Y111704761D01*
X251033333Y111609523D01*
X250938095Y111561904D01*
%TO.C,SW62*%
X257390476Y91845238D02*
X257533333Y91797619D01*
X257771428Y91797619D01*
X257866666Y91845238D01*
X257914285Y91892857D01*
X257961904Y91988095D01*
X257961904Y92083333D01*
X257914285Y92178571D01*
X257866666Y92226190D01*
X257771428Y92273809D01*
X257580952Y92321428D01*
X257485714Y92369047D01*
X257438095Y92416666D01*
X257390476Y92511904D01*
X257390476Y92607142D01*
X257438095Y92702380D01*
X257485714Y92750000D01*
X257580952Y92797619D01*
X257819047Y92797619D01*
X257961904Y92750000D01*
X258295238Y92797619D02*
X258533333Y91797619D01*
X258723809Y92511904D01*
X258914285Y91797619D01*
X259152380Y92797619D01*
X259961904Y92797619D02*
X259771428Y92797619D01*
X259676190Y92750000D01*
X259628571Y92702380D01*
X259533333Y92559523D01*
X259485714Y92369047D01*
X259485714Y91988095D01*
X259533333Y91892857D01*
X259580952Y91845238D01*
X259676190Y91797619D01*
X259866666Y91797619D01*
X259961904Y91845238D01*
X260009523Y91892857D01*
X260057142Y91988095D01*
X260057142Y92226190D01*
X260009523Y92321428D01*
X259961904Y92369047D01*
X259866666Y92416666D01*
X259676190Y92416666D01*
X259580952Y92369047D01*
X259533333Y92321428D01*
X259485714Y92226190D01*
X260438095Y92702380D02*
X260485714Y92750000D01*
X260580952Y92797619D01*
X260819047Y92797619D01*
X260914285Y92750000D01*
X260961904Y92702380D01*
X261009523Y92607142D01*
X261009523Y92511904D01*
X260961904Y92369047D01*
X260390476Y91797619D01*
X261009523Y91797619D01*
%TO.C,SW63*%
X305040476Y72795238D02*
X305183333Y72747619D01*
X305421428Y72747619D01*
X305516666Y72795238D01*
X305564285Y72842857D01*
X305611904Y72938095D01*
X305611904Y73033333D01*
X305564285Y73128571D01*
X305516666Y73176190D01*
X305421428Y73223809D01*
X305230952Y73271428D01*
X305135714Y73319047D01*
X305088095Y73366666D01*
X305040476Y73461904D01*
X305040476Y73557142D01*
X305088095Y73652380D01*
X305135714Y73700000D01*
X305230952Y73747619D01*
X305469047Y73747619D01*
X305611904Y73700000D01*
X305945238Y73747619D02*
X306183333Y72747619D01*
X306373809Y73461904D01*
X306564285Y72747619D01*
X306802380Y73747619D01*
X307611904Y73747619D02*
X307421428Y73747619D01*
X307326190Y73700000D01*
X307278571Y73652380D01*
X307183333Y73509523D01*
X307135714Y73319047D01*
X307135714Y72938095D01*
X307183333Y72842857D01*
X307230952Y72795238D01*
X307326190Y72747619D01*
X307516666Y72747619D01*
X307611904Y72795238D01*
X307659523Y72842857D01*
X307707142Y72938095D01*
X307707142Y73176190D01*
X307659523Y73271428D01*
X307611904Y73319047D01*
X307516666Y73366666D01*
X307326190Y73366666D01*
X307230952Y73319047D01*
X307183333Y73271428D01*
X307135714Y73176190D01*
X308040476Y73747619D02*
X308659523Y73747619D01*
X308326190Y73366666D01*
X308469047Y73366666D01*
X308564285Y73319047D01*
X308611904Y73271428D01*
X308659523Y73176190D01*
X308659523Y72938095D01*
X308611904Y72842857D01*
X308564285Y72795238D01*
X308469047Y72747619D01*
X308183333Y72747619D01*
X308088095Y72795238D01*
X308040476Y72842857D01*
%TO.C,SW65*%
X266990476Y34695238D02*
X267133333Y34647619D01*
X267371428Y34647619D01*
X267466666Y34695238D01*
X267514285Y34742857D01*
X267561904Y34838095D01*
X267561904Y34933333D01*
X267514285Y35028571D01*
X267466666Y35076190D01*
X267371428Y35123809D01*
X267180952Y35171428D01*
X267085714Y35219047D01*
X267038095Y35266666D01*
X266990476Y35361904D01*
X266990476Y35457142D01*
X267038095Y35552380D01*
X267085714Y35600000D01*
X267180952Y35647619D01*
X267419047Y35647619D01*
X267561904Y35600000D01*
X267895238Y35647619D02*
X268133333Y34647619D01*
X268323809Y35361904D01*
X268514285Y34647619D01*
X268752380Y35647619D01*
X269561904Y35647619D02*
X269371428Y35647619D01*
X269276190Y35600000D01*
X269228571Y35552380D01*
X269133333Y35409523D01*
X269085714Y35219047D01*
X269085714Y34838095D01*
X269133333Y34742857D01*
X269180952Y34695238D01*
X269276190Y34647619D01*
X269466666Y34647619D01*
X269561904Y34695238D01*
X269609523Y34742857D01*
X269657142Y34838095D01*
X269657142Y35076190D01*
X269609523Y35171428D01*
X269561904Y35219047D01*
X269466666Y35266666D01*
X269276190Y35266666D01*
X269180952Y35219047D01*
X269133333Y35171428D01*
X269085714Y35076190D01*
X270561904Y35647619D02*
X270085714Y35647619D01*
X270038095Y35171428D01*
X270085714Y35219047D01*
X270180952Y35266666D01*
X270419047Y35266666D01*
X270514285Y35219047D01*
X270561904Y35171428D01*
X270609523Y35076190D01*
X270609523Y34838095D01*
X270561904Y34742857D01*
X270514285Y34695238D01*
X270419047Y34647619D01*
X270180952Y34647619D01*
X270085714Y34695238D01*
X270038095Y34742857D01*
%TO.C,SW66*%
X305090476Y53745238D02*
X305233333Y53697619D01*
X305471428Y53697619D01*
X305566666Y53745238D01*
X305614285Y53792857D01*
X305661904Y53888095D01*
X305661904Y53983333D01*
X305614285Y54078571D01*
X305566666Y54126190D01*
X305471428Y54173809D01*
X305280952Y54221428D01*
X305185714Y54269047D01*
X305138095Y54316666D01*
X305090476Y54411904D01*
X305090476Y54507142D01*
X305138095Y54602380D01*
X305185714Y54650000D01*
X305280952Y54697619D01*
X305519047Y54697619D01*
X305661904Y54650000D01*
X305995238Y54697619D02*
X306233333Y53697619D01*
X306423809Y54411904D01*
X306614285Y53697619D01*
X306852380Y54697619D01*
X307661904Y54697619D02*
X307471428Y54697619D01*
X307376190Y54650000D01*
X307328571Y54602380D01*
X307233333Y54459523D01*
X307185714Y54269047D01*
X307185714Y53888095D01*
X307233333Y53792857D01*
X307280952Y53745238D01*
X307376190Y53697619D01*
X307566666Y53697619D01*
X307661904Y53745238D01*
X307709523Y53792857D01*
X307757142Y53888095D01*
X307757142Y54126190D01*
X307709523Y54221428D01*
X307661904Y54269047D01*
X307566666Y54316666D01*
X307376190Y54316666D01*
X307280952Y54269047D01*
X307233333Y54221428D01*
X307185714Y54126190D01*
X308614285Y54697619D02*
X308423809Y54697619D01*
X308328571Y54650000D01*
X308280952Y54602380D01*
X308185714Y54459523D01*
X308138095Y54269047D01*
X308138095Y53888095D01*
X308185714Y53792857D01*
X308233333Y53745238D01*
X308328571Y53697619D01*
X308519047Y53697619D01*
X308614285Y53745238D01*
X308661904Y53792857D01*
X308709523Y53888095D01*
X308709523Y54126190D01*
X308661904Y54221428D01*
X308614285Y54269047D01*
X308519047Y54316666D01*
X308328571Y54316666D01*
X308233333Y54269047D01*
X308185714Y54221428D01*
X308138095Y54126190D01*
%TO.C,SW67*%
X305090476Y34695238D02*
X305233333Y34647619D01*
X305471428Y34647619D01*
X305566666Y34695238D01*
X305614285Y34742857D01*
X305661904Y34838095D01*
X305661904Y34933333D01*
X305614285Y35028571D01*
X305566666Y35076190D01*
X305471428Y35123809D01*
X305280952Y35171428D01*
X305185714Y35219047D01*
X305138095Y35266666D01*
X305090476Y35361904D01*
X305090476Y35457142D01*
X305138095Y35552380D01*
X305185714Y35600000D01*
X305280952Y35647619D01*
X305519047Y35647619D01*
X305661904Y35600000D01*
X305995238Y35647619D02*
X306233333Y34647619D01*
X306423809Y35361904D01*
X306614285Y34647619D01*
X306852380Y35647619D01*
X307661904Y35647619D02*
X307471428Y35647619D01*
X307376190Y35600000D01*
X307328571Y35552380D01*
X307233333Y35409523D01*
X307185714Y35219047D01*
X307185714Y34838095D01*
X307233333Y34742857D01*
X307280952Y34695238D01*
X307376190Y34647619D01*
X307566666Y34647619D01*
X307661904Y34695238D01*
X307709523Y34742857D01*
X307757142Y34838095D01*
X307757142Y35076190D01*
X307709523Y35171428D01*
X307661904Y35219047D01*
X307566666Y35266666D01*
X307376190Y35266666D01*
X307280952Y35219047D01*
X307233333Y35171428D01*
X307185714Y35076190D01*
X308090476Y35647619D02*
X308757142Y35647619D01*
X308328571Y34647619D01*
%TO.C,SW7*%
X48316666Y91845238D02*
X48459523Y91797619D01*
X48697619Y91797619D01*
X48792857Y91845238D01*
X48840476Y91892857D01*
X48888095Y91988095D01*
X48888095Y92083333D01*
X48840476Y92178571D01*
X48792857Y92226190D01*
X48697619Y92273809D01*
X48507142Y92321428D01*
X48411904Y92369047D01*
X48364285Y92416666D01*
X48316666Y92511904D01*
X48316666Y92607142D01*
X48364285Y92702380D01*
X48411904Y92750000D01*
X48507142Y92797619D01*
X48745238Y92797619D01*
X48888095Y92750000D01*
X49221428Y92797619D02*
X49459523Y91797619D01*
X49650000Y92511904D01*
X49840476Y91797619D01*
X50078571Y92797619D01*
X50364285Y92797619D02*
X51030952Y92797619D01*
X50602380Y91797619D01*
%TO.C,SW2*%
X24566666Y91845238D02*
X24709523Y91797619D01*
X24947619Y91797619D01*
X25042857Y91845238D01*
X25090476Y91892857D01*
X25138095Y91988095D01*
X25138095Y92083333D01*
X25090476Y92178571D01*
X25042857Y92226190D01*
X24947619Y92273809D01*
X24757142Y92321428D01*
X24661904Y92369047D01*
X24614285Y92416666D01*
X24566666Y92511904D01*
X24566666Y92607142D01*
X24614285Y92702380D01*
X24661904Y92750000D01*
X24757142Y92797619D01*
X24995238Y92797619D01*
X25138095Y92750000D01*
X25471428Y92797619D02*
X25709523Y91797619D01*
X25900000Y92511904D01*
X26090476Y91797619D01*
X26328571Y92797619D01*
X26661904Y92702380D02*
X26709523Y92750000D01*
X26804761Y92797619D01*
X27042857Y92797619D01*
X27138095Y92750000D01*
X27185714Y92702380D01*
X27233333Y92607142D01*
X27233333Y92511904D01*
X27185714Y92369047D01*
X26614285Y91797619D01*
X27233333Y91797619D01*
%TO.C,SW3*%
X26941666Y72795238D02*
X27084523Y72747619D01*
X27322619Y72747619D01*
X27417857Y72795238D01*
X27465476Y72842857D01*
X27513095Y72938095D01*
X27513095Y73033333D01*
X27465476Y73128571D01*
X27417857Y73176190D01*
X27322619Y73223809D01*
X27132142Y73271428D01*
X27036904Y73319047D01*
X26989285Y73366666D01*
X26941666Y73461904D01*
X26941666Y73557142D01*
X26989285Y73652380D01*
X27036904Y73700000D01*
X27132142Y73747619D01*
X27370238Y73747619D01*
X27513095Y73700000D01*
X27846428Y73747619D02*
X28084523Y72747619D01*
X28275000Y73461904D01*
X28465476Y72747619D01*
X28703571Y73747619D01*
X28989285Y73747619D02*
X29608333Y73747619D01*
X29275000Y73366666D01*
X29417857Y73366666D01*
X29513095Y73319047D01*
X29560714Y73271428D01*
X29608333Y73176190D01*
X29608333Y72938095D01*
X29560714Y72842857D01*
X29513095Y72795238D01*
X29417857Y72747619D01*
X29132142Y72747619D01*
X29036904Y72795238D01*
X28989285Y72842857D01*
%TO.C,SW4*%
X31741666Y53745238D02*
X31884523Y53697619D01*
X32122619Y53697619D01*
X32217857Y53745238D01*
X32265476Y53792857D01*
X32313095Y53888095D01*
X32313095Y53983333D01*
X32265476Y54078571D01*
X32217857Y54126190D01*
X32122619Y54173809D01*
X31932142Y54221428D01*
X31836904Y54269047D01*
X31789285Y54316666D01*
X31741666Y54411904D01*
X31741666Y54507142D01*
X31789285Y54602380D01*
X31836904Y54650000D01*
X31932142Y54697619D01*
X32170238Y54697619D01*
X32313095Y54650000D01*
X32646428Y54697619D02*
X32884523Y53697619D01*
X33075000Y54411904D01*
X33265476Y53697619D01*
X33503571Y54697619D01*
X34313095Y54364285D02*
X34313095Y53697619D01*
X34075000Y54745238D02*
X33836904Y54030952D01*
X34455952Y54030952D01*
%TO.C,D68*%
X282785714Y127547619D02*
X282785714Y128547619D01*
X283023809Y128547619D01*
X283166666Y128500000D01*
X283261904Y128404761D01*
X283309523Y128309523D01*
X283357142Y128119047D01*
X283357142Y127976190D01*
X283309523Y127785714D01*
X283261904Y127690476D01*
X283166666Y127595238D01*
X283023809Y127547619D01*
X282785714Y127547619D01*
X284214285Y128547619D02*
X284023809Y128547619D01*
X283928571Y128500000D01*
X283880952Y128452380D01*
X283785714Y128309523D01*
X283738095Y128119047D01*
X283738095Y127738095D01*
X283785714Y127642857D01*
X283833333Y127595238D01*
X283928571Y127547619D01*
X284119047Y127547619D01*
X284214285Y127595238D01*
X284261904Y127642857D01*
X284309523Y127738095D01*
X284309523Y127976190D01*
X284261904Y128071428D01*
X284214285Y128119047D01*
X284119047Y128166666D01*
X283928571Y128166666D01*
X283833333Y128119047D01*
X283785714Y128071428D01*
X283738095Y127976190D01*
X284880952Y128119047D02*
X284785714Y128166666D01*
X284738095Y128214285D01*
X284690476Y128309523D01*
X284690476Y128357142D01*
X284738095Y128452380D01*
X284785714Y128500000D01*
X284880952Y128547619D01*
X285071428Y128547619D01*
X285166666Y128500000D01*
X285214285Y128452380D01*
X285261904Y128357142D01*
X285261904Y128309523D01*
X285214285Y128214285D01*
X285166666Y128166666D01*
X285071428Y128119047D01*
X284880952Y128119047D01*
X284785714Y128071428D01*
X284738095Y128023809D01*
X284690476Y127928571D01*
X284690476Y127738095D01*
X284738095Y127642857D01*
X284785714Y127595238D01*
X284880952Y127547619D01*
X285071428Y127547619D01*
X285166666Y127595238D01*
X285214285Y127642857D01*
X285261904Y127738095D01*
X285261904Y127928571D01*
X285214285Y128023809D01*
X285166666Y128071428D01*
X285071428Y128119047D01*
X280135714Y125647619D02*
X279564285Y125647619D01*
X279850000Y125647619D02*
X279850000Y126647619D01*
X279754761Y126504761D01*
X279659523Y126409523D01*
X279564285Y126361904D01*
%TO.C,D69*%
X252785714Y127547619D02*
X252785714Y128547619D01*
X253023809Y128547619D01*
X253166666Y128500000D01*
X253261904Y128404761D01*
X253309523Y128309523D01*
X253357142Y128119047D01*
X253357142Y127976190D01*
X253309523Y127785714D01*
X253261904Y127690476D01*
X253166666Y127595238D01*
X253023809Y127547619D01*
X252785714Y127547619D01*
X254214285Y128547619D02*
X254023809Y128547619D01*
X253928571Y128500000D01*
X253880952Y128452380D01*
X253785714Y128309523D01*
X253738095Y128119047D01*
X253738095Y127738095D01*
X253785714Y127642857D01*
X253833333Y127595238D01*
X253928571Y127547619D01*
X254119047Y127547619D01*
X254214285Y127595238D01*
X254261904Y127642857D01*
X254309523Y127738095D01*
X254309523Y127976190D01*
X254261904Y128071428D01*
X254214285Y128119047D01*
X254119047Y128166666D01*
X253928571Y128166666D01*
X253833333Y128119047D01*
X253785714Y128071428D01*
X253738095Y127976190D01*
X254785714Y127547619D02*
X254976190Y127547619D01*
X255071428Y127595238D01*
X255119047Y127642857D01*
X255214285Y127785714D01*
X255261904Y127976190D01*
X255261904Y128357142D01*
X255214285Y128452380D01*
X255166666Y128500000D01*
X255071428Y128547619D01*
X254880952Y128547619D01*
X254785714Y128500000D01*
X254738095Y128452380D01*
X254690476Y128357142D01*
X254690476Y128119047D01*
X254738095Y128023809D01*
X254785714Y127976190D01*
X254880952Y127928571D01*
X255071428Y127928571D01*
X255166666Y127976190D01*
X255214285Y128023809D01*
X255261904Y128119047D01*
X250135714Y125647619D02*
X249564285Y125647619D01*
X249850000Y125647619D02*
X249850000Y126647619D01*
X249754761Y126504761D01*
X249659523Y126409523D01*
X249564285Y126361904D01*
%TO.C,D70*%
X222785714Y127547619D02*
X222785714Y128547619D01*
X223023809Y128547619D01*
X223166666Y128500000D01*
X223261904Y128404761D01*
X223309523Y128309523D01*
X223357142Y128119047D01*
X223357142Y127976190D01*
X223309523Y127785714D01*
X223261904Y127690476D01*
X223166666Y127595238D01*
X223023809Y127547619D01*
X222785714Y127547619D01*
X223690476Y128547619D02*
X224357142Y128547619D01*
X223928571Y127547619D01*
X224928571Y128547619D02*
X225023809Y128547619D01*
X225119047Y128500000D01*
X225166666Y128452380D01*
X225214285Y128357142D01*
X225261904Y128166666D01*
X225261904Y127928571D01*
X225214285Y127738095D01*
X225166666Y127642857D01*
X225119047Y127595238D01*
X225023809Y127547619D01*
X224928571Y127547619D01*
X224833333Y127595238D01*
X224785714Y127642857D01*
X224738095Y127738095D01*
X224690476Y127928571D01*
X224690476Y128166666D01*
X224738095Y128357142D01*
X224785714Y128452380D01*
X224833333Y128500000D01*
X224928571Y128547619D01*
X220135714Y125647619D02*
X219564285Y125647619D01*
X219850000Y125647619D02*
X219850000Y126647619D01*
X219754761Y126504761D01*
X219659523Y126409523D01*
X219564285Y126361904D01*
%TO.C,D71*%
X192785714Y127547619D02*
X192785714Y128547619D01*
X193023809Y128547619D01*
X193166666Y128500000D01*
X193261904Y128404761D01*
X193309523Y128309523D01*
X193357142Y128119047D01*
X193357142Y127976190D01*
X193309523Y127785714D01*
X193261904Y127690476D01*
X193166666Y127595238D01*
X193023809Y127547619D01*
X192785714Y127547619D01*
X193690476Y128547619D02*
X194357142Y128547619D01*
X193928571Y127547619D01*
X195261904Y127547619D02*
X194690476Y127547619D01*
X194976190Y127547619D02*
X194976190Y128547619D01*
X194880952Y128404761D01*
X194785714Y128309523D01*
X194690476Y128261904D01*
X190135714Y125647619D02*
X189564285Y125647619D01*
X189850000Y125647619D02*
X189850000Y126647619D01*
X189754761Y126504761D01*
X189659523Y126409523D01*
X189564285Y126361904D01*
%TO.C,D72*%
X132785714Y127547619D02*
X132785714Y128547619D01*
X133023809Y128547619D01*
X133166666Y128500000D01*
X133261904Y128404761D01*
X133309523Y128309523D01*
X133357142Y128119047D01*
X133357142Y127976190D01*
X133309523Y127785714D01*
X133261904Y127690476D01*
X133166666Y127595238D01*
X133023809Y127547619D01*
X132785714Y127547619D01*
X133690476Y128547619D02*
X134357142Y128547619D01*
X133928571Y127547619D01*
X134690476Y128452380D02*
X134738095Y128500000D01*
X134833333Y128547619D01*
X135071428Y128547619D01*
X135166666Y128500000D01*
X135214285Y128452380D01*
X135261904Y128357142D01*
X135261904Y128261904D01*
X135214285Y128119047D01*
X134642857Y127547619D01*
X135261904Y127547619D01*
X130135714Y125647619D02*
X129564285Y125647619D01*
X129850000Y125647619D02*
X129850000Y126647619D01*
X129754761Y126504761D01*
X129659523Y126409523D01*
X129564285Y126361904D01*
%TO.C,D73*%
X102785714Y127547619D02*
X102785714Y128547619D01*
X103023809Y128547619D01*
X103166666Y128500000D01*
X103261904Y128404761D01*
X103309523Y128309523D01*
X103357142Y128119047D01*
X103357142Y127976190D01*
X103309523Y127785714D01*
X103261904Y127690476D01*
X103166666Y127595238D01*
X103023809Y127547619D01*
X102785714Y127547619D01*
X103690476Y128547619D02*
X104357142Y128547619D01*
X103928571Y127547619D01*
X104642857Y128547619D02*
X105261904Y128547619D01*
X104928571Y128166666D01*
X105071428Y128166666D01*
X105166666Y128119047D01*
X105214285Y128071428D01*
X105261904Y127976190D01*
X105261904Y127738095D01*
X105214285Y127642857D01*
X105166666Y127595238D01*
X105071428Y127547619D01*
X104785714Y127547619D01*
X104690476Y127595238D01*
X104642857Y127642857D01*
X100135714Y125647619D02*
X99564285Y125647619D01*
X99850000Y125647619D02*
X99850000Y126647619D01*
X99754761Y126504761D01*
X99659523Y126409523D01*
X99564285Y126361904D01*
%TO.C,D74*%
X72785714Y127547619D02*
X72785714Y128547619D01*
X73023809Y128547619D01*
X73166666Y128500000D01*
X73261904Y128404761D01*
X73309523Y128309523D01*
X73357142Y128119047D01*
X73357142Y127976190D01*
X73309523Y127785714D01*
X73261904Y127690476D01*
X73166666Y127595238D01*
X73023809Y127547619D01*
X72785714Y127547619D01*
X73690476Y128547619D02*
X74357142Y128547619D01*
X73928571Y127547619D01*
X75166666Y128214285D02*
X75166666Y127547619D01*
X74928571Y128595238D02*
X74690476Y127880952D01*
X75309523Y127880952D01*
X70135714Y125647619D02*
X69564285Y125647619D01*
X69850000Y125647619D02*
X69850000Y126647619D01*
X69754761Y126504761D01*
X69659523Y126409523D01*
X69564285Y126361904D01*
%TO.C,D75*%
X42785714Y127547619D02*
X42785714Y128547619D01*
X43023809Y128547619D01*
X43166666Y128500000D01*
X43261904Y128404761D01*
X43309523Y128309523D01*
X43357142Y128119047D01*
X43357142Y127976190D01*
X43309523Y127785714D01*
X43261904Y127690476D01*
X43166666Y127595238D01*
X43023809Y127547619D01*
X42785714Y127547619D01*
X43690476Y128547619D02*
X44357142Y128547619D01*
X43928571Y127547619D01*
X45214285Y128547619D02*
X44738095Y128547619D01*
X44690476Y128071428D01*
X44738095Y128119047D01*
X44833333Y128166666D01*
X45071428Y128166666D01*
X45166666Y128119047D01*
X45214285Y128071428D01*
X45261904Y127976190D01*
X45261904Y127738095D01*
X45214285Y127642857D01*
X45166666Y127595238D01*
X45071428Y127547619D01*
X44833333Y127547619D01*
X44738095Y127595238D01*
X44690476Y127642857D01*
X40135714Y125647619D02*
X39564285Y125647619D01*
X39850000Y125647619D02*
X39850000Y126647619D01*
X39754761Y126504761D01*
X39659523Y126409523D01*
X39564285Y126361904D01*
%TO.C,Y1*%
X159023809Y116423809D02*
X159023809Y115947619D01*
X158690476Y116947619D02*
X159023809Y116423809D01*
X159357142Y116947619D01*
X160214285Y115947619D02*
X159642857Y115947619D01*
X159928571Y115947619D02*
X159928571Y116947619D01*
X159833333Y116804761D01*
X159738095Y116709523D01*
X159642857Y116661904D01*
%TO.C,C3*%
X168629610Y132865312D02*
X168562267Y132865312D01*
X168427580Y132932656D01*
X168360236Y133000000D01*
X168292893Y133134687D01*
X168292893Y133269374D01*
X168326564Y133370389D01*
X168427580Y133538748D01*
X168528595Y133639763D01*
X168696954Y133740778D01*
X168797969Y133774450D01*
X168932656Y133774450D01*
X169067343Y133707106D01*
X169134687Y133639763D01*
X169202030Y133505076D01*
X169202030Y133437732D01*
X169505076Y133269374D02*
X169942809Y132831641D01*
X169437732Y132797969D01*
X169538748Y132696954D01*
X169572419Y132595938D01*
X169572419Y132528595D01*
X169538748Y132427580D01*
X169370389Y132259221D01*
X169269374Y132225549D01*
X169202030Y132225549D01*
X169101015Y132259221D01*
X168898984Y132461251D01*
X168865312Y132562267D01*
X168865312Y132629610D01*
%TO.C,R1*%
X146833333Y123647619D02*
X146500000Y124123809D01*
X146261904Y123647619D02*
X146261904Y124647619D01*
X146642857Y124647619D01*
X146738095Y124600000D01*
X146785714Y124552380D01*
X146833333Y124457142D01*
X146833333Y124314285D01*
X146785714Y124219047D01*
X146738095Y124171428D01*
X146642857Y124123809D01*
X146261904Y124123809D01*
X147785714Y123647619D02*
X147214285Y123647619D01*
X147500000Y123647619D02*
X147500000Y124647619D01*
X147404761Y124504761D01*
X147309523Y124409523D01*
X147214285Y124361904D01*
%TO.C,C2*%
X153433333Y115042857D02*
X153385714Y114995238D01*
X153242857Y114947619D01*
X153147619Y114947619D01*
X153004761Y114995238D01*
X152909523Y115090476D01*
X152861904Y115185714D01*
X152814285Y115376190D01*
X152814285Y115519047D01*
X152861904Y115709523D01*
X152909523Y115804761D01*
X153004761Y115900000D01*
X153147619Y115947619D01*
X153242857Y115947619D01*
X153385714Y115900000D01*
X153433333Y115852380D01*
X153814285Y115852380D02*
X153861904Y115900000D01*
X153957142Y115947619D01*
X154195238Y115947619D01*
X154290476Y115900000D01*
X154338095Y115852380D01*
X154385714Y115757142D01*
X154385714Y115661904D01*
X154338095Y115519047D01*
X153766666Y114947619D01*
X154385714Y114947619D01*
%TO.C,R2*%
X149133333Y123647619D02*
X148800000Y124123809D01*
X148561904Y123647619D02*
X148561904Y124647619D01*
X148942857Y124647619D01*
X149038095Y124600000D01*
X149085714Y124552380D01*
X149133333Y124457142D01*
X149133333Y124314285D01*
X149085714Y124219047D01*
X149038095Y124171428D01*
X148942857Y124123809D01*
X148561904Y124123809D01*
X149514285Y124552380D02*
X149561904Y124600000D01*
X149657142Y124647619D01*
X149895238Y124647619D01*
X149990476Y124600000D01*
X150038095Y124552380D01*
X150085714Y124457142D01*
X150085714Y124361904D01*
X150038095Y124219047D01*
X149466666Y123647619D01*
X150085714Y123647619D01*
%TO.C,C5*%
X167922626Y113991671D02*
X167922626Y113924328D01*
X167855282Y113789641D01*
X167787939Y113722297D01*
X167653251Y113654954D01*
X167518564Y113654954D01*
X167417549Y113688625D01*
X167249190Y113789641D01*
X167148175Y113890656D01*
X167047160Y114059015D01*
X167013488Y114160030D01*
X167013488Y114294717D01*
X167080832Y114429404D01*
X167148175Y114496748D01*
X167282862Y114564091D01*
X167350206Y114564091D01*
X167922626Y115271198D02*
X167585908Y114934480D01*
X167888954Y114564091D01*
X167888954Y114631435D01*
X167922626Y114732450D01*
X168090984Y114900809D01*
X168192000Y114934480D01*
X168259343Y114934480D01*
X168360358Y114900809D01*
X168528717Y114732450D01*
X168562389Y114631435D01*
X168562389Y114564091D01*
X168528717Y114463076D01*
X168360358Y114294717D01*
X168259343Y114261045D01*
X168192000Y114261045D01*
%TO.C,C4*%
X156734687Y130367549D02*
X156734687Y130300206D01*
X156667343Y130165519D01*
X156600000Y130098175D01*
X156465312Y130030832D01*
X156330625Y130030832D01*
X156229610Y130064503D01*
X156061251Y130165519D01*
X155960236Y130266534D01*
X155859221Y130434893D01*
X155825549Y130535908D01*
X155825549Y130670595D01*
X155892893Y130805282D01*
X155960236Y130872626D01*
X156094923Y130939969D01*
X156162267Y130939969D01*
X156936717Y131377702D02*
X157408122Y130906297D01*
X156498984Y131478717D02*
X156835702Y130805282D01*
X157273435Y131243015D01*
%TO.C,C1*%
X159333333Y114242857D02*
X159285714Y114195238D01*
X159142857Y114147619D01*
X159047619Y114147619D01*
X158904761Y114195238D01*
X158809523Y114290476D01*
X158761904Y114385714D01*
X158714285Y114576190D01*
X158714285Y114719047D01*
X158761904Y114909523D01*
X158809523Y115004761D01*
X158904761Y115100000D01*
X159047619Y115147619D01*
X159142857Y115147619D01*
X159285714Y115100000D01*
X159333333Y115052380D01*
X160285714Y114147619D02*
X159714285Y114147619D01*
X160000000Y114147619D02*
X160000000Y115147619D01*
X159904761Y115004761D01*
X159809523Y114909523D01*
X159714285Y114861904D01*
%TO.C,R3*%
X153245541Y120897969D02*
X153346556Y121470389D01*
X152841480Y121302030D02*
X153548586Y122009137D01*
X153817961Y121739763D01*
X153851632Y121638748D01*
X153851632Y121571404D01*
X153817961Y121470389D01*
X153716945Y121369374D01*
X153615930Y121335702D01*
X153548586Y121335702D01*
X153447571Y121369374D01*
X153178197Y121638748D01*
X154188350Y121369374D02*
X154626083Y120931641D01*
X154121006Y120897969D01*
X154222022Y120796954D01*
X154255693Y120695938D01*
X154255693Y120628595D01*
X154222022Y120527580D01*
X154053663Y120359221D01*
X153952648Y120325549D01*
X153885304Y120325549D01*
X153784289Y120359221D01*
X153582258Y120561251D01*
X153548586Y120662267D01*
X153548586Y120729610D01*
D11*
%TO.C,J1*%
X144100000Y129737500D02*
X144550000Y129737500D01*
X144100000Y134137500D02*
X144100000Y133887500D01*
X151900000Y134137500D02*
X151900000Y133887500D01*
X149700000Y129187500D02*
X149250000Y129187500D01*
X151900000Y129737500D02*
X151450000Y129737500D01*
X149700000Y129187500D02*
X149700000Y129637500D01*
X144100000Y131587500D02*
X144100000Y129737500D01*
X151900000Y131587500D02*
X151900000Y129737500D01*
D10*
%TO.C,U1*%
X164100000Y131618555D02*
X164577297Y131141258D01*
X171418555Y124300000D02*
X170941258Y123822703D01*
X164100000Y116981445D02*
X163622703Y117458742D01*
X156781445Y124300000D02*
X157258742Y123822703D01*
X163693414Y131211969D02*
X162791852Y132113530D01*
X164100000Y131618555D02*
X163693414Y131211969D01*
X156781445Y124300000D02*
X157258742Y124777297D01*
X171418555Y124300000D02*
X170941258Y124777297D01*
X164100000Y116981445D02*
X164577297Y117458742D01*
D11*
%TO.C,SW5*%
X31075000Y33700000D02*
X15875000Y33700000D01*
X15875000Y18500000D02*
X31075000Y18500000D01*
X15875000Y33700000D02*
X15875000Y18500000D01*
X31075000Y18500000D02*
X31075000Y33700000D01*
%TO.C,SW10*%
X54825000Y33700000D02*
X39625000Y33700000D01*
X54825000Y18500000D02*
X54825000Y33700000D01*
X39625000Y33700000D02*
X39625000Y18500000D01*
X39625000Y18500000D02*
X54825000Y18500000D01*
%TO.C,SW15*%
X78575000Y33700000D02*
X63375000Y33700000D01*
X78575000Y18500000D02*
X78575000Y33700000D01*
X63375000Y18500000D02*
X78575000Y18500000D01*
X63375000Y33700000D02*
X63375000Y18500000D01*
%TO.C,SW20*%
X285850000Y94700000D02*
X285850000Y109900000D01*
X270650000Y109900000D02*
X270650000Y94700000D01*
X285850000Y109900000D02*
X270650000Y109900000D01*
X270650000Y94700000D02*
X285850000Y94700000D01*
%TO.C,SW25*%
X275400000Y90850000D02*
X275400000Y75650000D01*
X275400000Y75650000D02*
X290600000Y75650000D01*
X290600000Y75650000D02*
X290600000Y90850000D01*
X290600000Y90850000D02*
X275400000Y90850000D01*
%TO.C,SW30*%
X283425000Y56600000D02*
X283425000Y71800000D01*
X268225000Y56600000D02*
X283425000Y56600000D01*
X283425000Y71800000D02*
X268225000Y71800000D01*
X268225000Y71800000D02*
X268225000Y56600000D01*
%TO.C,SW35*%
X134300000Y18500000D02*
X149500000Y18500000D01*
X149500000Y18500000D02*
X149500000Y33700000D01*
X134300000Y33700000D02*
X134300000Y18500000D01*
X149500000Y33700000D02*
X134300000Y33700000D01*
%TO.C,SW55*%
X224050000Y33700000D02*
X208850000Y33700000D01*
X208850000Y18500000D02*
X224050000Y18500000D01*
X224050000Y18500000D02*
X224050000Y33700000D01*
X208850000Y33700000D02*
X208850000Y18500000D01*
%TO.C,SW60*%
X252600000Y33700000D02*
X237400000Y33700000D01*
X237400000Y18500000D02*
X252600000Y18500000D01*
X237400000Y33700000D02*
X237400000Y18500000D01*
X252600000Y18500000D02*
X252600000Y33700000D01*
%TO.C,SW64*%
X253975000Y52750000D02*
X253975000Y37550000D01*
X269175000Y37550000D02*
X269175000Y52750000D01*
X269175000Y52750000D02*
X253975000Y52750000D01*
X253975000Y37550000D02*
X269175000Y37550000D01*
%TO.C,SW1*%
X28700000Y109900000D02*
X13500000Y109900000D01*
X13500000Y94700000D02*
X28700000Y94700000D01*
X28700000Y94700000D02*
X28700000Y109900000D01*
X13500000Y109900000D02*
X13500000Y94700000D01*
%TO.C,SW6*%
X32550000Y94700000D02*
X47750000Y94700000D01*
X47750000Y94700000D02*
X47750000Y109900000D01*
X47750000Y109900000D02*
X32550000Y109900000D01*
X32550000Y109900000D02*
X32550000Y94700000D01*
%TO.C,SW8*%
X46800000Y56600000D02*
X62000000Y56600000D01*
X46800000Y71800000D02*
X46800000Y56600000D01*
X62000000Y71800000D02*
X46800000Y71800000D01*
X62000000Y56600000D02*
X62000000Y71800000D01*
%TO.C,SW9*%
X56350000Y52750000D02*
X56350000Y37550000D01*
X71550000Y52750000D02*
X56350000Y52750000D01*
X56350000Y37550000D02*
X71550000Y37550000D01*
X71550000Y37550000D02*
X71550000Y52750000D01*
%TO.C,SW11*%
X51600000Y109900000D02*
X51600000Y94700000D01*
X51600000Y94700000D02*
X66800000Y94700000D01*
X66800000Y109900000D02*
X51600000Y109900000D01*
X66800000Y94700000D02*
X66800000Y109900000D01*
%TO.C,SW12*%
X76300000Y75650000D02*
X76300000Y90850000D01*
X76300000Y90850000D02*
X61100000Y90850000D01*
X61100000Y90850000D02*
X61100000Y75650000D01*
X61100000Y75650000D02*
X76300000Y75650000D01*
%TO.C,SW13*%
X81050000Y56600000D02*
X81050000Y71800000D01*
X81050000Y71800000D02*
X65850000Y71800000D01*
X65850000Y56600000D02*
X81050000Y56600000D01*
X65850000Y71800000D02*
X65850000Y56600000D01*
%TO.C,SW14*%
X90600000Y37550000D02*
X90600000Y52750000D01*
X75400000Y52750000D02*
X75400000Y37550000D01*
X90600000Y52750000D02*
X75400000Y52750000D01*
X75400000Y37550000D02*
X90600000Y37550000D01*
%TO.C,SW16*%
X85850000Y94700000D02*
X85850000Y109900000D01*
X85850000Y109900000D02*
X70650000Y109900000D01*
X70650000Y94700000D02*
X85850000Y94700000D01*
X70650000Y109900000D02*
X70650000Y94700000D01*
%TO.C,SW17*%
X80150000Y90850000D02*
X80150000Y75650000D01*
X95350000Y75650000D02*
X95350000Y90850000D01*
X80150000Y75650000D02*
X95350000Y75650000D01*
X95350000Y90850000D02*
X80150000Y90850000D01*
%TO.C,SW18*%
X100100000Y71800000D02*
X84900000Y71800000D01*
X100100000Y56600000D02*
X100100000Y71800000D01*
X84900000Y56600000D02*
X100100000Y56600000D01*
X84900000Y71800000D02*
X84900000Y56600000D01*
%TO.C,SW19*%
X109650000Y52750000D02*
X94450000Y52750000D01*
X94450000Y52750000D02*
X94450000Y37550000D01*
X94450000Y37550000D02*
X109650000Y37550000D01*
X109650000Y37550000D02*
X109650000Y52750000D01*
%TO.C,SW21*%
X89700000Y94700000D02*
X104900000Y94700000D01*
X104900000Y94700000D02*
X104900000Y109900000D01*
X89700000Y109900000D02*
X89700000Y94700000D01*
X104900000Y109900000D02*
X89700000Y109900000D01*
%TO.C,SW22*%
X114400000Y90850000D02*
X99200000Y90850000D01*
X99200000Y90850000D02*
X99200000Y75650000D01*
X99200000Y75650000D02*
X114400000Y75650000D01*
X114400000Y75650000D02*
X114400000Y90850000D01*
%TO.C,SW23*%
X119150000Y71800000D02*
X103950000Y71800000D01*
X103950000Y56600000D02*
X119150000Y56600000D01*
X103950000Y71800000D02*
X103950000Y56600000D01*
X119150000Y56600000D02*
X119150000Y71800000D01*
%TO.C,SW24*%
X113500000Y52750000D02*
X113500000Y37550000D01*
X128700000Y37550000D02*
X128700000Y52750000D01*
X113500000Y37550000D02*
X128700000Y37550000D01*
X128700000Y52750000D02*
X113500000Y52750000D01*
%TO.C,SW26*%
X123950000Y94700000D02*
X123950000Y109900000D01*
X108750000Y94700000D02*
X123950000Y94700000D01*
X108750000Y109900000D02*
X108750000Y94700000D01*
X123950000Y109900000D02*
X108750000Y109900000D01*
%TO.C,SW27*%
X133450000Y75650000D02*
X133450000Y90850000D01*
X133450000Y90850000D02*
X118250000Y90850000D01*
X118250000Y75650000D02*
X133450000Y75650000D01*
X118250000Y90850000D02*
X118250000Y75650000D01*
%TO.C,SW28*%
X123000000Y71800000D02*
X123000000Y56600000D01*
X138200000Y71800000D02*
X123000000Y71800000D01*
X138200000Y56600000D02*
X138200000Y71800000D01*
X123000000Y56600000D02*
X138200000Y56600000D01*
%TO.C,SW29*%
X132550000Y37550000D02*
X147750000Y37550000D01*
X132550000Y52750000D02*
X132550000Y37550000D01*
X147750000Y52750000D02*
X132550000Y52750000D01*
X147750000Y37550000D02*
X147750000Y52750000D01*
%TO.C,SW31*%
X127800000Y109900000D02*
X127800000Y94700000D01*
X143000000Y109900000D02*
X127800000Y109900000D01*
X127800000Y94700000D02*
X143000000Y94700000D01*
X143000000Y94700000D02*
X143000000Y109900000D01*
%TO.C,SW32*%
X137300000Y75650000D02*
X152500000Y75650000D01*
X152500000Y75650000D02*
X152500000Y90850000D01*
X137300000Y90850000D02*
X137300000Y75650000D01*
X152500000Y90850000D02*
X137300000Y90850000D01*
%TO.C,SW33*%
X157250000Y56600000D02*
X157250000Y71800000D01*
X142050000Y56600000D02*
X157250000Y56600000D01*
X157250000Y71800000D02*
X142050000Y71800000D01*
X142050000Y71800000D02*
X142050000Y56600000D01*
%TO.C,SW34*%
X151600000Y37550000D02*
X166800000Y37550000D01*
X166800000Y37550000D02*
X166800000Y52750000D01*
X166800000Y52750000D02*
X151600000Y52750000D01*
X151600000Y52750000D02*
X151600000Y37550000D01*
%TO.C,SW36*%
X146850000Y94700000D02*
X162050000Y94700000D01*
X162050000Y109900000D02*
X146850000Y109900000D01*
X146850000Y109900000D02*
X146850000Y94700000D01*
X162050000Y94700000D02*
X162050000Y109900000D01*
%TO.C,SW37*%
X171550000Y75650000D02*
X171550000Y90850000D01*
X156350000Y90850000D02*
X156350000Y75650000D01*
X171550000Y90850000D02*
X156350000Y90850000D01*
X156350000Y75650000D02*
X171550000Y75650000D01*
%TO.C,SW38*%
X176300000Y56600000D02*
X176300000Y71800000D01*
X161100000Y71800000D02*
X161100000Y56600000D01*
X161100000Y56600000D02*
X176300000Y56600000D01*
X176300000Y71800000D02*
X161100000Y71800000D01*
%TO.C,SW39*%
X170650000Y52750000D02*
X170650000Y37550000D01*
X185850000Y52750000D02*
X170650000Y52750000D01*
X185850000Y37550000D02*
X185850000Y52750000D01*
X170650000Y37550000D02*
X185850000Y37550000D01*
%TO.C,SW40*%
X295450000Y37550000D02*
X295450000Y52750000D01*
X280250000Y37550000D02*
X295450000Y37550000D01*
X295450000Y52750000D02*
X280250000Y52750000D01*
X280250000Y52750000D02*
X280250000Y37550000D01*
%TO.C,SW41*%
X165900000Y94700000D02*
X181100000Y94700000D01*
X181100000Y94700000D02*
X181100000Y109900000D01*
X165900000Y109900000D02*
X165900000Y94700000D01*
X181100000Y109900000D02*
X165900000Y109900000D01*
%TO.C,SW42*%
X175400000Y75650000D02*
X190600000Y75650000D01*
X190600000Y90850000D02*
X175400000Y90850000D01*
X190600000Y75650000D02*
X190600000Y90850000D01*
X175400000Y90850000D02*
X175400000Y75650000D01*
%TO.C,SW43*%
X180150000Y71800000D02*
X180150000Y56600000D01*
X195350000Y71800000D02*
X180150000Y71800000D01*
X180150000Y56600000D02*
X195350000Y56600000D01*
X195350000Y56600000D02*
X195350000Y71800000D01*
%TO.C,SW44*%
X204900000Y37550000D02*
X204900000Y52750000D01*
X189700000Y37550000D02*
X204900000Y37550000D01*
X204900000Y52750000D02*
X189700000Y52750000D01*
X189700000Y52750000D02*
X189700000Y37550000D01*
%TO.C,SW45*%
X280250000Y33700000D02*
X280250000Y18500000D01*
X280250000Y18500000D02*
X295450000Y18500000D01*
X295450000Y18500000D02*
X295450000Y33700000D01*
X295450000Y33700000D02*
X280250000Y33700000D01*
%TO.C,SW46*%
X184950000Y94700000D02*
X200150000Y94700000D01*
X184950000Y109900000D02*
X184950000Y94700000D01*
X200150000Y94700000D02*
X200150000Y109900000D01*
X200150000Y109900000D02*
X184950000Y109900000D01*
%TO.C,SW47*%
X209650000Y75650000D02*
X209650000Y90850000D01*
X194450000Y90850000D02*
X194450000Y75650000D01*
X194450000Y75650000D02*
X209650000Y75650000D01*
X209650000Y90850000D02*
X194450000Y90850000D01*
%TO.C,SW48*%
X199200000Y56600000D02*
X214400000Y56600000D01*
X214400000Y71800000D02*
X199200000Y71800000D01*
X199200000Y71800000D02*
X199200000Y56600000D01*
X214400000Y56600000D02*
X214400000Y71800000D01*
%TO.C,SW49*%
X223950000Y37550000D02*
X223950000Y52750000D01*
X208750000Y52750000D02*
X208750000Y37550000D01*
X208750000Y37550000D02*
X223950000Y37550000D01*
X223950000Y52750000D02*
X208750000Y52750000D01*
%TO.C,SW50*%
X299200000Y109900000D02*
X299200000Y94700000D01*
X314400000Y109900000D02*
X299200000Y109900000D01*
X314400000Y94700000D02*
X314400000Y109900000D01*
X299200000Y94700000D02*
X314400000Y94700000D01*
%TO.C,SW51*%
X219200000Y94700000D02*
X219200000Y109900000D01*
X204000000Y94700000D02*
X219200000Y94700000D01*
X204000000Y109900000D02*
X204000000Y94700000D01*
X219200000Y109900000D02*
X204000000Y109900000D01*
%TO.C,SW52*%
X228700000Y90850000D02*
X213500000Y90850000D01*
X228700000Y75650000D02*
X228700000Y90850000D01*
X213500000Y90850000D02*
X213500000Y75650000D01*
X213500000Y75650000D02*
X228700000Y75650000D01*
%TO.C,SW53*%
X218250000Y71800000D02*
X218250000Y56600000D01*
X233450000Y71800000D02*
X218250000Y71800000D01*
X233450000Y56600000D02*
X233450000Y71800000D01*
X218250000Y56600000D02*
X233450000Y56600000D01*
%TO.C,SW54*%
X227850000Y37550000D02*
X243050000Y37550000D01*
X227850000Y52750000D02*
X227850000Y37550000D01*
X243050000Y37550000D02*
X243050000Y52750000D01*
X243050000Y52750000D02*
X227850000Y52750000D01*
%TO.C,SW56*%
X223050000Y94700000D02*
X238250000Y94700000D01*
X238250000Y94700000D02*
X238250000Y109900000D01*
X223050000Y109900000D02*
X223050000Y94700000D01*
X238250000Y109900000D02*
X223050000Y109900000D01*
%TO.C,SW57*%
X247750000Y75650000D02*
X247750000Y90850000D01*
X232550000Y90850000D02*
X232550000Y75650000D01*
X232550000Y75650000D02*
X247750000Y75650000D01*
X247750000Y90850000D02*
X232550000Y90850000D01*
%TO.C,SW58*%
X237300000Y56600000D02*
X252500000Y56600000D01*
X252500000Y71800000D02*
X237300000Y71800000D01*
X237300000Y71800000D02*
X237300000Y56600000D01*
X252500000Y56600000D02*
X252500000Y71800000D01*
%TO.C,SW59*%
X299200000Y75650000D02*
X314400000Y75650000D01*
X299200000Y90850000D02*
X299200000Y75650000D01*
X314400000Y75650000D02*
X314400000Y90850000D01*
X314400000Y90850000D02*
X299200000Y90850000D01*
%TO.C,SW61*%
X242100000Y109900000D02*
X242100000Y94700000D01*
X242100000Y94700000D02*
X257300000Y94700000D01*
X257300000Y94700000D02*
X257300000Y109900000D01*
X257300000Y109900000D02*
X242100000Y109900000D01*
%TO.C,SW62*%
X266800000Y90850000D02*
X251600000Y90850000D01*
X266800000Y75650000D02*
X266800000Y90850000D01*
X251600000Y90850000D02*
X251600000Y75650000D01*
X251600000Y75650000D02*
X266800000Y75650000D01*
%TO.C,SW63*%
X299250000Y71800000D02*
X299250000Y56600000D01*
X314450000Y71800000D02*
X299250000Y71800000D01*
X314450000Y56600000D02*
X314450000Y71800000D01*
X299250000Y56600000D02*
X314450000Y56600000D01*
%TO.C,SW65*%
X261200000Y18500000D02*
X276400000Y18500000D01*
X276400000Y18500000D02*
X276400000Y33700000D01*
X261200000Y33700000D02*
X261200000Y18500000D01*
X276400000Y33700000D02*
X261200000Y33700000D01*
%TO.C,SW66*%
X299300000Y37550000D02*
X314500000Y37550000D01*
X314500000Y37550000D02*
X314500000Y52750000D01*
X299300000Y52750000D02*
X299300000Y37550000D01*
X314500000Y52750000D02*
X299300000Y52750000D01*
%TO.C,SW67*%
X314500000Y18500000D02*
X314500000Y33700000D01*
X299300000Y33700000D02*
X299300000Y18500000D01*
X314500000Y33700000D02*
X299300000Y33700000D01*
X299300000Y18500000D02*
X314500000Y18500000D01*
%TO.C,SW7*%
X57250000Y90850000D02*
X42050000Y90850000D01*
X42050000Y75650000D02*
X57250000Y75650000D01*
X57250000Y75650000D02*
X57250000Y90850000D01*
X42050000Y90850000D02*
X42050000Y75650000D01*
%TO.C,SW2*%
X18300000Y90850000D02*
X18300000Y75650000D01*
X33500000Y75650000D02*
X33500000Y90850000D01*
X33500000Y90850000D02*
X18300000Y90850000D01*
X18300000Y75650000D02*
X33500000Y75650000D01*
%TO.C,SW3*%
X35875000Y71800000D02*
X20675000Y71800000D01*
X35875000Y56600000D02*
X35875000Y71800000D01*
X20675000Y71800000D02*
X20675000Y56600000D01*
X20675000Y56600000D02*
X35875000Y56600000D01*
%TO.C,SW4*%
X40675000Y52750000D02*
X25475000Y52750000D01*
X40675000Y37550000D02*
X40675000Y52750000D01*
X25475000Y52750000D02*
X25475000Y37550000D01*
X25475000Y37550000D02*
X40675000Y37550000D01*
%TO.C,D68*%
X280350000Y121750000D02*
X287650000Y121750000D01*
X287650000Y121750000D02*
X287650000Y122900000D01*
X280350000Y127250000D02*
X287650000Y127250000D01*
%TO.C,D69*%
X250350000Y121750000D02*
X257650000Y121750000D01*
X257650000Y121750000D02*
X257650000Y122900000D01*
X250350000Y127250000D02*
X257650000Y127250000D01*
%TO.C,D70*%
X227650000Y121750000D02*
X227650000Y122900000D01*
X220350000Y121750000D02*
X227650000Y121750000D01*
X220350000Y127250000D02*
X227650000Y127250000D01*
%TO.C,D71*%
X190350000Y121750000D02*
X197650000Y121750000D01*
X197650000Y121750000D02*
X197650000Y122900000D01*
X190350000Y127250000D02*
X197650000Y127250000D01*
%TO.C,D72*%
X130350000Y127250000D02*
X137650000Y127250000D01*
X137650000Y121750000D02*
X137650000Y122900000D01*
X130350000Y121750000D02*
X137650000Y121750000D01*
%TO.C,D73*%
X100350000Y127250000D02*
X107650000Y127250000D01*
X100350000Y121750000D02*
X107650000Y121750000D01*
X107650000Y121750000D02*
X107650000Y122900000D01*
%TO.C,D74*%
X70350000Y121750000D02*
X77650000Y121750000D01*
X77650000Y121750000D02*
X77650000Y122900000D01*
X70350000Y127250000D02*
X77650000Y127250000D01*
%TO.C,D75*%
X40350000Y121750000D02*
X47650000Y121750000D01*
X40350000Y127250000D02*
X47650000Y127250000D01*
X47650000Y121750000D02*
X47650000Y122900000D01*
%TO.C,Y1*%
X158400000Y119900000D02*
X155100000Y119900000D01*
X155100000Y119900000D02*
X155100000Y115900000D01*
%TO.C,C3*%
X167515010Y131095543D02*
X167145543Y131465010D01*
X168554457Y132134990D02*
X168184990Y132504457D01*
%TO.C,R1*%
X146265000Y126727064D02*
X146265000Y126272936D01*
X147735000Y126727064D02*
X147735000Y126272936D01*
%TO.C,C2*%
X152865000Y117538748D02*
X152865000Y118061252D01*
X154335000Y117538748D02*
X154335000Y118061252D01*
%TO.C,R2*%
X149985000Y126727064D02*
X149985000Y126272936D01*
X148515000Y126727064D02*
X148515000Y126272936D01*
%TO.C,C5*%
X167304457Y115215010D02*
X166934990Y114845543D01*
X166265010Y116254457D02*
X165895543Y115884990D01*
%TO.C,C4*%
X158184990Y128845543D02*
X158554457Y129215010D01*
X157145543Y129884990D02*
X157515010Y130254457D01*
%TO.C,C1*%
X156588748Y113815000D02*
X157111252Y113815000D01*
X156588748Y115285000D02*
X157111252Y115285000D01*
%TO.C,R3*%
X155530282Y122659165D02*
X155209165Y122980282D01*
X154490835Y121619718D02*
X154169718Y121940835D01*
%TD*%
M02*
