%TF.GenerationSoftware,KiCad,Pcbnew,(6.0.1-0)*%
%TF.CreationDate,2022-09-18T11:43:05-04:00*%
%TF.ProjectId,keeb,6b656562-2e6b-4696-9361-645f70636258,rev?*%
%TF.SameCoordinates,Original*%
%TF.FileFunction,Soldermask,Bot*%
%TF.FilePolarity,Negative*%
%FSLAX46Y46*%
G04 Gerber Fmt 4.6, Leading zero omitted, Abs format (unit mm)*
G04 Created by KiCad (PCBNEW (6.0.1-0)) date 2022-09-18 11:43:05*
%MOMM*%
%LPD*%
G01*
G04 APERTURE LIST*
G04 Aperture macros list*
%AMRoundRect*
0 Rectangle with rounded corners*
0 $1 Rounding radius*
0 $2 $3 $4 $5 $6 $7 $8 $9 X,Y pos of 4 corners*
0 Add a 4 corners polygon primitive as box body*
4,1,4,$2,$3,$4,$5,$6,$7,$8,$9,$2,$3,0*
0 Add four circle primitives for the rounded corners*
1,1,$1+$1,$2,$3*
1,1,$1+$1,$4,$5*
1,1,$1+$1,$6,$7*
1,1,$1+$1,$8,$9*
0 Add four rect primitives between the rounded corners*
20,1,$1+$1,$2,$3,$4,$5,0*
20,1,$1+$1,$4,$5,$6,$7,0*
20,1,$1+$1,$6,$7,$8,$9,0*
20,1,$1+$1,$8,$9,$2,$3,0*%
G04 Aperture macros list end*
%ADD10C,1.550000*%
%ADD11O,1.300000X2.000000*%
%ADD12C,3.500000*%
%ADD13C,2.000000*%
%ADD14RoundRect,0.250000X-1.025000X-1.000000X1.025000X-1.000000X1.025000X1.000000X-1.025000X1.000000X0*%
%ADD15C,1.400000*%
%ADD16C,3.700000*%
%ADD17C,5.150000*%
%ADD18C,2.700000*%
%ADD19RoundRect,0.050000X0.450000X0.600000X-0.450000X0.600000X-0.450000X-0.600000X0.450000X-0.600000X0*%
G04 APERTURE END LIST*
D10*
%TO.C,J1*%
X150500000Y130037500D03*
D11*
X144500000Y132737500D03*
X151500000Y132737500D03*
D10*
X145500000Y130037500D03*
%TD*%
D12*
%TO.C,SW5*%
X23475000Y26100000D03*
D13*
X28975000Y26100000D03*
X17975000Y26100000D03*
D14*
X31975000Y29900000D03*
X19975000Y32100000D03*
D15*
X18255000Y21900000D03*
D16*
X23475000Y32000000D03*
X28475000Y29900000D03*
%TD*%
D14*
%TO.C,SW10*%
X55725000Y29900000D03*
D13*
X52725000Y26100000D03*
D12*
X47225000Y26100000D03*
D15*
X42005000Y21900000D03*
D14*
X43725000Y32100000D03*
D13*
X41725000Y26100000D03*
D16*
X47225000Y32000000D03*
X52225000Y29900000D03*
%TD*%
D12*
%TO.C,SW15*%
X70975000Y26100000D03*
D14*
X67475000Y32100000D03*
D15*
X65755000Y21900000D03*
D13*
X76475000Y26100000D03*
X65475000Y26100000D03*
D14*
X79475000Y29900000D03*
D16*
X70975000Y32000000D03*
X75975000Y29900000D03*
%TD*%
D14*
%TO.C,SW20*%
X274750000Y108300000D03*
D17*
X278250000Y102300000D03*
D13*
X272750000Y102300000D03*
X283750000Y102300000D03*
D18*
X273250000Y97150000D03*
D14*
X286750000Y106100000D03*
D16*
X278250000Y108200000D03*
X283250000Y106100000D03*
%TD*%
D13*
%TO.C,SW25*%
X288500000Y83250000D03*
D14*
X291500000Y87050000D03*
D15*
X277780000Y79050000D03*
D14*
X279500000Y89250000D03*
D12*
X283000000Y83250000D03*
D13*
X277500000Y83250000D03*
D16*
X283000000Y89150000D03*
X288000000Y87050000D03*
%TD*%
D14*
%TO.C,SW30*%
X284325000Y68000000D03*
D13*
X281325000Y64200000D03*
D15*
X270605000Y60000000D03*
D13*
X270325000Y64200000D03*
D12*
X275825000Y64200000D03*
D14*
X272325000Y70200000D03*
D16*
X275825000Y70100000D03*
X280825000Y68000000D03*
%TD*%
D13*
%TO.C,SW35*%
X147400000Y26100000D03*
D17*
X141900000Y26100000D03*
D13*
X136400000Y26100000D03*
D14*
X138400000Y32100000D03*
X150400000Y29900000D03*
D18*
X136900000Y20950000D03*
D16*
X141900000Y32000000D03*
X146900000Y29900000D03*
%TD*%
D15*
%TO.C,SW55*%
X211230000Y21900000D03*
D12*
X216450000Y26100000D03*
D14*
X212950000Y32100000D03*
X224950000Y29900000D03*
D13*
X221950000Y26100000D03*
X210950000Y26100000D03*
D16*
X216450000Y32000000D03*
X221450000Y29900000D03*
%TD*%
D13*
%TO.C,SW60*%
X250500000Y26100000D03*
D14*
X241500000Y32100000D03*
X253500000Y29900000D03*
D13*
X239500000Y26100000D03*
D12*
X245000000Y26100000D03*
D15*
X239780000Y21900000D03*
D16*
X245000000Y32000000D03*
X250000000Y29900000D03*
%TD*%
D13*
%TO.C,SW64*%
X256075000Y45150000D03*
X267075000Y45150000D03*
D15*
X256355000Y40950000D03*
D12*
X261575000Y45150000D03*
D14*
X270075000Y48950000D03*
X258075000Y51150000D03*
D16*
X261575000Y51050000D03*
X266575000Y48950000D03*
%TD*%
D15*
%TO.C,SW1*%
X15880000Y98100000D03*
D13*
X15600000Y102300000D03*
D14*
X29600000Y106100000D03*
X17600000Y108300000D03*
D12*
X21100000Y102300000D03*
D13*
X26600000Y102300000D03*
D16*
X21100000Y108200000D03*
X26100000Y106100000D03*
%TD*%
D14*
%TO.C,SW6*%
X48650000Y106100000D03*
D13*
X45650000Y102300000D03*
D15*
X34930000Y98100000D03*
D13*
X34650000Y102300000D03*
D14*
X36650000Y108300000D03*
D12*
X40150000Y102300000D03*
D16*
X40150000Y108200000D03*
X45150000Y106100000D03*
%TD*%
D14*
%TO.C,SW8*%
X62900000Y68000000D03*
D15*
X49180000Y60000000D03*
D13*
X48900000Y64200000D03*
X59900000Y64200000D03*
D14*
X50900000Y70200000D03*
D12*
X54400000Y64200000D03*
D16*
X54400000Y70100000D03*
X59400000Y68000000D03*
%TD*%
D13*
%TO.C,SW9*%
X58450000Y45150000D03*
X69450000Y45150000D03*
D14*
X72450000Y48950000D03*
D12*
X63950000Y45150000D03*
D14*
X60450000Y51150000D03*
D15*
X58730000Y40950000D03*
D16*
X63950000Y51050000D03*
X68950000Y48950000D03*
%TD*%
D13*
%TO.C,SW11*%
X64700000Y102300000D03*
X53700000Y102300000D03*
D14*
X55700000Y108300000D03*
D12*
X59200000Y102300000D03*
D15*
X53980000Y98100000D03*
D14*
X67700000Y106100000D03*
D16*
X59200000Y108200000D03*
X64200000Y106100000D03*
%TD*%
D14*
%TO.C,SW12*%
X77200000Y87050000D03*
D13*
X63200000Y83250000D03*
D15*
X63480000Y79050000D03*
D14*
X65200000Y89250000D03*
D12*
X68700000Y83250000D03*
D13*
X74200000Y83250000D03*
D16*
X68700000Y89150000D03*
X73700000Y87050000D03*
%TD*%
D12*
%TO.C,SW13*%
X73450000Y64200000D03*
D13*
X78950000Y64200000D03*
X67950000Y64200000D03*
D15*
X68230000Y60000000D03*
D14*
X69950000Y70200000D03*
X81950000Y68000000D03*
D16*
X73450000Y70100000D03*
X78450000Y68000000D03*
%TD*%
D12*
%TO.C,SW14*%
X83000000Y45150000D03*
D14*
X79500000Y51150000D03*
X91500000Y48950000D03*
D15*
X77780000Y40950000D03*
D13*
X77500000Y45150000D03*
X88500000Y45150000D03*
D16*
X83000000Y51050000D03*
X88000000Y48950000D03*
%TD*%
D12*
%TO.C,SW16*%
X78250000Y102300000D03*
D13*
X83750000Y102300000D03*
D14*
X86750000Y106100000D03*
X74750000Y108300000D03*
D13*
X72750000Y102300000D03*
D15*
X73030000Y98100000D03*
D16*
X78250000Y108200000D03*
X83250000Y106100000D03*
%TD*%
D13*
%TO.C,SW17*%
X93250000Y83250000D03*
D14*
X96250000Y87050000D03*
X84250000Y89250000D03*
D13*
X82250000Y83250000D03*
D12*
X87750000Y83250000D03*
D15*
X82530000Y79050000D03*
D16*
X87750000Y89150000D03*
X92750000Y87050000D03*
%TD*%
D13*
%TO.C,SW18*%
X98000000Y64200000D03*
D14*
X101000000Y68000000D03*
D13*
X87000000Y64200000D03*
D12*
X92500000Y64200000D03*
D14*
X89000000Y70200000D03*
D15*
X87280000Y60000000D03*
D16*
X92500000Y70100000D03*
X97500000Y68000000D03*
%TD*%
D15*
%TO.C,SW19*%
X96830000Y40950000D03*
D14*
X110550000Y48950000D03*
D12*
X102050000Y45150000D03*
D13*
X96550000Y45150000D03*
D14*
X98550000Y51150000D03*
D13*
X107550000Y45150000D03*
D16*
X102050000Y51050000D03*
X107050000Y48950000D03*
%TD*%
D14*
%TO.C,SW21*%
X93800000Y108300000D03*
X105800000Y106100000D03*
D12*
X97300000Y102300000D03*
D15*
X92080000Y98100000D03*
D13*
X102800000Y102300000D03*
X91800000Y102300000D03*
D16*
X97300000Y108200000D03*
X102300000Y106100000D03*
%TD*%
D15*
%TO.C,SW22*%
X101580000Y79050000D03*
D14*
X115300000Y87050000D03*
D13*
X112300000Y83250000D03*
D14*
X103300000Y89250000D03*
D13*
X101300000Y83250000D03*
D12*
X106800000Y83250000D03*
D16*
X106800000Y89150000D03*
X111800000Y87050000D03*
%TD*%
D13*
%TO.C,SW23*%
X117050000Y64200000D03*
D14*
X120050000Y68000000D03*
X108050000Y70200000D03*
D12*
X111550000Y64200000D03*
D15*
X106330000Y60000000D03*
D13*
X106050000Y64200000D03*
D16*
X111550000Y70100000D03*
X116550000Y68000000D03*
%TD*%
D13*
%TO.C,SW24*%
X126600000Y45150000D03*
D12*
X121100000Y45150000D03*
D14*
X117600000Y51150000D03*
D13*
X115600000Y45150000D03*
D15*
X115880000Y40950000D03*
D14*
X129600000Y48950000D03*
D16*
X121100000Y51050000D03*
X126100000Y48950000D03*
%TD*%
D12*
%TO.C,SW26*%
X116350000Y102300000D03*
D14*
X112850000Y108300000D03*
X124850000Y106100000D03*
D13*
X110850000Y102300000D03*
X121850000Y102300000D03*
D15*
X111130000Y98100000D03*
D16*
X116350000Y108200000D03*
X121350000Y106100000D03*
%TD*%
D13*
%TO.C,SW27*%
X120350000Y83250000D03*
D14*
X122350000Y89250000D03*
D15*
X120630000Y79050000D03*
D12*
X125850000Y83250000D03*
D13*
X131350000Y83250000D03*
D14*
X134350000Y87050000D03*
D16*
X125850000Y89150000D03*
X130850000Y87050000D03*
%TD*%
D14*
%TO.C,SW28*%
X139100000Y68000000D03*
D13*
X125100000Y64200000D03*
D14*
X127100000Y70200000D03*
D12*
X130600000Y64200000D03*
D15*
X125380000Y60000000D03*
D13*
X136100000Y64200000D03*
D16*
X130600000Y70100000D03*
X135600000Y68000000D03*
%TD*%
D12*
%TO.C,SW29*%
X140150000Y45150000D03*
D14*
X148650000Y48950000D03*
D15*
X134930000Y40950000D03*
D13*
X134650000Y45150000D03*
D14*
X136650000Y51150000D03*
D13*
X145650000Y45150000D03*
D16*
X140150000Y51050000D03*
X145150000Y48950000D03*
%TD*%
D13*
%TO.C,SW31*%
X140900000Y102300000D03*
D15*
X130180000Y98100000D03*
D14*
X131900000Y108300000D03*
X143900000Y106100000D03*
D12*
X135400000Y102300000D03*
D13*
X129900000Y102300000D03*
D16*
X135400000Y108200000D03*
X140400000Y106100000D03*
%TD*%
D12*
%TO.C,SW32*%
X144900000Y83250000D03*
D13*
X139400000Y83250000D03*
D14*
X153400000Y87050000D03*
D15*
X139680000Y79050000D03*
D14*
X141400000Y89250000D03*
D13*
X150400000Y83250000D03*
D16*
X144900000Y89150000D03*
X149900000Y87050000D03*
%TD*%
D14*
%TO.C,SW33*%
X158150000Y68000000D03*
D13*
X144150000Y64200000D03*
D14*
X146150000Y70200000D03*
D13*
X155150000Y64200000D03*
D12*
X149650000Y64200000D03*
D15*
X144430000Y60000000D03*
D16*
X149650000Y70100000D03*
X154650000Y68000000D03*
%TD*%
D13*
%TO.C,SW34*%
X153700000Y45150000D03*
X164700000Y45150000D03*
D14*
X155700000Y51150000D03*
D12*
X159200000Y45150000D03*
D15*
X153980000Y40950000D03*
D14*
X167700000Y48950000D03*
D16*
X159200000Y51050000D03*
X164200000Y48950000D03*
%TD*%
D15*
%TO.C,SW36*%
X149230000Y98100000D03*
D13*
X159950000Y102300000D03*
D14*
X162950000Y106100000D03*
D13*
X148950000Y102300000D03*
D12*
X154450000Y102300000D03*
D14*
X150950000Y108300000D03*
D16*
X154450000Y108200000D03*
X159450000Y106100000D03*
%TD*%
D14*
%TO.C,SW37*%
X172450000Y87050000D03*
D12*
X163950000Y83250000D03*
D13*
X158450000Y83250000D03*
D14*
X160450000Y89250000D03*
D13*
X169450000Y83250000D03*
D15*
X158730000Y79050000D03*
D16*
X163950000Y89150000D03*
X168950000Y87050000D03*
%TD*%
D15*
%TO.C,SW38*%
X163480000Y60000000D03*
D12*
X168700000Y64200000D03*
D13*
X163200000Y64200000D03*
D14*
X165200000Y70200000D03*
D13*
X174200000Y64200000D03*
D14*
X177200000Y68000000D03*
D16*
X168700000Y70100000D03*
X173700000Y68000000D03*
%TD*%
D13*
%TO.C,SW39*%
X172750000Y45150000D03*
D14*
X186750000Y48950000D03*
X174750000Y51150000D03*
D13*
X183750000Y45150000D03*
D15*
X173030000Y40950000D03*
D12*
X178250000Y45150000D03*
D16*
X178250000Y51050000D03*
X183250000Y48950000D03*
%TD*%
D12*
%TO.C,SW40*%
X287850000Y45150000D03*
D14*
X296350000Y48950000D03*
D13*
X293350000Y45150000D03*
D15*
X282630000Y40950000D03*
D14*
X284350000Y51150000D03*
D13*
X282350000Y45150000D03*
D16*
X287850000Y51050000D03*
X292850000Y48950000D03*
%TD*%
D14*
%TO.C,SW41*%
X182000000Y106100000D03*
X170000000Y108300000D03*
D13*
X168000000Y102300000D03*
X179000000Y102300000D03*
D15*
X168280000Y98100000D03*
D12*
X173500000Y102300000D03*
D16*
X173500000Y108200000D03*
X178500000Y106100000D03*
%TD*%
D14*
%TO.C,SW42*%
X179500000Y89250000D03*
D13*
X188500000Y83250000D03*
D15*
X177780000Y79050000D03*
D12*
X183000000Y83250000D03*
D14*
X191500000Y87050000D03*
D13*
X177500000Y83250000D03*
D16*
X183000000Y89150000D03*
X188000000Y87050000D03*
%TD*%
D12*
%TO.C,SW43*%
X187750000Y64200000D03*
D14*
X184250000Y70200000D03*
D15*
X182530000Y60000000D03*
D13*
X182250000Y64200000D03*
X193250000Y64200000D03*
D14*
X196250000Y68000000D03*
D16*
X187750000Y70100000D03*
X192750000Y68000000D03*
%TD*%
D14*
%TO.C,SW44*%
X205800000Y48950000D03*
D15*
X192080000Y40950000D03*
D13*
X202800000Y45150000D03*
D14*
X193800000Y51150000D03*
D13*
X191800000Y45150000D03*
D12*
X197300000Y45150000D03*
D16*
X197300000Y51050000D03*
X202300000Y48950000D03*
%TD*%
D14*
%TO.C,SW45*%
X284350000Y32100000D03*
D13*
X282350000Y26100000D03*
X293350000Y26100000D03*
D14*
X296350000Y29900000D03*
D12*
X287850000Y26100000D03*
D15*
X282630000Y21900000D03*
D16*
X287850000Y32000000D03*
X292850000Y29900000D03*
%TD*%
D15*
%TO.C,SW46*%
X187330000Y98100000D03*
D14*
X189050000Y108300000D03*
X201050000Y106100000D03*
D13*
X187050000Y102300000D03*
D12*
X192550000Y102300000D03*
D13*
X198050000Y102300000D03*
D16*
X192550000Y108200000D03*
X197550000Y106100000D03*
%TD*%
D14*
%TO.C,SW47*%
X198550000Y89250000D03*
D13*
X196550000Y83250000D03*
D14*
X210550000Y87050000D03*
D15*
X196830000Y79050000D03*
D12*
X202050000Y83250000D03*
D13*
X207550000Y83250000D03*
D16*
X202050000Y89150000D03*
X207050000Y87050000D03*
%TD*%
D14*
%TO.C,SW48*%
X203300000Y70200000D03*
X215300000Y68000000D03*
D13*
X201300000Y64200000D03*
X212300000Y64200000D03*
D12*
X206800000Y64200000D03*
D15*
X201580000Y60000000D03*
D16*
X206800000Y70100000D03*
X211800000Y68000000D03*
%TD*%
D13*
%TO.C,SW49*%
X210850000Y45150000D03*
D15*
X211130000Y40950000D03*
D13*
X221850000Y45150000D03*
D14*
X224850000Y48950000D03*
X212850000Y51150000D03*
D12*
X216350000Y45150000D03*
D16*
X216350000Y51050000D03*
X221350000Y48950000D03*
%TD*%
D13*
%TO.C,SW50*%
X301300000Y102300000D03*
D15*
X301580000Y98100000D03*
D14*
X315300000Y106100000D03*
X303300000Y108300000D03*
D12*
X306800000Y102300000D03*
D13*
X312300000Y102300000D03*
D16*
X306800000Y108200000D03*
X311800000Y106100000D03*
%TD*%
D13*
%TO.C,SW51*%
X206100000Y102300000D03*
D12*
X211600000Y102300000D03*
D15*
X206380000Y98100000D03*
D14*
X220100000Y106100000D03*
D13*
X217100000Y102300000D03*
D14*
X208100000Y108300000D03*
D16*
X211600000Y108200000D03*
X216600000Y106100000D03*
%TD*%
D14*
%TO.C,SW52*%
X217600000Y89250000D03*
D15*
X215880000Y79050000D03*
D12*
X221100000Y83250000D03*
D13*
X215600000Y83250000D03*
D14*
X229600000Y87050000D03*
D13*
X226600000Y83250000D03*
D16*
X221100000Y89150000D03*
X226100000Y87050000D03*
%TD*%
D14*
%TO.C,SW53*%
X234350000Y68000000D03*
D12*
X225850000Y64200000D03*
D14*
X222350000Y70200000D03*
D15*
X220630000Y60000000D03*
D13*
X231350000Y64200000D03*
X220350000Y64200000D03*
D16*
X225850000Y70100000D03*
X230850000Y68000000D03*
%TD*%
D13*
%TO.C,SW54*%
X229950000Y45150000D03*
X240950000Y45150000D03*
D12*
X235450000Y45150000D03*
D14*
X243950000Y48950000D03*
X231950000Y51150000D03*
D15*
X230230000Y40950000D03*
D16*
X235450000Y51050000D03*
X240450000Y48950000D03*
%TD*%
D13*
%TO.C,SW56*%
X236150000Y102300000D03*
D14*
X239150000Y106100000D03*
D15*
X225430000Y98100000D03*
D12*
X230650000Y102300000D03*
D13*
X225150000Y102300000D03*
D14*
X227150000Y108300000D03*
D16*
X230650000Y108200000D03*
X235650000Y106100000D03*
%TD*%
D14*
%TO.C,SW57*%
X236650000Y89250000D03*
D15*
X234930000Y79050000D03*
D14*
X248650000Y87050000D03*
D13*
X245650000Y83250000D03*
D12*
X240150000Y83250000D03*
D13*
X234650000Y83250000D03*
D16*
X240150000Y89150000D03*
X245150000Y87050000D03*
%TD*%
D12*
%TO.C,SW58*%
X244900000Y64200000D03*
D13*
X250400000Y64200000D03*
D14*
X253400000Y68000000D03*
X241400000Y70200000D03*
D13*
X239400000Y64200000D03*
D15*
X239680000Y60000000D03*
D16*
X244900000Y70100000D03*
X249900000Y68000000D03*
%TD*%
D14*
%TO.C,SW59*%
X303300000Y89250000D03*
D13*
X301300000Y83250000D03*
D12*
X306800000Y83250000D03*
D14*
X315300000Y87050000D03*
D15*
X301580000Y79050000D03*
D13*
X312300000Y83250000D03*
D16*
X306800000Y89150000D03*
X311800000Y87050000D03*
%TD*%
D13*
%TO.C,SW61*%
X255200000Y102300000D03*
X244200000Y102300000D03*
D12*
X249700000Y102300000D03*
D14*
X258200000Y106100000D03*
X246200000Y108300000D03*
D15*
X244480000Y98100000D03*
D16*
X249700000Y108200000D03*
X254700000Y106100000D03*
%TD*%
D15*
%TO.C,SW62*%
X253980000Y79050000D03*
D12*
X259200000Y83250000D03*
D14*
X267700000Y87050000D03*
D13*
X253700000Y83250000D03*
X264700000Y83250000D03*
D14*
X255700000Y89250000D03*
D16*
X259200000Y89150000D03*
X264200000Y87050000D03*
%TD*%
D14*
%TO.C,SW63*%
X315350000Y68000000D03*
D13*
X312350000Y64200000D03*
D14*
X303350000Y70200000D03*
D13*
X301350000Y64200000D03*
D12*
X306850000Y64200000D03*
D15*
X301630000Y60000000D03*
D16*
X306850000Y70100000D03*
X311850000Y68000000D03*
%TD*%
D13*
%TO.C,SW65*%
X263300000Y26100000D03*
D14*
X277300000Y29900000D03*
D15*
X263580000Y21900000D03*
D13*
X274300000Y26100000D03*
D14*
X265300000Y32100000D03*
D12*
X268800000Y26100000D03*
D16*
X268800000Y32000000D03*
X273800000Y29900000D03*
%TD*%
D14*
%TO.C,SW66*%
X315400000Y48950000D03*
D12*
X306900000Y45150000D03*
D15*
X301680000Y40950000D03*
D14*
X303400000Y51150000D03*
D13*
X301400000Y45150000D03*
X312400000Y45150000D03*
D16*
X306900000Y51050000D03*
X311900000Y48950000D03*
%TD*%
D12*
%TO.C,SW67*%
X306900000Y26100000D03*
D13*
X312400000Y26100000D03*
D15*
X301680000Y21900000D03*
D14*
X303400000Y32100000D03*
D13*
X301400000Y26100000D03*
D14*
X315400000Y29900000D03*
D16*
X306900000Y32000000D03*
X311900000Y29900000D03*
%TD*%
D12*
%TO.C,SW7*%
X49650000Y83250000D03*
D15*
X44430000Y79050000D03*
D13*
X55150000Y83250000D03*
D14*
X58150000Y87050000D03*
D13*
X44150000Y83250000D03*
D14*
X46150000Y89250000D03*
D16*
X49650000Y89150000D03*
X54650000Y87050000D03*
%TD*%
D15*
%TO.C,SW2*%
X20680000Y79050000D03*
D13*
X20400000Y83250000D03*
D12*
X25900000Y83250000D03*
D14*
X22400000Y89250000D03*
D13*
X31400000Y83250000D03*
D14*
X34400000Y87050000D03*
D16*
X25900000Y89150000D03*
X30900000Y87050000D03*
%TD*%
D13*
%TO.C,SW3*%
X33775000Y64200000D03*
D14*
X36775000Y68000000D03*
D12*
X28275000Y64200000D03*
D14*
X24775000Y70200000D03*
D15*
X23055000Y60000000D03*
D13*
X22775000Y64200000D03*
D16*
X28275000Y70100000D03*
X33275000Y68000000D03*
%TD*%
D13*
%TO.C,SW4*%
X38575000Y45150000D03*
D14*
X29575000Y51150000D03*
X41575000Y48950000D03*
D13*
X27575000Y45150000D03*
D15*
X27855000Y40950000D03*
D12*
X33075000Y45150000D03*
D16*
X33075000Y51050000D03*
X38075000Y48950000D03*
%TD*%
D19*
%TO.C,D1*%
X27150000Y96700000D03*
X23850000Y96700000D03*
%TD*%
%TO.C,D2*%
X32175000Y77475000D03*
X28875000Y77475000D03*
%TD*%
%TO.C,D3*%
X34400000Y58525000D03*
X31100000Y58525000D03*
%TD*%
%TO.C,D4*%
X39125000Y39550000D03*
X35825000Y39550000D03*
%TD*%
%TO.C,D5*%
X29550000Y20400000D03*
X26250000Y20400000D03*
%TD*%
%TO.C,D6*%
X46250000Y96700000D03*
X42950000Y96700000D03*
%TD*%
%TO.C,D7*%
X55825000Y77525000D03*
X52525000Y77525000D03*
%TD*%
%TO.C,D8*%
X60525000Y58525000D03*
X57225000Y58525000D03*
%TD*%
%TO.C,D9*%
X70100000Y39425000D03*
X66800000Y39425000D03*
%TD*%
%TO.C,D10*%
X53350000Y20400000D03*
X50050000Y20400000D03*
%TD*%
%TO.C,D11*%
X65250000Y96700000D03*
X61950000Y96700000D03*
%TD*%
%TO.C,D12*%
X74825000Y77525000D03*
X71525000Y77525000D03*
%TD*%
%TO.C,D13*%
X79525000Y58525000D03*
X76225000Y58525000D03*
%TD*%
%TO.C,D14*%
X89200000Y39425000D03*
X85900000Y39425000D03*
%TD*%
%TO.C,D15*%
X77150000Y20500000D03*
X73850000Y20500000D03*
%TD*%
%TO.C,D16*%
X84350000Y96700000D03*
X81050000Y96700000D03*
%TD*%
%TO.C,D17*%
X93825000Y77525000D03*
X90525000Y77525000D03*
%TD*%
%TO.C,D18*%
X98625000Y58525000D03*
X95325000Y58525000D03*
%TD*%
%TO.C,D19*%
X108200000Y39425000D03*
X104900000Y39425000D03*
%TD*%
%TO.C,D21*%
X103350000Y96700000D03*
X100050000Y96700000D03*
%TD*%
%TO.C,D22*%
X112925000Y77525000D03*
X109625000Y77525000D03*
%TD*%
%TO.C,D23*%
X117625000Y58525000D03*
X114325000Y58525000D03*
%TD*%
%TO.C,D24*%
X127300000Y39425000D03*
X124000000Y39425000D03*
%TD*%
%TO.C,D26*%
X122450000Y96700000D03*
X119150000Y96700000D03*
%TD*%
%TO.C,D27*%
X132025000Y77525000D03*
X128725000Y77525000D03*
%TD*%
%TO.C,D28*%
X136725000Y58525000D03*
X133425000Y58525000D03*
%TD*%
%TO.C,D29*%
X146300000Y39425000D03*
X143000000Y39425000D03*
%TD*%
%TO.C,D31*%
X141450000Y96700000D03*
X138150000Y96700000D03*
%TD*%
%TO.C,D32*%
X151025000Y77525000D03*
X147725000Y77525000D03*
%TD*%
%TO.C,D33*%
X155725000Y58525000D03*
X152425000Y58525000D03*
%TD*%
%TO.C,D34*%
X165300000Y39425000D03*
X162000000Y39425000D03*
%TD*%
%TO.C,D35*%
X147950000Y20500000D03*
X144650000Y20500000D03*
%TD*%
%TO.C,D36*%
X160550000Y96700000D03*
X157250000Y96700000D03*
%TD*%
%TO.C,D37*%
X170025000Y77525000D03*
X166725000Y77525000D03*
%TD*%
%TO.C,D38*%
X174725000Y58525000D03*
X171425000Y58525000D03*
%TD*%
%TO.C,D39*%
X184400000Y39425000D03*
X181100000Y39425000D03*
%TD*%
%TO.C,D41*%
X179550000Y96700000D03*
X176250000Y96700000D03*
%TD*%
%TO.C,D42*%
X189125000Y77525000D03*
X185825000Y77525000D03*
%TD*%
%TO.C,D43*%
X193825000Y58525000D03*
X190525000Y58525000D03*
%TD*%
%TO.C,D44*%
X203500000Y39425000D03*
X200200000Y39425000D03*
%TD*%
%TO.C,D46*%
X198650000Y96700000D03*
X195350000Y96700000D03*
%TD*%
%TO.C,D47*%
X208125000Y77525000D03*
X204825000Y77525000D03*
%TD*%
%TO.C,D48*%
X212825000Y58525000D03*
X209525000Y58525000D03*
%TD*%
%TO.C,D49*%
X222500000Y39425000D03*
X219200000Y39425000D03*
%TD*%
%TO.C,D51*%
X217650000Y96700000D03*
X214350000Y96700000D03*
%TD*%
%TO.C,D52*%
X227225000Y77525000D03*
X223925000Y77525000D03*
%TD*%
%TO.C,D53*%
X231925000Y58525000D03*
X228625000Y58525000D03*
%TD*%
%TO.C,D54*%
X241600000Y39425000D03*
X238300000Y39425000D03*
%TD*%
%TO.C,D55*%
X222550000Y20500000D03*
X219250000Y20500000D03*
%TD*%
%TO.C,D56*%
X236750000Y96700000D03*
X233450000Y96700000D03*
%TD*%
%TO.C,D57*%
X246225000Y77525000D03*
X242925000Y77525000D03*
%TD*%
%TO.C,D58*%
X251025000Y58525000D03*
X247725000Y58525000D03*
%TD*%
%TO.C,D60*%
X251050000Y20500000D03*
X247750000Y20500000D03*
%TD*%
%TO.C,D61*%
X255750000Y96700000D03*
X252450000Y96700000D03*
%TD*%
%TO.C,D62*%
X265325000Y77525000D03*
X262025000Y77525000D03*
%TD*%
%TO.C,D64*%
X267650000Y39525000D03*
X264350000Y39525000D03*
%TD*%
%TO.C,D65*%
X274850000Y20500000D03*
X271550000Y20500000D03*
%TD*%
%TO.C,D20*%
X284350000Y96700000D03*
X281050000Y96700000D03*
%TD*%
%TO.C,D25*%
X289250000Y77500000D03*
X285950000Y77500000D03*
%TD*%
%TO.C,D30*%
X281875000Y58550000D03*
X278575000Y58550000D03*
%TD*%
%TO.C,D40*%
X293950000Y39500000D03*
X290650000Y39500000D03*
%TD*%
%TO.C,D45*%
X293950000Y20500000D03*
X290650000Y20500000D03*
%TD*%
%TO.C,D50*%
X312850000Y96700000D03*
X309550000Y96700000D03*
%TD*%
%TO.C,D59*%
X312850000Y77600000D03*
X309550000Y77600000D03*
%TD*%
%TO.C,D63*%
X312950000Y58600000D03*
X309650000Y58600000D03*
%TD*%
%TO.C,D66*%
X312950000Y39600000D03*
X309650000Y39600000D03*
%TD*%
%TO.C,D67*%
X312950000Y20500000D03*
X309650000Y20500000D03*
%TD*%
M02*
